SplineFontDB: 3.0
FontName: Neucha
FullName: Neucha
FamilyName: Neucha
Weight: Normal
Copyright: Copyright (c) 2005-2010 by Jovanny Lemonad. All rights reserved.
Version: 001.001
ItalicAngle: 0
UnderlinePosition: -51.2
UnderlineWidth: 51.2
Ascent: 819
Descent: 205
sfntRevision: 0x00010000
LayerCount: 2
Layer: 0 1 "Back"  1
Layer: 1 1 "Fore"  0
NeedsXUIDChange: 1
XUID: [1021 496 529952750 13399910]
FSType: 0
OS2Version: 2
OS2_WeightWidthSlopeOnly: 0
OS2_UseTypoMetrics: 1
CreationTime: 1290989610
ModificationTime: 1291234549
PfmFamily: 33
TTFWeight: 400
TTFWidth: 5
LineGap: 49
VLineGap: 0
Panose: 2 0 5 6 5 0 0 2 0 4
OS2TypoAscent: -32
OS2TypoAOffset: 1
OS2TypoDescent: -87
OS2TypoDOffset: 1
OS2TypoLinegap: 49
OS2WinAscent: -27
OS2WinAOffset: 1
OS2WinDescent: 0
OS2WinDOffset: 1
HheadAscent: -194
HheadAOffset: 1
HheadDescent: 4
HheadDOffset: 1
OS2SubXSize: 717
OS2SubYSize: 666
OS2SubXOff: 0
OS2SubYOff: 143
OS2SupXSize: 717
OS2SupYSize: 666
OS2SupXOff: 0
OS2SupYOff: 488
OS2StrikeYSize: 51
OS2StrikeYPos: 256
OS2Vendor: 'PYRS'
OS2CodePages: 00000097.00000000
OS2UnicodeRanges: 80000287.0000000a.00000000.00000000
Lookup: 258 0 0 "'kern' Horizontal Kerning in Latin lookup 0"  {"'kern' Horizontal Kerning in Latin lookup 0 per glyph data 0"  "'kern' Horizontal Kerning in Latin lookup 0 per glyph data 1"  "'kern' Horizontal Kerning in Latin lookup 0 kerning class 2"  "'kern' Horizontal Kerning in Latin lookup 0 kerning class 3"  "'kern' Horizontal Kerning in Latin lookup 0 kerning class 4"  "'kern' Horizontal Kerning in Latin lookup 0 kerning class 5"  "'kern' Horizontal Kerning in Latin lookup 0 kerning class 6"  "'kern' Horizontal Kerning in Latin lookup 0 kerning class 7"  "'kern' Horizontal Kerning in Latin lookup 0 kerning class 8"  "'kern' Horizontal Kerning in Latin lookup 0 kerning class 9"  "'kern' Horizontal Kerning in Latin lookup 0 kerning class 10"  } ['kern' ('latn' <'dflt' > ) ]
MarkAttachClasses: 1
DEI: 91125

StartChar: numbersign
Encoding: 35 35 4
Width: 622
Flags: W
HStem: 0 21G<53 100.5> 224 83<303.894 354 441 553.205> 234 63<203 354> 243 45<10 121> 434 62<260.703 412 492 547.573> 435 90<46.1725 173.855> 435 78<83 176 259 409.438>
LayerCount: 2
Fore
SplineSet
10 243 m 1,0,-1
 0 288 l 1,1,-1
 136 294 l 1,2,-1
 176 435 l 1,3,-1
 83 435 l 1,4,5
 62 439 62 439 47.5 455.5 c 128,-1,6
 33 472 33 472 33 490 c 0,7,8
 33 516 33 516 63 525 c 1,9,10
 130 518 130 518 200 513 c 1,11,12
 251 684 251 684 264 717 c 1,13,-1
 326 717 l 1,14,15
 294 632 294 632 259 509 c 1,16,17
 313 505 313 505 431 499 c 1,18,19
 484 677 484 677 501 720 c 1,20,-1
 562 720 l 1,21,22
 537 659 537 659 492 496 c 1,23,-1
 612 487 l 1,24,-1
 623 442 l 1,25,26
 575 438 575 438 475 434 c 1,27,-1
 441 307 l 1,28,-1
 505 310 l 1,29,30
 530 309 530 309 547 292 c 128,-1,31
 564 275 564 275 564 255 c 0,32,33
 564 242 564 242 554 232 c 128,-1,34
 544 222 544 222 524 220 c 1,35,36
 458 222 458 222 421 224 c 1,37,38
 380 66 380 66 362 8 c 1,39,40
 349 3 349 3 325 3 c 2,41,-1
 290 3 l 1,42,43
 293 12 293 12 301.5 41 c 128,-1,44
 310 70 310 70 326 128 c 128,-1,45
 342 186 342 186 354 227 c 1,46,-1
 187 234 l 1,47,48
 177 197 177 197 163 143 c 128,-1,49
 149 89 149 89 140.5 56 c 128,-1,50
 132 23 132 23 126 5 c 1,51,52
 113 0 113 0 88 0 c 2,53,-1
 53 0 l 1,54,55
 59 17 59 17 121 238 c 1,56,-1
 10 243 l 1,0,-1
239 432 m 1,57,-1
 203 297 l 1,58,-1
 376 304 l 1,59,-1
 412 433 l 1,60,61
 354 432 354 432 239 432 c 1,57,-1
EndSplineSet
EndChar

StartChar: dollar
Encoding: 36 36 5
Width: 478
Flags: W
HStem: 700 68<153.101 214.78>
VStem: 20 91<513.906 657.371> 214.5 49.5<767 819> 218 76<114.941 328> 219 66<440 652.953> 369 89<108.973 257.925>
LayerCount: 2
Fore
SplineSet
214 829 m 1,0,-1
 259 819 l 1,1,-1
 264 760 l 1,2,3
 330 747 330 747 430 702 c 1,4,-1
 418 662 l 1,5,6
 330 690 330 690 269 698 c 1,7,8
 281 512 281 512 285 419 c 1,9,10
 364 389 364 389 411 316 c 128,-1,11
 458 243 458 243 458 164 c 0,12,13
 458 92 458 92 412.5 44.5 c 128,-1,14
 367 -3 367 -3 295 -5 c 1,15,16
 295 -12 295 -12 295.5 -25 c 128,-1,17
 296 -38 296 -38 296 -45 c 1,18,19
 287 -76 287 -76 261 -76 c 0,20,21
 243 -76 243 -76 226.5 -61.5 c 128,-1,22
 210 -47 210 -47 206 -26 c 1,23,24
 206 -17 206 -17 208 1 c 1,25,26
 86 18 86 18 38 57 c 1,27,-1
 52 113 l 1,28,29
 133 70 133 70 211 67 c 1,30,31
 216 178 216 178 218 358 c 1,32,33
 123 384 123 384 71.5 445.5 c 128,-1,34
 20 507 20 507 20 579 c 0,35,36
 20 650 20 650 71 709 c 128,-1,37
 122 768 122 768 194 768 c 0,38,39
 208 768 208 768 215 767 c 1,40,41
 215 778 215 778 214.5 798.5 c 128,-1,42
 214 819 214 819 214 829 c 1,0,-1
217 700 m 1,43,44
 173 700 173 700 142 668 c 128,-1,45
 111 636 111 636 111 590 c 0,46,47
 111 546 111 546 138.5 505 c 128,-1,48
 166 464 166 464 219 440 c 1,49,50
 219 532 219 532 217 700 c 1,43,44
294 76 m 1,51,52
 330 90 330 90 349.5 111 c 128,-1,53
 369 132 369 132 369 169 c 0,54,55
 369 210 369 210 348 255 c 128,-1,56
 327 300 327 300 294 328 c 1,57,-1
 294 76 l 1,51,52
EndSplineSet
EndChar

StartChar: percent
Encoding: 37 37 6
Width: 674
Flags: W
HStem: -25 68<453.003 579.383> -15 21G<115 135.5> 243 65<458.682 577.977> 464 67<100.316 225.508> 731 66<104.979 224.977>
VStem: 0 61<569.325 687.431> 263 59<569.725 692.787> 353 62<80.5034 199.119> 616 59<80.916 204.277>
LayerCount: 2
Fore
SplineSet
545 773 m 1,0,-1
 598 737 l 1,1,2
 578 692 578 692 381.5 377.5 c 128,-1,3
 185 63 185 63 160 2 c 1,4,5
 146 -15 146 -15 125 -15 c 0,6,7
 105 -15 105 -15 90.5 0.5 c 128,-1,8
 76 16 76 16 76 37 c 0,9,10
 76 48 76 48 82 60 c 1,11,12
 130 120 130 120 304.5 386 c 128,-1,13
 479 652 479 652 545 773 c 1,0,-1
353 135 m 0,14,15
 353 199 353 199 404 253.5 c 128,-1,16
 455 308 455 308 520 308 c 0,17,18
 579 308 579 308 627 258.5 c 128,-1,19
 675 209 675 209 675 147 c 0,20,21
 675 79 675 79 631 27 c 128,-1,22
 587 -25 587 -25 520 -25 c 0,23,24
 455 -25 455 -25 404 20.5 c 128,-1,25
 353 66 353 66 353 135 c 0,14,15
519 243 m 0,26,27
 480 243 480 243 447.5 211 c 128,-1,28
 415 179 415 179 415 139 c 128,-1,29
 415 99 415 99 446 71 c 128,-1,30
 477 43 477 43 519 43 c 0,31,32
 559 43 559 43 587.5 73 c 128,-1,33
 616 103 616 103 616 146 c 0,34,35
 616 183 616 183 586.5 213 c 128,-1,36
 557 243 557 243 519 243 c 0,26,27
0 624 m 0,37,38
 0 688 0 688 51 742.5 c 128,-1,39
 102 797 102 797 167 797 c 0,40,41
 226 797 226 797 274 747.5 c 128,-1,42
 322 698 322 698 322 636 c 0,43,44
 322 568 322 568 278 516 c 128,-1,45
 234 464 234 464 167 464 c 0,46,47
 102 464 102 464 51 509.5 c 128,-1,48
 0 555 0 555 0 624 c 0,37,38
166 731 m 0,49,50
 127 731 127 731 94 699.5 c 128,-1,51
 61 668 61 668 61 628 c 128,-1,52
 61 588 61 588 92.5 559.5 c 128,-1,53
 124 531 124 531 166 531 c 0,54,55
 206 531 206 531 234.5 561.5 c 128,-1,56
 263 592 263 592 263 635 c 0,57,58
 263 671 263 671 233.5 701 c 128,-1,59
 204 731 204 731 166 731 c 0,49,50
EndSplineSet
EndChar

StartChar: ampersand
Encoding: 38 38 7
Width: 570
Flags: W
HStem: 0 71<186.99 339.229> 331 66<444 445.948 508 521 549 558> 341 49<188.206 355.516> 646 49<170.969 334.745>
VStem: 20 85<145.659 278.165> 36 75<452.007 593.392> 449 62<196.643 330>
LayerCount: 2
Fore
SplineSet
438 535 m 1,0,-1
 488 531 l 1,1,2
 491 512 491 512 501 397 c 0,3,4
 502 397 502 397 521 398 c 128,-1,5
 540 399 540 399 549 399 c 128,-1,6
 558 399 558 399 558 398 c 0,7,8
 570 374 570 374 570 337 c 2,9,-1
 570 331 l 1,10,-1
 508 331 l 1,11,12
 511 306 511 306 511 280 c 0,13,14
 511 165 511 165 449 89 c 128,-1,15
 387 13 387 13 262 0 c 1,16,17
 237 0 237 0 210 4.5 c 128,-1,18
 183 9 183 9 149.5 23.5 c 128,-1,19
 116 38 116 38 90 59.5 c 128,-1,20
 64 81 64 81 44 119.5 c 128,-1,21
 24 158 24 158 20 207 c 1,22,23
 20 262 20 262 43 309.5 c 128,-1,24
 66 357 66 357 110 383 c 1,25,26
 36 440 36 440 36 518 c 0,27,28
 36 593 36 593 98.5 644 c 128,-1,29
 161 695 161 695 245 695 c 0,30,31
 308 695 308 695 345 680 c 1,32,-1
 330 642 l 1,33,34
 305 646 305 646 270 646 c 0,35,36
 204 646 204 646 157.5 616 c 128,-1,37
 111 586 111 586 111 522 c 0,38,39
 111 390 111 390 330 390 c 0,40,41
 350 390 350 390 388.5 391.5 c 128,-1,42
 427 393 427 393 446 393 c 1,43,44
 439 453 439 453 438 535 c 1,0,-1
444 330 m 1,45,-1
 190 341 l 1,46,47
 105 277 105 277 105 214 c 0,48,49
 105 160 105 160 152.5 118 c 128,-1,50
 200 76 200 76 260 71 c 1,51,52
 339 71 339 71 394 142.5 c 128,-1,53
 449 214 449 214 449 293 c 0,54,55
 449 312 449 312 444 330 c 1,45,-1
EndSplineSet
EndChar

StartChar: quotesingle
Encoding: 39 39 8
Width: 131
Flags: W
HStem: 527 212<58.6764 89.0775>
VStem: 20 91<648.824 725.515>
LayerCount: 2
Fore
SplineSet
88 527 m 1,0,-1
 43 538 l 1,1,-1
 20 699 l 1,2,3
 22 719 22 719 32 729 c 128,-1,4
 42 739 42 739 55 739 c 0,5,6
 75 739 75 739 92.5 722 c 128,-1,7
 110 705 110 705 111 680 c 1,8,-1
 88 527 l 1,0,-1
EndSplineSet
EndChar

StartChar: parenleft
Encoding: 40 40 9
Width: 201
Flags: W
VStem: 41 63<168.658 536.524>
LayerCount: 2
Fore
SplineSet
115 762 m 1,0,-1
 159 749 l 1,1,2
 104 494 104 494 104 360 c 0,3,4
 104 311 104 311 111 259.5 c 128,-1,5
 118 208 118 208 126 171 c 128,-1,6
 134 134 134 134 151.5 61 c 128,-1,7
 169 -12 169 -12 181 -66 c 1,8,9
 180 -112 180 -112 150 -112 c 0,10,11
 138 -112 138 -112 125 -103 c 128,-1,12
 112 -94 112 -94 106 -78 c 1,13,14
 102 -61 102 -61 91.5 -12 c 128,-1,15
 81 37 81 37 76 59.5 c 128,-1,16
 71 82 71 82 63 126 c 128,-1,17
 55 170 55 170 51 199.5 c 128,-1,18
 47 229 47 229 44 268 c 128,-1,19
 41 307 41 307 41 342 c 0,20,21
 41 486 41 486 115 762 c 1,0,-1
EndSplineSet
EndChar

StartChar: parenright
Encoding: 41 41 10
Width: 201
Flags: W
VStem: 97 64<171.875 538.517>
LayerCount: 2
Fore
SplineSet
43 749 m 1,0,-1
 87 762 l 1,1,2
 161 486 161 486 161 342 c 0,3,4
 161 313 161 313 159.5 284 c 128,-1,5
 158 255 158 255 153 220 c 128,-1,6
 148 185 148 185 145 164 c 128,-1,7
 142 143 142 143 133.5 100 c 128,-1,8
 125 57 125 57 122 44 c 128,-1,9
 119 31 119 31 108 -20 c 128,-1,10
 97 -71 97 -71 95 -78 c 0,11,12
 81 -112 81 -112 52 -112 c 0,13,14
 39 -112 39 -112 30 -100.5 c 128,-1,15
 21 -89 21 -89 20 -66 c 1,16,17
 32 -12 32 -12 49.5 61 c 128,-1,18
 67 134 67 134 75 171 c 128,-1,19
 83 208 83 208 90 259.5 c 128,-1,20
 97 311 97 311 97 360 c 0,21,22
 97 498 97 498 43 749 c 1,0,-1
EndSplineSet
EndChar

StartChar: asterisk
Encoding: 42 42 11
Width: 364
Flags: W
HStem: 558 85<233.477 347.926> 725 20G<39.1538 84.25>
VStem: 139 84<435.537 548.77> 159 46<669.504 767> 165 32<669 756.526>
LayerCount: 2
Fore
SplineSet
32 719 m 1,0,-1
 63 745 l 1,1,-1
 165 649 l 1,2,3
 165 670 165 670 162 706 c 128,-1,4
 159 742 159 742 159 757 c 0,5,6
 159 771 159 771 160 777 c 1,7,-1
 205 767 l 1,8,9
 205 750 205 750 201 717.5 c 128,-1,10
 197 685 197 685 197 669 c 1,11,12
 207 679 207 679 229 703.5 c 128,-1,13
 251 728 251 728 270.5 748 c 128,-1,14
 290 768 290 768 305 778 c 1,15,-1
 334 739 l 1,16,17
 326 731 326 731 283.5 689 c 128,-1,18
 241 647 241 647 224 628 c 1,19,20
 239 629 239 629 281.5 635.5 c 128,-1,21
 324 642 324 642 337 643 c 1,22,23
 346 627 346 627 351.5 611.5 c 128,-1,24
 357 596 357 596 360.5 579.5 c 128,-1,25
 364 563 364 563 365 558 c 1,26,27
 349 559 349 559 298.5 567.5 c 128,-1,28
 248 576 248 576 233 577 c 1,29,30
 250 562 250 562 297.5 525 c 128,-1,31
 345 488 345 488 361 474 c 1,32,33
 350 465 350 465 341.5 458.5 c 128,-1,34
 333 452 333 452 328.5 449.5 c 128,-1,35
 324 447 324 447 313 441.5 c 128,-1,36
 302 436 302 436 294 431 c 1,37,38
 280 446 280 446 250 490 c 128,-1,39
 220 534 220 534 206 549 c 1,40,41
 206 542 206 542 214 490 c 128,-1,42
 222 438 222 438 223 431 c 1,43,-1
 216 431 l 1,44,45
 177 432 177 432 139 439 c 1,46,-1
 147 563 l 1,47,48
 139 553 139 553 108.5 498.5 c 128,-1,49
 78 444 78 444 58 431 c 1,50,51
 44 437 44 437 37 445.5 c 128,-1,52
 30 454 30 454 20 473.5 c 128,-1,53
 10 493 10 493 0 509 c 1,54,55
 50 533 50 533 94 573 c 1,56,57
 83 574 83 574 49.5 581.5 c 128,-1,58
 16 589 16 589 10 590 c 1,59,-1
 0 635 l 2,60,61
 1 635 1 635 5 635.5 c 128,-1,62
 9 636 9 636 11 636 c 0,63,64
 26 636 26 636 67 632 c 128,-1,65
 108 628 108 628 121 628 c 1,66,67
 112 638 112 638 78 670.5 c 128,-1,68
 44 703 44 703 32 719 c 1,0,-1
EndSplineSet
EndChar

StartChar: plus
Encoding: 43 43 12
Width: 454
Flags: W
HStem: 297 71<249 363.856> 309 45<10 125.44>
VStem: 177 72<113.286 297 368 524.25> 178 90<94.3506 296.303>
LayerCount: 2
Fore
SplineSet
178 571 m 1,0,-1
 223 561 l 1,1,2
 225 540 225 540 232.5 463 c 128,-1,3
 240 386 240 386 242 368 c 1,4,-1
 395 377 l 1,5,6
 420 376 420 376 437.5 359 c 128,-1,7
 455 342 455 342 455 322 c 0,8,9
 455 309 455 309 445 299 c 128,-1,10
 435 289 435 289 415 287 c 1,11,12
 371 289 371 289 249 297 c 1,13,14
 251 275 251 275 258 214 c 128,-1,15
 265 153 265 153 268 112 c 1,16,17
 259 81 259 81 233 81 c 0,18,19
 215 81 215 81 198.5 95.5 c 128,-1,20
 182 110 182 110 178 131 c 1,21,22
 179 157 179 157 179 207 c 0,23,24
 179 218 179 218 177 300 c 1,25,-1
 10 309 l 1,26,-1
 0 354 l 1,27,-1
 175 364 l 1,28,29
 174 391 174 391 174 444 c 0,30,31
 174 514 174 514 178 571 c 1,0,-1
EndSplineSet
EndChar

StartChar: comma
Encoding: 44 44 13
Width: 167
Flags: W
HStem: -120 32<22 54.8047> 1 21G<59.5 71.5>
VStem: 92 55<-61.8301 2.5636>
LayerCount: 2
Fore
SplineSet
22 -120 m 1,0,-1
 20 -88 l 1,1,2
 92 -63 92 -63 92 -20 c 0,3,4
 92 -13 92 -13 88 3 c 1,5,6
 74 1 74 1 69 1 c 0,7,8
 50 1 50 1 39 26.5 c 128,-1,9
 28 52 28 52 28 76 c 0,10,11
 28 98 28 98 37 111.5 c 128,-1,12
 46 125 46 125 63 125 c 0,13,14
 101 125 101 125 124 81 c 128,-1,15
 147 37 147 37 147 -7 c 0,16,17
 147 -54 147 -54 116 -85.5 c 128,-1,18
 85 -117 85 -117 22 -120 c 1,0,-1
EndSplineSet
EndChar

StartChar: hyphen
Encoding: 45 45 14
Width: 433
Flags: W
HStem: 275 91<266.415 399.119>
LayerCount: 2
Fore
SplineSet
31 298 m 1,0,-1
 20 343 l 1,1,-1
 353 366 l 1,2,3
 378 365 378 365 395.5 347.5 c 128,-1,4
 413 330 413 330 413 310 c 0,5,6
 413 297 413 297 403 287 c 128,-1,7
 393 277 393 277 373 275 c 1,8,-1
 31 298 l 1,0,-1
EndSplineSet
EndChar

StartChar: period
Encoding: 46 46 15
Width: 140
Flags: W
HStem: -1 126<37.0184 100.335>
VStem: 20 100<22.7207 105.7>
LayerCount: 2
Fore
SplineSet
56 125 m 0,0,1
 83 125 83 125 101.5 101.5 c 128,-1,2
 120 78 120 78 120 48 c 0,3,4
 120 26 120 26 109.5 12.5 c 128,-1,5
 99 -1 99 -1 81 -1 c 0,6,7
 53 -1 53 -1 36.5 22 c 128,-1,8
 20 45 20 45 20 76 c 0,9,10
 20 98 20 98 29.5 111.5 c 128,-1,11
 39 125 39 125 56 125 c 0,0,1
EndSplineSet
EndChar

StartChar: slash
Encoding: 47 47 16
Width: 459
Flags: W
VStem: 0 84<-95.2812 -21>
LayerCount: 2
Fore
SplineSet
415 846 m 1,0,-1
 460 829 l 1,1,2
 422 699 422 699 272.5 371.5 c 128,-1,3
 123 44 123 44 84 -87 c 1,4,5
 70 -104 70 -104 49 -104 c 0,6,7
 29 -104 29 -104 14.5 -88.5 c 128,-1,8
 0 -73 0 -73 0 -52 c 0,9,10
 0 -8 0 -8 91.5 180 c 128,-1,11
 183 368 183 368 288.5 575 c 128,-1,12
 394 782 394 782 415 846 c 1,0,-1
EndSplineSet
EndChar

StartChar: zero
Encoding: 48 48 17
Width: 518
Flags: W
HStem: -34 81<199.7 314.632> 669 77<198.197 312.722>
VStem: 41 81<156.211 555.93> 401 76<179.028 527.053>
LayerCount: 2
Fore
SplineSet
41 333 m 1,0,1
 42 549 42 549 97 644.5 c 128,-1,2
 152 740 152 740 264 746 c 1,3,4
 313 746 313 746 351 719 c 128,-1,5
 389 692 389 692 411.5 650.5 c 128,-1,6
 434 609 434 609 449 551.5 c 128,-1,7
 464 494 464 494 469.5 442.5 c 128,-1,8
 475 391 475 391 477 333 c 1,9,10
 477 254 477 254 453.5 171.5 c 128,-1,11
 430 89 430 89 381.5 27.5 c 128,-1,12
 333 -34 333 -34 273 -34 c 0,13,14
 41 -34 41 -34 41 333 c 1,0,1
250 669 m 1,15,16
 226 664 226 664 207 653 c 128,-1,17
 188 642 188 642 175.5 628 c 128,-1,18
 163 614 163 614 154 591 c 128,-1,19
 145 568 145 568 140.5 548.5 c 128,-1,20
 136 529 136 529 132.5 498 c 128,-1,21
 129 467 129 467 128 444.5 c 128,-1,22
 127 422 127 422 125.5 385.5 c 128,-1,23
 124 349 124 349 122 326 c 1,24,25
 122 280 122 280 127 238.5 c 128,-1,26
 132 197 132 197 145.5 152 c 128,-1,27
 159 107 159 107 188 79 c 128,-1,28
 217 51 217 51 258 47 c 1,29,30
 320 47 320 47 360.5 133 c 128,-1,31
 401 219 401 219 401 307 c 0,32,33
 401 665 401 665 250 669 c 1,15,16
EndSplineSet
EndChar

StartChar: one
Encoding: 49 49 18
Width: 361
Flags: W
HStem: 1 75<46.7528 161 248 344.402> 1 53<46 160.371 248.287 345>
VStem: 164 81<72.9023 581.28> 165 74<343.609 667>
LayerCount: 2
Fore
SplineSet
46 3 m 1,0,-1
 46 56 l 1,1,2
 70 59 70 59 105.5 66 c 128,-1,3
 141 73 141 73 161 76 c 1,4,5
 164 148 164 148 164 221 c 0,6,7
 164 267 164 267 163 359.5 c 128,-1,8
 162 452 162 452 162 499 c 0,9,10
 162 610 162 610 165 667 c 1,11,12
 74 615 74 615 32 583 c 1,13,-1
 0 616 l 1,14,15
 16 629 16 629 55 661.5 c 128,-1,16
 94 694 94 694 125 720.5 c 128,-1,17
 156 747 156 747 173 764 c 1,18,19
 189 762 189 762 206 761.5 c 128,-1,20
 223 761 223 761 239 759 c 1,21,22
 245 643 245 643 245 334 c 0,23,24
 245 150 245 150 248 70 c 1,25,26
 257 69 257 69 291.5 62.5 c 128,-1,27
 326 56 326 56 345 54 c 1,28,-1
 361 1 l 1,29,30
 311 1 311 1 274 1 c 128,-1,31
 237 1 237 1 175.5 1 c 128,-1,32
 114 1 114 1 79.5 1.5 c 128,-1,33
 45 2 45 2 46 3 c 1,0,-1
EndSplineSet
EndChar

StartChar: two
Encoding: 50 50 19
Width: 405
Flags: W
HStem: 0.5 67.5<98 375> 680 53<157.458 295.967>
VStem: 28 45<528 581.804> 334 65<458.808 643.652>
LayerCount: 2
Fore
SplineSet
375 69 m 1,0,-1
 406 3 l 1,1,2
 331 1 331 1 171 0.5 c 128,-1,3
 11 0 11 0 1 0 c 1,4,5
 1 8 1 8 0.5 28 c 128,-1,6
 0 48 0 48 0 60 c 1,7,8
 19 93 19 93 63 139.5 c 128,-1,9
 107 186 107 186 151 230.5 c 128,-1,10
 195 275 195 275 237.5 328 c 128,-1,11
 280 381 280 381 307 446.5 c 128,-1,12
 334 512 334 512 334 581 c 0,13,14
 334 625 334 625 303 652.5 c 128,-1,15
 272 680 272 680 228 680 c 0,16,17
 177 680 177 680 133.5 638.5 c 128,-1,18
 90 597 90 597 73 512 c 1,19,-1
 28 528 l 1,20,21
 32 625 32 625 91.5 679 c 128,-1,22
 151 733 151 733 229 733 c 0,23,24
 299 733 299 733 349 689 c 128,-1,25
 399 645 399 645 399 566 c 0,26,27
 399 501 399 501 379 439.5 c 128,-1,28
 359 378 359 378 321 324 c 128,-1,29
 283 270 283 270 250 231.5 c 128,-1,30
 217 193 217 193 167.5 142.5 c 128,-1,31
 118 92 118 92 98 70 c 1,32,33
 132 68 132 68 156 68 c 0,34,35
 181 68 181 68 234 69.5 c 128,-1,36
 287 71 287 71 313 71 c 0,37,38
 337 71 337 71 375 69 c 1,0,-1
EndSplineSet
EndChar

StartChar: three
Encoding: 51 51 20
Width: 413
Flags: W
HStem: -7 60<48.3478 241.607> 387 47<63.2837 193.845> 671 45<45.4514 86> 685 65<72.8069 255.719>
VStem: 295 78<111.161 287.42> 297 68<495.797 642.856>
LayerCount: 2
Fore
SplineSet
0 32 m 1,0,-1
 8 78 l 1,1,2
 16 77 16 77 53.5 69 c 128,-1,3
 91 61 91 61 120.5 57 c 128,-1,4
 150 53 150 53 173 53 c 0,5,6
 230 53 230 53 262.5 96 c 128,-1,7
 295 139 295 139 295 196 c 0,8,9
 295 274 295 274 241.5 330.5 c 128,-1,10
 188 387 188 387 87 387 c 0,11,12
 71 387 71 387 63 386 c 1,13,-1
 63 435 l 1,14,15
 72 434 72 434 91 434 c 0,16,17
 182 434 182 434 239.5 466 c 128,-1,18
 297 498 297 498 297 568 c 0,19,20
 297 621 297 621 267 653 c 128,-1,21
 237 685 237 685 189 685 c 0,22,23
 167 685 167 685 141.5 682.5 c 128,-1,24
 116 680 116 680 86 676 c 128,-1,25
 56 672 56 672 48 671 c 1,26,-1
 32 716 l 1,27,28
 44 719 44 719 71 727 c 128,-1,29
 98 735 98 735 113.5 739 c 128,-1,30
 129 743 129 743 153 746.5 c 128,-1,31
 177 750 177 750 198 750 c 0,32,33
 275 750 275 750 320 696.5 c 128,-1,34
 365 643 365 643 365 550 c 0,35,36
 365 491 365 491 336.5 453 c 128,-1,37
 308 415 308 415 250 406 c 1,38,39
 310 382 310 382 341.5 327.5 c 128,-1,40
 373 273 373 273 373 199 c 0,41,42
 373 114 373 114 333 53.5 c 128,-1,43
 293 -7 293 -7 212 -7 c 0,44,45
 95 -7 95 -7 0 32 c 1,0,-1
EndSplineSet
EndChar

StartChar: four
Encoding: 52 52 21
Width: 440
Flags: W
HStem: -24 21G<313 334.5> 236 68<74 273> 246 45<346.695 410>
VStem: 266 90<-9.92285 230.666> 273 73<28.0034 231 298 540.397> 281 69.5<299.795 633.419>
LayerCount: 2
Fore
SplineSet
410 291 m 1,0,-1
 420 246 l 1,1,2
 368 240 368 240 346 238 c 1,3,4
 348 192 348 192 351.5 122 c 128,-1,5
 355 52 355 52 356 7 c 1,6,7
 347 -24 347 -24 322 -24 c 0,8,9
 304 -24 304 -24 287 -9 c 128,-1,10
 270 6 270 6 266 27 c 1,11,12
 267 58 267 58 273 231 c 1,13,14
 241 229 241 229 222 229 c 0,15,16
 192 229 192 229 129.5 232.5 c 128,-1,17
 67 236 67 236 38 236 c 0,18,19
 24 236 24 236 0 234 c 1,20,21
 2 258 2 258 2 267 c 0,22,23
 2 273 2 273 1.5 286.5 c 128,-1,24
 1 300 1 300 1 307 c 1,25,26
 168 588 168 588 271 724 c 1,27,28
 302 724 302 724 356 711 c 1,29,30
 354 664 354 664 350.5 507.5 c 128,-1,31
 347 351 347 351 344 296 c 1,32,33
 388 294 388 294 410 291 c 1,0,-1
74 304 m 1,34,-1
 275 298 l 1,35,36
 278 355 278 355 281 467 c 128,-1,37
 284 579 284 579 286 636 c 1,38,39
 245 594 245 594 167.5 460.5 c 128,-1,40
 90 327 90 327 74 304 c 1,34,-1
EndSplineSet
EndChar

StartChar: five
Encoding: 53 53 22
Width: 437
Flags: W
HStem: -23 69<104.613 259.945> 342 73<137.622 269.619> 656 61<176.829 395.52>
VStem: 329 88<120.939 281.444>
LayerCount: 2
Fore
SplineSet
397 710 m 1,0,-1
 408 665 l 1,1,2
 359 656 359 656 296 656 c 0,3,4
 202 656 202 656 176 653 c 1,5,6
 161 538 161 538 137 409 c 1,7,8
 166 415 166 415 193 415 c 0,9,10
 281 415 281 415 349 345.5 c 128,-1,11
 417 276 417 276 417 185 c 0,12,13
 417 99 417 99 350 38 c 128,-1,14
 283 -23 283 -23 185 -23 c 0,15,16
 90 -23 90 -23 0 40 c 1,17,18
 1 41 1 41 15.5 72 c 128,-1,19
 30 103 30 103 44 103 c 0,20,21
 51 103 51 103 57 98 c 0,22,23
 126 46 126 46 187 46 c 0,24,25
 249 46 249 46 289 95 c 128,-1,26
 329 144 329 144 329 205 c 0,27,28
 329 262 329 262 291.5 302 c 128,-1,29
 254 342 254 342 182 342 c 0,30,31
 156 342 156 342 133 338 c 1,32,33
 113 349 113 349 89 360 c 128,-1,34
 65 371 65 371 49 379 c 1,35,36
 72 469 72 469 87 559 c 128,-1,37
 102 649 102 649 127 720 c 1,38,39
 162 717 162 717 256 717 c 128,-1,40
 350 717 350 717 397 710 c 1,0,-1
EndSplineSet
EndChar

StartChar: six
Encoding: 54 54 23
Width: 458
Flags: W
HStem: -26 66<162.121 291.488> 370 67<142.262 267.586>
VStem: 41 72<96.4386 339.618> 342 76<88.8496 278.596>
LayerCount: 2
Fore
SplineSet
396 724 m 1,0,-1
 413 679 l 1,1,2
 179 579 179 579 135 411 c 1,3,4
 175 437 175 437 216 437 c 0,5,6
 302 437 302 437 360 359.5 c 128,-1,7
 418 282 418 282 418 162 c 0,8,9
 418 76 418 76 365.5 25 c 128,-1,10
 313 -26 313 -26 232 -26 c 0,11,12
 156 -26 156 -26 98.5 29.5 c 128,-1,13
 41 85 41 85 41 177 c 0,14,15
 41 235 41 235 43.5 278 c 128,-1,16
 46 321 46 321 54.5 372.5 c 128,-1,17
 63 424 63 424 78 462 c 128,-1,18
 93 500 93 500 119.5 541.5 c 128,-1,19
 146 583 146 583 183 614.5 c 128,-1,20
 220 646 220 646 273.5 674.5 c 128,-1,21
 327 703 327 703 396 724 c 1,0,-1
113 206 m 0,22,23
 113 123 113 123 144 81.5 c 128,-1,24
 175 40 175 40 221 40 c 0,25,26
 270 40 270 40 306 73 c 128,-1,27
 342 106 342 106 342 164 c 0,28,29
 342 252 342 252 302 311 c 128,-1,30
 262 370 262 370 205 370 c 0,31,32
 179 370 179 370 161 360.5 c 128,-1,33
 143 351 143 351 134 339 c 128,-1,34
 125 327 125 327 120 301.5 c 128,-1,35
 115 276 115 276 114 258.5 c 128,-1,36
 113 241 113 241 113 206 c 0,22,23
EndSplineSet
EndChar

StartChar: seven
Encoding: 55 55 24
Width: 398
Flags: W
HStem: -8 21G<56.1739 132.03> 677 67.5<79.0288 316>
LayerCount: 2
Fore
SplineSet
124 -8 m 1,0,-1
 46 15 l 1,1,-1
 316 677 l 1,2,3
 83 684 83 684 0 691 c 1,4,-1
 -10 736 l 1,5,6
 60 744 60 744 202 744.5 c 128,-1,7
 344 745 344 745 398 749 c 1,8,-1
 393 662 l 1,9,-1
 124 -8 l 1,0,-1
EndSplineSet
EndChar

StartChar: eight
Encoding: 56 56 25
Width: 506
Flags: W
HStem: -13 72<189.276 331.502> 354 85<190.77 324.08>
VStem: 41 80<129.895 286.611 498.088 633.725> 381 77<488.05 633.51> 392 74<124.131 285.199>
LayerCount: 2
Fore
SplineSet
466 201 m 0,0,1
 466 92 466 92 413 39.5 c 128,-1,2
 360 -13 360 -13 251 -13 c 0,3,4
 41 -13 41 -13 41 205 c 0,5,6
 41 283 41 283 73 342 c 128,-1,7
 105 401 105 401 161 410 c 1,8,9
 104 411 104 411 75 452 c 128,-1,10
 46 493 46 493 46 554 c 0,11,12
 46 648 46 648 97.5 702 c 128,-1,13
 149 756 149 756 244 756 c 0,14,15
 344 756 344 756 401 706 c 128,-1,16
 458 656 458 656 458 552 c 0,17,18
 458 491 458 491 429 450 c 128,-1,19
 400 409 400 409 343 408 c 1,20,21
 401 399 401 399 433.5 339 c 128,-1,22
 466 279 466 279 466 201 c 0,0,1
262 59 m 0,23,24
 318 59 318 59 355 102.5 c 128,-1,25
 392 146 392 146 392 206 c 128,-1,26
 392 266 392 266 351 309.5 c 128,-1,27
 310 353 310 353 241 354 c 1,28,29
 181 336 181 336 151 297.5 c 128,-1,30
 121 259 121 259 121 211 c 0,31,32
 121 151 121 151 161 105 c 128,-1,33
 201 59 201 59 262 59 c 0,23,24
262 701 m 1,34,35
 195 696 195 696 160 657 c 128,-1,36
 125 618 125 618 125 567 c 0,37,38
 125 515 125 515 158.5 477 c 128,-1,39
 192 439 192 439 248 439 c 0,40,41
 313 440 313 440 347 474.5 c 128,-1,42
 381 509 381 509 381 558 c 128,-1,43
 381 607 381 607 348.5 649 c 128,-1,44
 316 691 316 691 262 701 c 1,34,35
EndSplineSet
EndChar

StartChar: nine
Encoding: 57 57 26
Width: 448
Flags: W
HStem: -19 21G<44.8889 86.5> 267 68<180.515 305.277> 665 65<155.465 286.381>
VStem: 31 75<426.013 616.095> 336 72<364.607 607.561>
LayerCount: 2
Fore
SplineSet
52 -19 m 1,0,-1
 36 26 l 1,1,2
 269 125 269 125 313 294 c 1,3,4
 271 267 271 267 232 267 c 0,5,6
 146 267 146 267 88.5 344.5 c 128,-1,7
 31 422 31 422 31 543 c 0,8,9
 31 629 31 629 83 679.5 c 128,-1,10
 135 730 135 730 216 730 c 0,11,12
 293 730 293 730 350.5 674.5 c 128,-1,13
 408 619 408 619 408 527 c 0,14,15
 408 469 408 469 405.5 426 c 128,-1,16
 403 383 403 383 394.5 332 c 128,-1,17
 386 281 386 281 371 242.5 c 128,-1,18
 356 204 356 204 329.5 162.5 c 128,-1,19
 303 121 303 121 266 90 c 128,-1,20
 229 59 229 59 175 30.5 c 128,-1,21
 121 2 121 2 52 -19 c 1,0,-1
336 499 m 0,22,23
 336 582 336 582 304.5 623.5 c 128,-1,24
 273 665 273 665 227 665 c 0,25,26
 178 665 178 665 142 632 c 128,-1,27
 106 599 106 599 106 541 c 0,28,29
 106 453 106 453 146 394 c 128,-1,30
 186 335 186 335 244 335 c 0,31,32
 270 335 270 335 288 344.5 c 128,-1,33
 306 354 306 354 315 366 c 128,-1,34
 324 378 324 378 329 403.5 c 128,-1,35
 334 429 334 429 335 446.5 c 128,-1,36
 336 464 336 464 336 499 c 0,22,23
EndSplineSet
EndChar

StartChar: colon
Encoding: 58 58 27
Width: 140
Flags: W
HStem: -4 126<37.6797 100.335> 381 126<37.0184 100.335>
VStem: 20 100<12.5548 102.7 404.721 487.7>
LayerCount: 2
Fore
SplineSet
56 122 m 0,0,1
 83 122 83 122 101.5 98.5 c 128,-1,2
 120 75 120 75 120 45 c 0,3,4
 120 23 120 23 109.5 9.5 c 128,-1,5
 99 -4 99 -4 81 -4 c 0,6,7
 53 -4 53 -4 36.5 20 c 128,-1,8
 20 44 20 44 20 73 c 0,9,10
 20 95 20 95 29.5 108.5 c 128,-1,11
 39 122 39 122 56 122 c 0,0,1
56 507 m 0,12,13
 83 507 83 507 101.5 483.5 c 128,-1,14
 120 460 120 460 120 430 c 0,15,16
 120 408 120 408 109.5 394.5 c 128,-1,17
 99 381 99 381 81 381 c 0,18,19
 53 381 53 381 36.5 404 c 128,-1,20
 20 427 20 427 20 458 c 0,21,22
 20 480 20 480 29.5 493.5 c 128,-1,23
 39 507 39 507 56 507 c 0,12,13
EndSplineSet
EndChar

StartChar: semicolon
Encoding: 59 59 28
Width: 167
Flags: W
HStem: -123 32<22 56.5859> 0 122<40.3193 91.3994> 381 126<44.5029 107.335>
VStem: 28 99<12 104.535 404.721 487.7> 92 55<-66.5484 0.250977>
LayerCount: 2
Fore
SplineSet
63 507 m 0,0,1
 90 507 90 507 108.5 483.5 c 128,-1,2
 127 460 127 460 127 430 c 0,3,4
 127 408 127 408 116.5 394.5 c 128,-1,5
 106 381 106 381 88 381 c 0,6,7
 60 381 60 381 44 404 c 128,-1,8
 28 427 28 427 28 458 c 0,9,10
 28 480 28 480 37 493.5 c 128,-1,11
 46 507 46 507 63 507 c 0,0,1
22 -123 m 1,12,-1
 20 -91 l 1,13,14
 57 -79 57 -79 74.5 -63 c 128,-1,15
 92 -47 92 -47 92 -24 c 0,16,17
 92 -16 92 -16 88 0 c 1,18,19
 28 0 28 0 28 73 c 0,20,21
 28 95 28 95 37 108.5 c 128,-1,22
 46 122 46 122 63 122 c 0,23,24
 101 122 101 122 124 78 c 128,-1,25
 147 34 147 34 147 -10 c 0,26,27
 147 -57 147 -57 116 -88.5 c 128,-1,28
 85 -120 85 -120 22 -123 c 1,12,-1
EndSplineSet
EndChar

StartChar: less
Encoding: 60 60 29
Width: 607
Flags: W
HStem: -2 21G<529.5 600.062>
LayerCount: 2
Fore
SplineSet
598 62 m 1,0,-1
 601 -2 l 1,1,2
 458 45 458 45 392.5 68.5 c 128,-1,3
 327 92 327 92 215.5 141.5 c 128,-1,4
 104 191 104 191 0 252 c 1,5,6
 0 292 0 292 8 328 c 1,7,8
 126 363 126 363 307 443 c 128,-1,9
 488 523 488 523 592 556 c 1,10,-1
 607 499 l 1,11,12
 552 476 552 476 376.5 390.5 c 128,-1,13
 201 305 201 305 100 273 c 1,14,15
 156 230 156 230 349 153.5 c 128,-1,16
 542 77 542 77 598 62 c 1,0,-1
EndSplineSet
EndChar

StartChar: equal
Encoding: 61 61 30
Width: 609
Flags: W
HStem: 177 90<274.939 575.602> 442 90<293.304 575.602>
LayerCount: 2
Fore
SplineSet
46 468 m 1,0,-1
 36 513 l 1,1,2
 130 520 130 520 302 524.5 c 128,-1,3
 474 529 474 529 529 532 c 1,4,5
 554 531 554 531 571.5 514 c 128,-1,6
 589 497 589 497 589 477 c 0,7,8
 589 464 589 464 579 454 c 128,-1,9
 569 444 569 444 549 442 c 1,10,11
 114 463 114 463 46 468 c 1,0,-1
31 195 m 1,12,-1
 20 240 l 1,13,14
 120 248 120 248 529 267 c 1,15,16
 554 266 554 266 571.5 249 c 128,-1,17
 589 232 589 232 589 212 c 0,18,19
 589 199 589 199 579 189 c 128,-1,20
 569 179 569 179 549 177 c 1,21,22
 488 180 488 180 308.5 184 c 128,-1,23
 129 188 129 188 31 195 c 1,12,-1
EndSplineSet
EndChar

StartChar: greater
Encoding: 62 62 31
Width: 607
Flags: W
HStem: -2 21G<6.9375 77.5>
LayerCount: 2
Fore
SplineSet
6 -2 m 1,0,-1
 9 62 l 1,1,2
 65 77 65 77 258 153.5 c 128,-1,3
 451 230 451 230 507 273 c 1,4,5
 406 305 406 305 230.5 390.5 c 128,-1,6
 55 476 55 476 0 499 c 1,7,-1
 15 556 l 1,8,9
 119 523 119 523 300 443 c 128,-1,10
 481 363 481 363 599 328 c 1,11,12
 607 292 607 292 607 252 c 1,13,14
 503 191 503 191 391.5 141.5 c 128,-1,15
 280 92 280 92 214.5 68.5 c 128,-1,16
 149 45 149 45 6 -2 c 1,0,-1
EndSplineSet
EndChar

StartChar: at
Encoding: 64 64 32
Width: 802
Flags: W
HStem: -48 92<278.586 552.788> 166 53<439.325 557.352> 175 52<280.582 368.378> 432 68<262.964 350.929> 698 81<292.121 505.495>
VStem: 20 69<214.587 473.106> 187 51<274.226 406.537> 378 47<248.917 402.492> 651 58<336.486 544.588>
LayerCount: 2
Fore
SplineSet
314 500 m 0,0,1
 370 500 370 500 397.5 459.5 c 128,-1,2
 425 419 425 419 425 358 c 0,3,4
 425 334 425 334 422 298 c 2,5,-1
 419 262 l 1,6,7
 454 219 454 219 495 219 c 0,8,9
 553 219 553 219 602 290 c 128,-1,10
 651 361 651 361 651 431 c 0,11,12
 651 542 651 542 581 620 c 128,-1,13
 511 698 511 698 395 698 c 0,14,15
 275 698 275 698 182 594 c 128,-1,16
 89 490 89 490 89 333 c 0,17,18
 89 198 89 198 179.5 121 c 128,-1,19
 270 44 270 44 406 44 c 0,20,21
 559 44 559 44 701 137 c 0,22,23
 715 145 715 145 730 145 c 0,24,25
 751 145 751 145 766.5 132 c 128,-1,26
 782 119 782 119 782 99 c 0,27,28
 782 60 782 60 700 24 c 128,-1,29
 618 -12 618 -12 536 -30 c 128,-1,30
 454 -48 454 -48 423 -48 c 0,31,32
 252 -48 252 -48 136 58.5 c 128,-1,33
 20 165 20 165 20 352 c 0,34,35
 20 531 20 531 127 655 c 128,-1,36
 234 779 234 779 389 779 c 0,37,38
 445 779 445 779 499 760 c 128,-1,39
 553 741 553 741 600 704 c 128,-1,40
 647 667 647 667 676.5 603.5 c 128,-1,41
 706 540 706 540 709 459 c 0,42,43
 711 379 711 379 692 319 c 128,-1,44
 673 259 673 259 640.5 227.5 c 128,-1,45
 608 196 608 196 573.5 181 c 128,-1,46
 539 166 539 166 504 166 c 0,47,48
 443 166 443 166 395 204 c 1,49,50
 364 175 364 175 324 175 c 0,51,52
 268 175 268 175 227.5 225.5 c 128,-1,53
 187 276 187 276 187 334 c 0,54,55
 187 397 187 397 224.5 448.5 c 128,-1,56
 262 500 262 500 314 500 c 0,0,1
328 227 m 0,57,58
 378 227 378 227 378 297 c 0,59,60
 378 349 378 349 361.5 390.5 c 128,-1,61
 345 432 345 432 308 432 c 0,62,63
 279 432 279 432 258.5 404 c 128,-1,64
 238 376 238 376 238 345 c 0,65,66
 238 302 238 302 266.5 264.5 c 128,-1,67
 295 227 295 227 328 227 c 0,57,58
EndSplineSet
EndChar

StartChar: A
Encoding: 65 65 33
Width: 538
Flags: W
HStem: -26 20G<40.5 60.5 497.5 511.5> 221 48<157 328.625>
VStem: 464 75<-12.0433 85.479>
LayerCount: 2
Fore
SplineSet
233 725 m 1,0,-1
 309 720 l 1,1,2
 337 596 337 596 424 369.5 c 128,-1,3
 511 143 511 143 539 31 c 1,4,5
 539 2 539 2 529 -12.5 c 128,-1,6
 519 -27 519 -27 504 -27 c 0,7,8
 491 -27 491 -27 479.5 -16.5 c 128,-1,9
 468 -6 468 -6 464 13 c 0,10,11
 455 57 455 57 406 189 c 1,12,13
 200 215 200 215 147 221 c 1,14,15
 134 185 134 185 115 104 c 128,-1,16
 96 23 96 23 85 -8 c 1,17,18
 70 -26 70 -26 51 -26 c 0,19,20
 30 -26 30 -26 15 -7.5 c 128,-1,21
 0 11 0 11 0 38 c 1,22,23
 32 155 32 155 116 382 c 128,-1,24
 200 609 200 609 233 725 c 1,0,-1
268 624 m 1,25,26
 248 503 248 503 157 269 c 1,27,-1
 269 269 l 2,28,29
 345 269 345 269 396 264 c 1,30,31
 293 485 293 485 268 624 c 1,25,26
EndSplineSet
EndChar

StartChar: B
Encoding: 66 66 34
Width: 497
Flags: W
HStem: -4 69<133.256 277.835> 382 69<123.85 263.016> 708 59<118.843 262.21>
VStem: 41 80<80.3481 379.292 450 702.832> 316 80<504.445 653.118> 376 81<157.463 309.854>
LayerCount: 2
Fore
SplineSet
41 26 m 1,0,-1
 46 730 l 1,1,2
 57 767 57 767 132 767 c 0,3,4
 201 767 201 767 259 748.5 c 128,-1,5
 317 730 317 730 356.5 686.5 c 128,-1,6
 396 643 396 643 396 582 c 0,7,8
 396 534 396 534 372.5 489 c 128,-1,9
 349 444 349 444 315 431 c 1,10,11
 379 422 379 422 418 354 c 128,-1,12
 457 286 457 286 457 193 c 0,13,14
 457 130 457 130 407 83.5 c 128,-1,15
 357 37 357 37 290.5 16.5 c 128,-1,16
 224 -4 224 -4 156 -4 c 0,17,18
 73 -4 73 -4 41 26 c 1,0,-1
123 376 m 1,19,20
 123 307 123 307 121 99 c 1,21,22
 151 65 151 65 198 65 c 0,23,24
 260 65 260 65 318 116.5 c 128,-1,25
 376 168 376 168 376 227 c 0,26,27
 376 300 376 300 327 341 c 128,-1,28
 278 382 278 382 201 382 c 0,29,30
 150 382 150 382 123 376 c 1,19,20
121 450 m 1,31,-1
 183 451 l 1,32,33
 247 451 247 451 281.5 488.5 c 128,-1,34
 316 526 316 526 316 578 c 0,35,36
 316 631 316 631 281 669.5 c 128,-1,37
 246 708 246 708 184 708 c 0,38,39
 156 708 156 708 118 696 c 1,40,41
 120 635 120 635 120.5 545 c 128,-1,42
 121 455 121 455 121 450 c 1,31,-1
EndSplineSet
EndChar

StartChar: C
Encoding: 67 67 35
Width: 540
Flags: W
HStem: -46 84<235.323 397.515> 672 58<221.44 398.57>
VStem: 41 79<199.668 525.889>
LayerCount: 2
Fore
SplineSet
499 660 m 1,0,-1
 459 614 l 1,1,2
 381 672 381 672 305 672 c 0,3,4
 255 672 255 672 219 648 c 128,-1,5
 183 624 183 624 164.5 590 c 128,-1,6
 146 556 146 556 135.5 504 c 128,-1,7
 125 452 125 452 122.5 414 c 128,-1,8
 120 376 120 376 120 325 c 0,9,10
 120 275 120 275 138.5 211.5 c 128,-1,11
 157 148 157 148 201 93 c 128,-1,12
 245 38 245 38 303 38 c 0,13,14
 366 38 366 38 496 104 c 1,15,16
 509 85 509 85 530 41 c 1,17,18
 404 -46 404 -46 305 -46 c 0,19,20
 241 -46 241 -46 188 -7 c 128,-1,21
 135 32 135 32 104.5 92 c 128,-1,22
 74 152 74 152 57.5 217.5 c 128,-1,23
 41 283 41 283 41 342 c 0,24,25
 41 407 41 407 51 468.5 c 128,-1,26
 61 530 61 530 85 592 c 128,-1,27
 109 654 109 654 157.5 692 c 128,-1,28
 206 730 206 730 273 730 c 0,29,30
 331 730 331 730 393 710 c 128,-1,31
 455 690 455 690 499 660 c 1,0,-1
EndSplineSet
EndChar

StartChar: D
Encoding: 68 68 36
Width: 548
Flags: W
HStem: 0 67<116.612 269.702> 669 59<110.375 213.337>
VStem: 41 75<67 668.999> 440 68<204.526 417.138>
LayerCount: 2
Fore
SplineSet
41 6 m 1,0,-1
 44 728 l 1,1,2
 266 726 266 726 387 614.5 c 128,-1,3
 508 503 508 503 508 288 c 0,4,5
 508 219 508 219 472 162 c 128,-1,6
 436 105 436 105 379.5 71 c 128,-1,7
 323 37 323 37 257.5 18.5 c 128,-1,8
 192 0 192 0 128 0 c 0,9,10
 88 0 88 0 41 6 c 1,0,-1
116 67 m 1,11,-1
 133 67 l 2,12,13
 190 67 190 67 243 80.5 c 128,-1,14
 296 94 296 94 341 121 c 128,-1,15
 386 148 386 148 413 195.5 c 128,-1,16
 440 243 440 243 440 305 c 0,17,18
 440 389 440 389 389.5 475.5 c 128,-1,19
 339 562 339 562 267.5 615.5 c 128,-1,20
 196 669 196 669 135 669 c 0,21,22
 122 669 122 669 110 666 c 1,23,24
 110 606 110 606 116 67 c 1,11,-1
EndSplineSet
EndChar

StartChar: E
Encoding: 69 69 37
Width: 468
Flags: W
HStem: -7 82<135.166 361.35> -7 52<220.017 422> 340 87<137 370.983> 638 85<127 381.5>
LayerCount: 2
Fore
SplineSet
422 45 m 1,0,-1
 432 0 l 1,1,2
 393 0 393 0 290.5 -3.5 c 128,-1,3
 188 -7 188 -7 142 -7 c 0,4,5
 68 -7 68 -7 41 0 c 1,6,7
 51 110 51 110 53 368 c 128,-1,8
 55 626 55 626 66 728 c 1,9,10
 100 725 100 725 246.5 723 c 128,-1,11
 393 721 393 721 438 714 c 1,12,-1
 449 669 l 1,13,14
 404 661 404 661 269 650 c 128,-1,15
 134 639 134 639 127 638 c 1,16,17
 128 615 128 615 131.5 544 c 128,-1,18
 135 473 135 473 136 427 c 1,19,20
 170 423 170 423 260 415.5 c 128,-1,21
 350 408 350 408 374 406 c 1,22,-1
 384 360 l 1,23,24
 173 341 173 341 137 340 c 1,25,26
 137 296 137 296 135.5 206.5 c 128,-1,27
 134 117 134 117 134 75 c 1,28,29
 363 54 363 54 422 45 c 1,0,-1
EndSplineSet
EndChar

StartChar: F
Encoding: 70 70 38
Width: 458
Flags: W
HStem: -6 21G<41 132> 340 87<137 370.983> 638 85<127 381.5>
VStem: 41 91<-0.472615 255.192>
LayerCount: 2
Fore
SplineSet
132 -6 m 1,0,-1
 41 0 l 1,1,2
 51 110 51 110 53 368 c 128,-1,3
 55 626 55 626 66 728 c 1,4,5
 100 725 100 725 246.5 723 c 128,-1,6
 393 721 393 721 438 714 c 1,7,-1
 449 669 l 1,8,9
 404 661 404 661 269 650 c 128,-1,10
 134 639 134 639 127 638 c 1,11,12
 128 615 128 615 131.5 544 c 128,-1,13
 135 473 135 473 136 427 c 1,14,15
 170 423 170 423 260 415.5 c 128,-1,16
 350 408 350 408 374 406 c 1,17,-1
 384 360 l 1,18,19
 173 341 173 341 137 340 c 1,20,-1
 137 323 l 2,21,22
 137 285 137 285 134.5 165.5 c 128,-1,23
 132 46 132 46 132 9 c 2,24,-1
 132 -6 l 1,0,-1
EndSplineSet
EndChar

StartChar: G
Encoding: 71 71 39
Width: 584
Flags: W
HStem: -36 84<213.558 372.685> 230 45<368 406.628> 672 58<221.44 398.57>
VStem: 41 79<176.625 525.889> 465 79<-23 57 121.547 212>
LayerCount: 2
Fore
SplineSet
368 230 m 1,0,-1
 357 275 l 1,1,2
 377 278 377 278 451 284.5 c 128,-1,3
 525 291 525 291 544 295 c 1,4,-1
 544 -23 l 1,5,-1
 466 -39 l 1,6,7
 465 -29 465 -29 465 8.5 c 128,-1,8
 465 46 465 46 464 57 c 1,9,10
 464 55 464 55 457 45.5 c 128,-1,11
 450 36 450 36 435 22 c 128,-1,12
 420 8 420 8 400 -5 c 128,-1,13
 380 -18 380 -18 349 -27 c 128,-1,14
 318 -36 318 -36 284 -36 c 0,15,16
 41 -36 41 -36 41 342 c 0,17,18
 41 407 41 407 51 468.5 c 128,-1,19
 61 530 61 530 85 592 c 128,-1,20
 109 654 109 654 157.5 692 c 128,-1,21
 206 730 206 730 273 730 c 0,22,23
 331 730 331 730 393 710 c 128,-1,24
 455 690 455 690 499 660 c 1,25,-1
 459 614 l 1,26,27
 381 672 381 672 305 672 c 0,28,29
 255 672 255 672 219 648 c 128,-1,30
 183 624 183 624 164.5 590 c 128,-1,31
 146 556 146 556 135.5 504 c 128,-1,32
 125 452 125 452 122.5 414 c 128,-1,33
 120 376 120 376 120 325 c 0,34,35
 120 203 120 203 165 125.5 c 128,-1,36
 210 48 210 48 282 48 c 0,37,38
 313 48 313 48 342.5 58 c 128,-1,39
 372 68 372 68 393 82 c 128,-1,40
 414 96 414 96 431 111 c 128,-1,41
 448 126 448 126 456.5 136 c 128,-1,42
 465 146 465 146 465 148 c 2,43,-1
 465 212 l 1,44,-1
 368 230 l 1,0,-1
EndSplineSet
EndChar

StartChar: H
Encoding: 72 72 40
Width: 480
Flags: W
HStem: -23 21G<87 109 395 417> 333 60<117 231.519> 340.5 67<267.402 348.018>
VStem: 41 90<-9.37329 161.5> 46.5 70.5<82.908 334 393 600.816> 56 46<517.493 721> 349 90<-9.37329 265.357> 349 58<505.405 719> 350 79.5<92.5859 345 414.002 586.666>
LayerCount: 2
Fore
SplineSet
349 719 m 1,0,-1
 407 731 l 1,1,2
 425 590 425 590 429.5 339.5 c 128,-1,3
 434 89 434 89 439 8 c 1,4,5
 430 -23 430 -23 404 -23 c 0,6,7
 386 -23 386 -23 369.5 -8 c 128,-1,8
 353 7 353 7 349 28 c 1,9,10
 350 64 350 64 350 148 c 2,11,-1
 350 345 l 1,12,13
 328 344 328 344 288.5 340.5 c 128,-1,14
 249 337 249 337 216.5 335 c 128,-1,15
 184 333 184 333 155 333 c 0,16,17
 129 333 129 333 117 334 c 1,18,19
 119 273 119 273 124 161.5 c 128,-1,20
 129 50 129 50 131 8 c 1,21,22
 122 -23 122 -23 96 -23 c 0,23,24
 78 -23 78 -23 61.5 -8 c 128,-1,25
 45 7 45 7 41 28 c 1,26,27
 44 114 44 114 46.5 362 c 128,-1,28
 49 610 49 610 56 731 c 1,29,-1
 101 721 l 1,30,31
 101 718 101 718 101.5 711.5 c 128,-1,32
 102 705 102 705 102 701 c 0,33,34
 115 455 115 455 117 393 c 1,35,36
 151 396 151 396 189.5 399.5 c 128,-1,37
 228 403 228 403 274.5 407.5 c 128,-1,38
 321 412 321 412 347 414 c 0,39,40
 348 414 348 414 348 424 c 128,-1,41
 348 434 348 434 348.5 505 c 128,-1,42
 349 576 349 576 349 719 c 1,0,-1
EndSplineSet
EndChar

StartChar: I
Encoding: 73 73 41
Width: 337
Flags: W
HStem: -3 49<24 135.295 200.507 315> -2 64<24.8579 136 200 315> 648 62<27 128 194 278> 659 50<194.256 278>
VStem: 136 64<62 646.253>
LayerCount: 2
Fore
SplineSet
24 -3 m 1,0,-1
 22 46 l 1,1,2
 114 61 114 61 136 62 c 1,3,4
 137 96 137 96 137 164 c 0,5,6
 137 254 137 254 133 423.5 c 128,-1,7
 129 593 129 593 128 648 c 1,8,-1
 27 653 l 1,9,-1
 20 711 l 1,10,11
 61 710 61 710 147 710 c 0,12,13
 235 710 235 710 278 709 c 1,14,-1
 281 659 l 1,15,16
 264 652 264 652 233 650.5 c 128,-1,17
 202 649 202 649 194 648 c 1,18,19
 197 620 197 620 197.5 507 c 128,-1,20
 198 394 198 394 198 257 c 128,-1,21
 198 120 198 120 200 62 c 1,22,23
 216 59 216 59 261 55 c 128,-1,24
 306 51 306 51 317 49 c 1,25,-1
 315 -3 l 1,26,27
 285 -2 285 -2 220 -2 c 0,28,29
 186 -2 186 -2 119 -2.5 c 128,-1,30
 52 -3 52 -3 24 -3 c 1,0,-1
EndSplineSet
EndChar

StartChar: J
Encoding: 74 74 42
Width: 389
Flags: W
HStem: -28 74<109.014 245.204>
VStem: 274 74<77.1174 722.156>
LayerCount: 2
Fore
SplineSet
0 98 m 1,0,-1
 51 124 l 1,1,2
 109 46 109 46 183 46 c 0,3,4
 239 46 239 46 256.5 86 c 128,-1,5
 274 126 274 126 274 217 c 0,6,7
 274 283 274 283 272 423 c 128,-1,8
 270 563 270 563 270 643 c 0,9,10
 270 697 270 697 271 725 c 1,11,12
 278 722 278 722 290 722 c 0,13,14
 294 722 294 722 301.5 722.5 c 128,-1,15
 309 723 309 723 314 723 c 0,16,17
 331 723 331 723 344 717 c 1,18,19
 342 649 342 649 342 613 c 0,20,21
 342 556 342 556 345 429.5 c 128,-1,22
 348 303 348 303 348 233 c 0,23,24
 348 188 348 188 347.5 165 c 128,-1,25
 347 142 347 142 345 110.5 c 128,-1,26
 343 79 343 79 338.5 64.5 c 128,-1,27
 334 50 334 50 325.5 30 c 128,-1,28
 317 10 317 10 305 2.5 c 128,-1,29
 293 -5 293 -5 274.5 -14 c 128,-1,30
 256 -23 256 -23 232 -25.5 c 128,-1,31
 208 -28 208 -28 176 -28 c 0,32,33
 53 -28 53 -28 0 98 c 1,0,-1
EndSplineSet
EndChar

StartChar: K
Encoding: 75 75 43
Width: 459
Flags: W
HStem: -7 21G<87 109 355.5 460> 718 20G<51.5 100>
VStem: 41 90<-2.82751 162.874> 55 45<558.341 728>
LayerCount: 2
Fore
SplineSet
460 -7 m 1,0,-1
 372 -7 l 1,1,2
 339 24 339 24 302 64 c 128,-1,3
 265 104 265 104 241.5 132 c 128,-1,4
 218 160 218 160 176.5 211.5 c 128,-1,5
 135 263 135 263 118 284 c 1,6,-1
 131 14 l 1,7,8
 122 -16 122 -16 96 -16 c 0,9,10
 78 -16 78 -16 61.5 -1.5 c 128,-1,11
 45 13 45 13 41 34 c 1,12,13
 44 114 44 114 46 366 c 128,-1,14
 48 618 48 618 55 738 c 1,15,-1
 100 728 l 1,16,17
 103 678 103 678 107 554.5 c 128,-1,18
 111 431 111 431 113 390 c 1,19,20
 130 411 130 411 176.5 467.5 c 128,-1,21
 223 524 223 524 240.5 544.5 c 128,-1,22
 258 565 258 565 291.5 604 c 128,-1,23
 325 643 325 643 353 672 c 128,-1,24
 381 701 381 701 413 731 c 1,25,-1
 443 682 l 1,26,27
 407 622 407 622 164 342 c 1,28,29
 199 305 199 305 308.5 170 c 128,-1,30
 418 35 418 35 460 -7 c 1,0,-1
EndSplineSet
EndChar

StartChar: L
Encoding: 76 76 44
Width: 486
Flags: W
HStem: -6 94<225.594 477.387> 2 79<137 397.094>
VStem: 41 96<81 347.484> 48 60<486.765 711>
LayerCount: 2
Fore
SplineSet
48 717 m 1,0,-1
 108 711 l 1,1,2
 123 558 123 558 137 81 c 1,3,4
 204 85 204 85 307 85 c 128,-1,5
 410 85 410 85 472 88 c 1,6,7
 478 71 478 71 480.5 40 c 128,-1,8
 483 9 483 9 486 -6 c 1,9,10
 355 2 355 2 152 2 c 2,11,-1
 41 2 l 1,12,13
 46 150 46 150 46.5 398 c 128,-1,14
 47 646 47 646 48 717 c 1,0,-1
EndSplineSet
EndChar

StartChar: M
Encoding: 77 77 45
Width: 736
Flags: W
HStem: 0 14G<0 123 632.5 736>
VStem: 0 62<5.30632 77.2002> 313 101<186 250.766>
LayerCount: 2
Fore
SplineSet
736 0 m 1,0,-1
 660 -7 l 1,1,2
 605 338 605 338 541 584 c 1,3,4
 508 506 508 506 468.5 364.5 c 128,-1,5
 429 223 429 223 414 181 c 1,6,7
 412 181 412 181 407.5 180.5 c 128,-1,8
 403 180 403 180 400 180 c 0,9,10
 386 180 386 180 354 183 c 128,-1,11
 322 186 322 186 313 186 c 1,12,13
 312 215 312 215 262 379.5 c 128,-1,14
 212 544 212 544 202 590 c 1,15,16
 184 428 184 428 62 0 c 1,17,-1
 0 6 l 1,18,19
 14 115 14 115 69 349 c 128,-1,20
 124 583 124 583 134 711 c 1,21,22
 152 713 152 713 163 713 c 0,23,24
 173 713 173 713 237 705 c 0,25,26
 251 703 251 703 277.5 614.5 c 128,-1,27
 304 526 304 526 331 420 c 128,-1,28
 358 314 358 314 365 295 c 1,29,30
 393 364 393 364 432.5 519 c 128,-1,31
 472 674 472 674 488 716 c 1,32,33
 504 715 504 715 589 707 c 1,34,35
 615 606 615 606 639.5 489 c 128,-1,36
 664 372 664 372 692.5 223 c 128,-1,37
 721 74 721 74 736 0 c 1,0,-1
EndSplineSet
EndChar

StartChar: N
Encoding: 78 78 46
Width: 562
Flags: W
HStem: -23 30G<87 109 460 488.5>
VStem: 41 90<-9.37329 409.558> 54 72<338.442 529> 435 86<99 239.736> 446 57<498.449 710>
LayerCount: 2
Fore
SplineSet
41 28 m 1,0,-1
 54 720 l 1,1,-1
 108 720 l 1,2,-1
 435 99 l 1,3,-1
 435 178 l 2,4,5
 435 480 435 480 446 721 c 1,6,-1
 503 710 l 1,7,8
 514 493 514 493 521 -5 c 1,9,10
 500 -14 500 -14 477 -14 c 0,11,12
 443 -14 443 -14 406 6 c 1,13,14
 345 100 345 100 254.5 281 c 128,-1,15
 164 462 164 462 126 529 c 1,16,17
 127 461 127 461 127.5 281 c 128,-1,18
 128 101 128 101 131 8 c 1,19,20
 122 -23 122 -23 96 -23 c 0,21,22
 78 -23 78 -23 61.5 -8 c 128,-1,23
 45 7 45 7 41 28 c 1,0,-1
EndSplineSet
EndChar

StartChar: O
Encoding: 79 79 47
Width: 536
Flags: W
HStem: -12 66<203.51 342.282> 681 72<197.371 316.201>
VStem: 42 76<163.502 545.839> 424 72<171.8 503.83>
LayerCount: 2
Fore
SplineSet
42 335 m 0,0,1
 42 369 42 369 42 386.5 c 128,-1,2
 42 404 42 404 43.5 440 c 128,-1,3
 45 476 45 476 47.5 497 c 128,-1,4
 50 518 50 518 55 551.5 c 128,-1,5
 60 585 60 585 68 605.5 c 128,-1,6
 76 626 76 626 86.5 652 c 128,-1,7
 97 678 97 678 113 694 c 128,-1,8
 129 710 129 710 148 724.5 c 128,-1,9
 167 739 167 739 193 746 c 128,-1,10
 219 753 219 753 250 753 c 0,11,12
 312 753 312 753 358 728.5 c 128,-1,13
 404 704 404 704 430 667 c 128,-1,14
 456 630 456 630 471.5 576 c 128,-1,15
 487 522 487 522 491.5 473 c 128,-1,16
 496 424 496 424 496 365 c 0,17,18
 496 325 496 325 494.5 293 c 128,-1,19
 493 261 493 261 488.5 220.5 c 128,-1,20
 484 180 484 180 475.5 149 c 128,-1,21
 467 118 467 118 452 86.5 c 128,-1,22
 437 55 437 55 416.5 34.5 c 128,-1,23
 396 14 396 14 365 1 c 128,-1,24
 334 -12 334 -12 296 -12 c 0,25,26
 234 -12 234 -12 189.5 3 c 128,-1,27
 145 18 145 18 116.5 45 c 128,-1,28
 88 72 88 72 71.5 116 c 128,-1,29
 55 160 55 160 48.5 212 c 128,-1,30
 42 264 42 264 42 335 c 0,0,1
424 327 m 0,31,32
 424 376 424 376 416.5 429 c 128,-1,33
 409 482 409 482 391.5 543 c 128,-1,34
 374 604 374 604 336 642.5 c 128,-1,35
 298 681 298 681 245 681 c 0,36,37
 205 681 205 681 174.5 627.5 c 128,-1,38
 144 574 144 574 131 507.5 c 128,-1,39
 118 441 118 441 118 382 c 0,40,41
 118 341 118 341 118.5 319.5 c 128,-1,42
 119 298 119 298 122 258.5 c 128,-1,43
 125 219 125 219 130.5 196 c 128,-1,44
 136 173 136 173 148 143 c 128,-1,45
 160 113 160 113 176.5 96.5 c 128,-1,46
 193 80 193 80 219.5 67.5 c 128,-1,47
 246 55 246 55 279 54 c 1,48,49
 352 58 352 58 388 136 c 128,-1,50
 424 214 424 214 424 327 c 0,31,32
EndSplineSet
EndChar

StartChar: P
Encoding: 80 80 48
Width: 525
Flags: W
HStem: 211 74<137.067 327.695> 675 57<152.948 315.182>
VStem: 41 90<-21.6494 220.699> 47.5 75.5<17.6638 223 303.311 518.311> 57 45<694.132 718> 412 72<372.944 563.506>
LayerCount: 2
Fore
SplineSet
57 718 m 1,0,-1
 102 730 l 1,1,2
 102 698 102 698 103 694 c 1,3,4
 160 732 160 732 263 732 c 0,5,6
 374 732 374 732 429 662.5 c 128,-1,7
 484 593 484 593 484 468 c 0,8,9
 484 357 484 357 430 284 c 128,-1,10
 376 211 376 211 267 211 c 0,11,12
 249 211 249 211 123 223 c 1,13,14
 125 150 125 150 131 -4 c 1,15,16
 122 -35 122 -35 96 -35 c 0,17,18
 78 -35 78 -35 61.5 -20.5 c 128,-1,19
 45 -6 45 -6 41 15 c 1,20,21
 44 99 44 99 47.5 342 c 128,-1,22
 51 585 51 585 57 718 c 1,0,-1
112 627 m 1,23,-1
 120 315 l 1,24,25
 175 285 175 285 247 285 c 0,26,27
 316 285 316 285 364 337 c 128,-1,28
 412 389 412 389 412 464 c 0,29,30
 412 545 412 545 362 610 c 128,-1,31
 312 675 312 675 237 675 c 0,32,33
 176 675 176 675 112 627 c 1,23,-1
EndSplineSet
EndChar

StartChar: Q
Encoding: 81 81 49
Width: 540
Flags: W
HStem: -161 46<368.288 427> 671 82<185.856 321.448>
VStem: 41 84<167.907 546.279> 424 76<162.72 515.214>
LayerCount: 2
Fore
SplineSet
427 -115 m 1,0,-1
 437 -160 l 1,1,2
 427 -161 427 -161 409 -161 c 0,3,4
 339 -161 339 -161 300 -121.5 c 128,-1,5
 261 -82 261 -82 245 -7 c 1,6,7
 41 28 41 28 41 292 c 0,8,9
 41 502 41 502 86 629 c 1,10,11
 131 753 131 753 257 753 c 1,12,13
 500 716 500 716 500 370 c 0,14,15
 500 329 500 329 499.5 304 c 128,-1,16
 499 279 499 279 495.5 234 c 128,-1,17
 492 189 492 189 486 160 c 128,-1,18
 480 131 480 131 467.5 95.5 c 128,-1,19
 455 60 455 60 437.5 39 c 128,-1,20
 420 18 420 18 392.5 3 c 128,-1,21
 365 -12 365 -12 330 -12 c 1,22,23
 329 -17 329 -17 329 -26 c 0,24,25
 329 -63 329 -63 363 -89 c 128,-1,26
 397 -115 397 -115 427 -115 c 1,0,-1
424 327 m 0,27,28
 424 366 424 366 421 405 c 128,-1,29
 418 444 418 444 407 494 c 128,-1,30
 396 544 396 544 378 581.5 c 128,-1,31
 360 619 360 619 327.5 645 c 128,-1,32
 295 671 295 671 252 671 c 0,33,34
 222 671 222 671 199 658 c 128,-1,35
 176 645 176 645 162.5 619 c 128,-1,36
 149 593 149 593 141 568.5 c 128,-1,37
 133 544 133 544 129.5 504 c 128,-1,38
 126 464 126 464 125.5 442 c 128,-1,39
 125 420 125 420 125 382 c 0,40,41
 125 334 125 334 126.5 299.5 c 128,-1,42
 128 265 128 265 136 216 c 128,-1,43
 144 167 144 167 158 135.5 c 128,-1,44
 172 104 172 104 200 80 c 128,-1,45
 228 56 228 56 267 54 c 1,46,47
 325 54 325 54 361.5 95 c 128,-1,48
 398 136 398 136 411 194 c 128,-1,49
 424 252 424 252 424 327 c 0,27,28
EndSplineSet
EndChar

StartChar: R
Encoding: 82 82 50
Width: 531
Flags: W
HStem: -57 41<461.359 505> 675 57<152.948 315.182>
VStem: 41 90<-21.6494 220.699> 47.5 75.5<17.6638 223 303.311 518.311> 57 45<694.132 718> 412 72<373.247 563.506>
LayerCount: 2
Fore
SplineSet
505 -16 m 1,0,-1
 521 -57 l 1,1,2
 476 -56 476 -56 427 -28 c 128,-1,3
 378 -0 378 -0 335.5 42.5 c 128,-1,4
 293 85 293 85 259.5 128.5 c 128,-1,5
 226 172 226 172 202 214 c 1,6,-1
 123 223 l 1,7,8
 125 150 125 150 131 -4 c 1,9,10
 122 -35 122 -35 96 -35 c 0,11,12
 78 -35 78 -35 61.5 -20.5 c 128,-1,13
 45 -6 45 -6 41 15 c 1,14,15
 44 99 44 99 47.5 342 c 128,-1,16
 51 585 51 585 57 718 c 1,17,-1
 102 730 l 1,18,19
 102 698 102 698 103 694 c 1,20,21
 160 732 160 732 263 732 c 0,22,23
 374 732 374 732 429 662.5 c 128,-1,24
 484 593 484 593 484 468 c 0,25,26
 484 422 484 422 473 379.5 c 128,-1,27
 462 337 462 337 440.5 300 c 128,-1,28
 419 263 419 263 381 239 c 128,-1,29
 343 215 343 215 294 211 c 1,30,31
 329 138 329 138 388 69 c 128,-1,32
 447 0 447 0 505 -16 c 1,0,-1
112 627 m 1,33,-1
 120 315 l 1,34,35
 175 285 175 285 247 285 c 0,36,37
 316 285 316 285 364 337 c 128,-1,38
 412 389 412 389 412 464 c 0,39,40
 412 545 412 545 362 610 c 128,-1,41
 312 675 312 675 237 675 c 0,42,43
 176 675 176 675 112 627 c 1,33,-1
EndSplineSet
EndChar

StartChar: S
Encoding: 83 83 51
Width: 457
Flags: W
HStem: -5 71<120.071 311.082> 701 67<145.064 306.248>
VStem: 10 90<518.217 656.831> 358 89<106.654 241.389>
LayerCount: 2
Fore
SplineSet
28 57 m 1,0,-1
 42 113 l 1,1,2
 129 66 129 66 213 66 c 0,3,4
 273 66 273 66 315.5 90.5 c 128,-1,5
 358 115 358 115 358 170 c 0,6,7
 358 219 358 219 322 259.5 c 128,-1,8
 286 300 286 300 235 331 c 128,-1,9
 184 362 184 362 133 394.5 c 128,-1,10
 82 427 82 427 46 474.5 c 128,-1,11
 10 522 10 522 10 580 c 0,12,13
 10 651 10 651 61 709.5 c 128,-1,14
 112 768 112 768 184 768 c 0,15,16
 239 768 239 768 306.5 746 c 128,-1,17
 374 724 374 724 420 702 c 1,18,-1
 408 662 l 1,19,20
 294 701 294 701 216 701 c 0,21,22
 168 701 168 701 134 670 c 128,-1,23
 100 639 100 639 100 590 c 0,24,25
 100 553 100 553 119 523 c 128,-1,26
 138 493 138 493 168.5 471 c 128,-1,27
 199 449 199 449 236.5 428 c 128,-1,28
 274 407 274 407 311 383 c 128,-1,29
 348 359 348 359 378.5 331 c 128,-1,30
 409 303 409 303 428 260.5 c 128,-1,31
 447 218 447 218 447 165 c 0,32,33
 447 90 447 90 399 42.5 c 128,-1,34
 351 -5 351 -5 274 -5 c 0,35,36
 208 -5 208 -5 133.5 13.5 c 128,-1,37
 59 32 59 32 28 57 c 1,0,-1
EndSplineSet
EndChar

StartChar: T
Encoding: 84 84 52
Width: 441
Flags: W
HStem: -15 21G<227 248.5> 657 81<257.537 366.803> 671 45<10 124.463>
VStem: 181 89<-2.08008 270.234> 181 52<442.625 657>
LayerCount: 2
Fore
SplineSet
10 671 m 1,0,-1
 0 716 l 1,1,-1
 382 738 l 1,2,3
 407 737 407 737 424 720 c 128,-1,4
 441 703 441 703 441 683 c 0,5,6
 441 670 441 670 431 660 c 128,-1,7
 421 650 421 650 401 648 c 1,8,-1
 233 657 l 1,9,10
 258 304 258 304 270 15 c 1,11,12
 261 -15 261 -15 236 -15 c 0,13,14
 218 -15 218 -15 201 -0.5 c 128,-1,15
 184 14 184 14 180 35 c 1,16,17
 182 89 182 89 182 199 c 0,18,19
 182 240 182 240 181.5 322 c 128,-1,20
 181 404 181 404 181 445 c 0,21,22
 181 564 181 564 185 660 c 1,23,24
 72 668 72 668 10 671 c 1,0,-1
EndSplineSet
EndChar

StartChar: U
Encoding: 85 85 53
Width: 537
Flags: W
HStem: -31 75<171.895 358.543> 722 20G<424 484>
VStem: 41 72<218.014 701.936> 41 61<491.779 723> 46 79<93.3613 442.335> 422 75<249.694 670.004>
LayerCount: 2
Fore
SplineSet
425 742 m 1,0,-1
 484 737 l 1,1,2
 497 553 497 553 497 426 c 0,3,4
 497 334 497 334 492 216 c 0,5,6
 490 166 490 166 484 131.5 c 128,-1,7
 478 97 478 97 463 64 c 128,-1,8
 448 31 448 31 422.5 11.5 c 128,-1,9
 397 -8 397 -8 356 -19.5 c 128,-1,10
 315 -31 315 -31 257 -31 c 0,11,12
 215 -31 215 -31 183 -23.5 c 128,-1,13
 151 -16 151 -16 129.5 -4 c 128,-1,14
 108 8 108 8 93 27.5 c 128,-1,15
 78 47 78 47 69.5 68 c 128,-1,16
 61 89 61 89 56.5 118 c 128,-1,17
 52 147 52 147 50 173 c 128,-1,18
 48 199 48 199 46 234 c 0,19,20
 46 237 46 237 46 238 c 0,21,22
 41 360 41 360 41 445 c 0,23,24
 41 517 41 517 47 735 c 1,25,-1
 102 723 l 1,26,27
 104 631 104 631 113 460.5 c 128,-1,28
 122 290 122 290 125 218 c 0,29,30
 126 184 126 184 128 164 c 128,-1,31
 130 144 130 144 137.5 118 c 128,-1,32
 145 92 145 92 158 78 c 128,-1,33
 171 64 171 64 195 54 c 128,-1,34
 219 44 219 44 254 44 c 128,-1,35
 289 44 289 44 314.5 48.5 c 128,-1,36
 340 53 340 53 356.5 65 c 128,-1,37
 373 77 373 77 383.5 89 c 128,-1,38
 394 101 394 101 400 124.5 c 128,-1,39
 406 148 406 148 408.5 165.5 c 128,-1,40
 411 183 411 183 414 217 c 0,41,42
 421 303 421 303 422 495 c 128,-1,43
 423 687 423 687 425 742 c 1,0,-1
EndSplineSet
EndChar

StartChar: V
Encoding: 86 86 54
Width: 429
Flags: W
HStem: -1 21G<212 231>
VStem: 369 60<654.191 717>
LayerCount: 2
Fore
SplineSet
369 720 m 1,0,-1
 429 717 l 1,1,2
 428 715 428 715 351 394 c 128,-1,3
 274 73 274 73 246 1 c 1,4,5
 236 -1 236 -1 226 -1 c 0,6,7
 198 -1 198 -1 163 6 c 1,8,9
 148 51 148 51 128.5 129 c 128,-1,10
 109 207 109 207 88 302 c 128,-1,11
 67 397 67 397 51.5 470.5 c 128,-1,12
 36 544 36 544 19 628 c 128,-1,13
 2 712 2 712 0 720 c 1,14,-1
 57 720 l 1,15,16
 97 536 97 536 201 130 c 1,17,18
 355 692 355 692 369 720 c 1,0,-1
EndSplineSet
EndChar

StartChar: W
Encoding: 87 87 55
Width: 683
Flags: W
HStem: -1 21G<212 231 466 485>
VStem: 623 60<654.191 717>
LayerCount: 2
Fore
SplineSet
623 720 m 1,0,-1
 683 717 l 1,1,2
 682 715 682 715 605 394 c 128,-1,3
 528 73 528 73 500 1 c 1,4,5
 490 -1 490 -1 480 -1 c 0,6,7
 452 -1 452 -1 417 6 c 1,8,9
 390 86 390 86 335 330 c 1,10,11
 273 75 273 75 246 1 c 1,12,13
 236 -1 236 -1 226 -1 c 0,14,15
 198 -1 198 -1 163 6 c 1,16,17
 148 51 148 51 128.5 129 c 128,-1,18
 109 207 109 207 88 302 c 128,-1,19
 67 397 67 397 51.5 470.5 c 128,-1,20
 36 544 36 544 19 628 c 128,-1,21
 2 712 2 712 0 720 c 1,22,-1
 57 720 l 1,23,24
 97 536 97 536 201 130 c 1,25,26
 216 184 216 184 252 318 c 128,-1,27
 288 452 288 452 300 495 c 1,28,29
 286 559 286 559 254 720 c 1,30,-1
 311 720 l 1,31,32
 351 536 351 536 455 130 c 1,33,34
 609 692 609 692 623 720 c 1,0,-1
EndSplineSet
EndChar

StartChar: X
Encoding: 88 88 56
Width: 558
Flags: W
HStem: -17 29G<3.90909 61.5 507 531.5> 724 20G<468.5 489>
LayerCount: 2
Fore
SplineSet
43 -9 m 1,0,-1
 0 13 l 1,1,2
 26 74 26 74 59.5 132.5 c 128,-1,3
 93 191 93 191 151.5 280.5 c 128,-1,4
 210 370 210 370 224 392 c 1,5,6
 199 431 199 431 121.5 542.5 c 128,-1,7
 44 654 44 654 6 717 c 1,8,-1
 48 736 l 1,9,10
 133 637 133 637 261 451 c 1,11,12
 266 470 266 470 348.5 584 c 128,-1,13
 431 698 431 698 443 719 c 0,14,15
 458 744 458 744 479 744 c 0,16,17
 499 744 499 744 515 726.5 c 128,-1,18
 531 709 531 709 532 686 c 1,19,20
 526 679 526 679 428.5 543 c 128,-1,21
 331 407 331 407 307 379 c 1,22,23
 341 326 341 326 437 195.5 c 128,-1,24
 533 65 533 65 558 22 c 1,25,26
 558 3 558 3 548.5 -7 c 128,-1,27
 539 -17 539 -17 524 -17 c 0,28,29
 490 -17 490 -17 472 16 c 1,30,-1
 267 322 l 1,31,32
 236 272 236 272 158 162 c 128,-1,33
 80 52 80 52 43 -9 c 1,0,-1
EndSplineSet
EndChar

StartChar: Y
Encoding: 89 89 57
Width: 422
Flags: W
HStem: 1 21G<184.5 220.5>
VStem: 160 88<1.28125 301.456>
LayerCount: 2
Fore
SplineSet
388 723 m 1,0,-1
 443 706 l 1,1,2
 434 689 434 689 398.5 610.5 c 128,-1,3
 363 532 363 532 321 449 c 128,-1,4
 279 366 279 366 239 303 c 1,5,6
 243 254 243 254 244 151 c 128,-1,7
 245 48 245 48 248 3 c 1,8,9
 239 1 239 1 202 1 c 0,10,11
 167 1 167 1 160 3 c 1,12,13
 163 46 163 46 164.5 150.5 c 128,-1,14
 166 255 166 255 170 303 c 1,15,16
 120 386 120 386 58.5 535 c 128,-1,17
 -3 684 -3 684 -20 719 c 1,18,-1
 47 724 l 1,19,-1
 205 384 l 1,20,21
 223 416 223 416 287.5 543 c 128,-1,22
 352 670 352 670 388 723 c 1,0,-1
EndSplineSet
EndChar

StartChar: Z
Encoding: 90 90 58
Width: 445
Flags: W
HStem: -1 67<133.389 425> 650 73<3.07471 357> 662 54<0 335.159>
LayerCount: 2
Fore
SplineSet
425 60 m 1,0,-1
 427 -1 l 1,1,2
 369 -3 369 -3 337 -3 c 0,3,4
 293 -3 293 -3 206.5 -1 c 128,-1,5
 120 1 120 1 80 1 c 0,6,7
 50 1 50 1 4 -1 c 1,8,-1
 10 53 l 2,9,10
 13 81 13 81 78.5 192.5 c 128,-1,11
 144 304 144 304 239 455 c 128,-1,12
 334 606 334 606 357 646 c 1,13,14
 321 648 321 648 246.5 650 c 128,-1,15
 172 652 172 652 110.5 655 c 128,-1,16
 49 658 49 658 0 662 c 1,17,-1
 0 716 l 1,18,-1
 30 716 l 2,19,20
 36 716 36 716 445 723 c 1,21,-1
 445 644 l 1,22,-1
 132 73 l 1,23,24
 176 70 176 70 279 66 c 128,-1,25
 382 62 382 62 425 60 c 1,0,-1
EndSplineSet
EndChar

StartChar: bracketleft
Encoding: 91 91 59
Width: 278
Flags: W
HStem: -84 46<131.385 272> -83 52.5<131 271.397> 737 74<100.576 236.237>
VStem: 41 58<544.707 737>
LayerCount: 2
Fore
SplineSet
65 -90 m 1,0,-1
 41 815 l 1,1,2
 61 812 61 812 137 811 c 128,-1,3
 213 810 213 810 237 803 c 1,4,-1
 247 758 l 1,5,6
 163 737 163 737 99 737 c 1,7,8
 101 689 101 689 114.5 391.5 c 128,-1,9
 128 94 128 94 131 -26 c 1,10,11
 143 -28 143 -28 198 -30.5 c 128,-1,12
 253 -33 253 -33 272 -38 c 1,13,-1
 279 -84 l 1,14,15
 265 -83 265 -83 238 -83 c 0,16,17
 207 -83 207 -83 149.5 -86 c 128,-1,18
 92 -89 92 -89 65 -90 c 1,0,-1
EndSplineSet
EndChar

StartChar: backslash
Encoding: 92 92 60
Width: 513
Flags: W
LayerCount: 2
Fore
SplineSet
0 824 m 1,0,-1
 81 816 l 1,1,2
 175 605 175 605 222 500.5 c 128,-1,3
 269 396 269 396 360.5 205.5 c 128,-1,4
 452 15 452 15 513 -89 c 1,5,6
 495 -98 495 -98 465 -98 c 0,7,8
 430 -98 430 -98 425 -89 c 0,9,10
 352 20 352 20 213.5 316.5 c 128,-1,11
 75 613 75 613 0 824 c 1,0,-1
EndSplineSet
EndChar

StartChar: bracketright
Encoding: 93 93 61
Width: 278
Flags: W
HStem: -84 46<6 146.615> -83 52.5<6.60254 147> 737 74<42.7627 178.424>
VStem: 179 59<544.707 737>
LayerCount: 2
Fore
SplineSet
238 815 m 1,0,-1
 214 -90 l 1,1,2
 187 -89 187 -89 129.5 -86 c 128,-1,3
 72 -83 72 -83 41 -83 c 0,4,5
 14 -83 14 -83 0 -84 c 1,6,-1
 6 -38 l 1,7,8
 25 -33 25 -33 80 -30.5 c 128,-1,9
 135 -28 135 -28 147 -26 c 1,10,11
 150 94 150 94 163.5 391.5 c 128,-1,12
 177 689 177 689 179 737 c 1,13,14
 116 737 116 737 32 758 c 1,15,-1
 42 803 l 1,16,17
 66 810 66 810 142 811 c 128,-1,18
 218 812 218 812 238 815 c 1,0,-1
EndSplineSet
EndChar

StartChar: asciicircum
Encoding: 94 94 62
Width: 452
Flags: W
LayerCount: 2
Fore
SplineSet
453 339 m 1,0,-1
 387 340 l 1,1,2
 364 366 364 366 303 480.5 c 128,-1,3
 242 595 242 595 223 622 c 1,4,5
 203 580 203 580 139.5 482.5 c 128,-1,6
 76 385 76 385 43 356 c 1,7,-1
 0 379 l 1,8,9
 28 440 28 440 86 543.5 c 128,-1,10
 144 647 144 647 185 711 c 0,11,12
 189 718 189 718 205 724.5 c 128,-1,13
 221 731 221 731 237 731 c 0,14,15
 265 731 265 731 273 706 c 0,16,17
 290 654 290 654 319.5 593 c 128,-1,18
 349 532 349 532 392.5 452.5 c 128,-1,19
 436 373 436 373 453 339 c 1,0,-1
EndSplineSet
EndChar

StartChar: underscore
Encoding: 95 95 63
Width: 566
Flags: W
HStem: 2 90<286.958 552.984>
LayerCount: 2
Fore
SplineSet
10 15 m 1,0,-1
 0 60 l 1,1,2
 169 74 169 74 507 92 c 1,3,4
 532 91 532 91 549 74 c 128,-1,5
 566 57 566 57 566 37 c 0,6,7
 566 24 566 24 556 14 c 128,-1,8
 546 4 546 4 526 2 c 1,9,10
 457 5 457 5 281.5 7 c 128,-1,11
 106 9 106 9 10 15 c 1,0,-1
EndSplineSet
EndChar

StartChar: grave
Encoding: 96 96 64
Width: 171
Flags: W
HStem: 509 252
VStem: 0 83<669.932 753.403>
LayerCount: 2
Fore
SplineSet
171 535 m 2,0,-1
 129 509 l 1,1,2
 96 535 96 535 48 609.5 c 128,-1,3
 0 684 0 684 0 724 c 0,4,5
 0 761 0 761 33 761 c 0,6,7
 63 761 63 761 83 732 c 1,8,9
 93 689 93 689 132 612.5 c 128,-1,10
 171 536 171 536 171 535 c 2,0,-1
EndSplineSet
EndChar

StartChar: a
Encoding: 97 97 65
Width: 411
Flags: W
HStem: -18 21G<322 342.5> -10 70<108.426 226.01> 309 56<193.393 283> 479 61<115.364 247.913>
VStem: 20 70<78.3151 212.569> 286 76<-9.75806 49.9053 105.172 246.741> 288 83<132.428 309 362 420.163>
LayerCount: 2
Fore
SplineSet
77 432 m 1,0,-1
 57 483 l 1,1,2
 83 509 83 509 123 524.5 c 128,-1,3
 163 540 163 540 202 540 c 0,4,5
 371 540 371 540 371 248 c 0,6,7
 371 208 371 208 366.5 130 c 128,-1,8
 362 52 362 52 362 13 c 1,9,10
 354 -18 354 -18 331 -18 c 0,11,12
 313 -18 313 -18 298 0 c 128,-1,13
 283 18 283 18 283 40 c 0,14,15
 283 47 283 47 284 50 c 1,16,17
 222 -10 222 -10 152 -10 c 0,18,19
 99 -10 99 -10 59.5 28.5 c 128,-1,20
 20 67 20 67 20 122 c 0,21,22
 20 215 20 215 92.5 290 c 128,-1,23
 165 365 165 365 257 365 c 0,24,25
 261 365 261 365 265 364.5 c 128,-1,26
 269 364 269 364 274.5 363 c 128,-1,27
 280 362 280 362 283 362 c 1,28,29
 275 479 275 479 190 479 c 0,30,31
 140 479 140 479 77 432 c 1,0,-1
286 119 m 1,32,33
 288 189 288 189 288 225 c 0,34,35
 288 255 288 255 286 309 c 1,36,-1
 278 309 l 1,37,38
 207 308 207 308 148.5 256 c 128,-1,39
 90 204 90 204 90 130 c 0,40,41
 90 98 90 98 109.5 79 c 128,-1,42
 129 60 129 60 157 60 c 0,43,44
 201 60 201 60 286 119 c 1,32,33
EndSplineSet
EndChar

StartChar: b
Encoding: 98 98 66
Width: 454
Flags: W
HStem: -24 62<132.287 294.721> 453 71<146.712 275.233>
VStem: 41 75<288.107 423.203 500.313 763.003> 53 56<-19 10.6851> 339 75<103.812 365.988>
LayerCount: 2
Fore
SplineSet
109 -19 m 1,0,-1
 53 -30 l 1,1,-1
 41 760 l 1,2,3
 69 774 69 774 117 783 c 1,4,5
 116 760 116 760 116 711 c 0,6,7
 116 603 116 603 124 497 c 1,8,9
 172 524 172 524 226 524 c 0,10,11
 282 524 282 524 321 497.5 c 128,-1,12
 360 471 360 471 379 425 c 128,-1,13
 398 379 398 379 406 332 c 128,-1,14
 414 285 414 285 414 230 c 0,15,16
 414 170 414 170 395.5 114.5 c 128,-1,17
 377 59 377 59 331.5 17.5 c 128,-1,18
 286 -24 286 -24 221 -24 c 0,19,20
 165 -24 165 -24 110 11 c 1,21,22
 109 1 109 1 109 -19 c 1,0,-1
121 399 m 1,23,-1
 118 77 l 1,24,25
 124 59 124 59 155.5 48.5 c 128,-1,26
 187 38 187 38 224 38 c 0,27,28
 259 38 259 38 282.5 51.5 c 128,-1,29
 306 65 306 65 318 90.5 c 128,-1,30
 330 116 330 116 334.5 144 c 128,-1,31
 339 172 339 172 339 208 c 0,32,33
 339 245 339 245 335 280.5 c 128,-1,34
 331 316 331 316 319 358.5 c 128,-1,35
 307 401 307 401 280 427 c 128,-1,36
 253 453 253 453 213 453 c 0,37,38
 184 453 184 453 158.5 438.5 c 128,-1,39
 133 424 133 424 121 399 c 1,23,-1
EndSplineSet
EndChar

StartChar: c
Encoding: 99 99 67
Width: 400
Flags: W
HStem: -22 59<149.135 344.41> 459 60<212.78 373.609>
VStem: 41 68<80.5184 336.225>
LayerCount: 2
Fore
SplineSet
378 496 m 1,0,-1
 373 453 l 1,1,2
 331 459 331 459 301 459 c 0,3,4
 232 459 232 459 187 417.5 c 128,-1,5
 142 376 142 376 125.5 319.5 c 128,-1,6
 109 263 109 263 109 194 c 0,7,8
 109 162 109 162 113 137 c 128,-1,9
 117 112 117 112 127.5 88 c 128,-1,10
 138 64 138 64 160.5 50.5 c 128,-1,11
 183 37 183 37 216 37 c 0,12,13
 260 37 260 37 328 54 c 1,14,15
 349 62 349 62 361 62 c 0,16,17
 385 62 385 62 390 6 c 1,18,19
 302 -22 302 -22 227 -22 c 0,20,21
 118 -22 118 -22 79.5 31.5 c 128,-1,22
 41 85 41 85 41 205 c 0,23,24
 41 275 41 275 50.5 327.5 c 128,-1,25
 60 380 60 380 84 425.5 c 128,-1,26
 108 471 108 471 153.5 495 c 128,-1,27
 199 519 199 519 265 519 c 0,28,29
 339 519 339 519 378 496 c 1,0,-1
EndSplineSet
EndChar

StartChar: d
Encoding: 100 100 68
Width: 454
Flags: W
HStem: -19 61<163.106 323.627> 457 71<179.054 308.261>
VStem: 41 75<115.16 371.869> 339 75<328.406 427.203 504.313 767.003> 346 55<-15 14.6851>
LayerCount: 2
Fore
SplineSet
401 -26 m 1,0,-1
 346 -15 l 1,1,2
 346 5 346 5 345 15 c 1,3,4
 292 -19 292 -19 233 -19 c 0,5,6
 142 -19 142 -19 91.5 59 c 128,-1,7
 41 137 41 137 41 236 c 0,8,9
 41 287 41 287 48.5 332 c 128,-1,10
 56 377 56 377 74.5 424.5 c 128,-1,11
 93 472 93 472 132.5 500 c 128,-1,12
 172 528 172 528 228 528 c 0,13,14
 283 528 283 528 331 501 c 1,15,16
 339 607 339 607 339 715 c 0,17,18
 339 764 339 764 338 787 c 1,19,20
 386 778 386 778 414 764 c 1,21,-1
 401 -26 l 1,0,-1
337 81 m 1,22,-1
 334 403 l 1,23,24
 322 428 322 428 296.5 442.5 c 128,-1,25
 271 457 271 457 242 457 c 0,26,27
 203 457 203 457 175.5 432 c 128,-1,28
 148 407 148 407 136.5 365.5 c 128,-1,29
 125 324 125 324 120.5 288 c 128,-1,30
 116 252 116 252 116 212 c 0,31,32
 116 42 116 42 230 42 c 0,33,34
 268 42 268 42 299.5 52.5 c 128,-1,35
 331 63 331 63 337 81 c 1,22,-1
EndSplineSet
EndChar

StartChar: e
Encoding: 101 101 69
Width: 453
Flags: W
HStem: -2 72<150.86 336.285> 53 44<380.531 444> 456 67<190.724 310.945>
VStem: 41 60<127.25 252.891 311 364.248>
LayerCount: 2
Fore
SplineSet
444 97 m 1,0,-1
 454 53 l 1,1,2
 410 37 410 37 323.5 17.5 c 128,-1,3
 237 -2 237 -2 195 -2 c 0,4,5
 152 -2 152 -2 120 26.5 c 128,-1,6
 88 55 88 55 72 99.5 c 128,-1,7
 56 144 56 144 48.5 187.5 c 128,-1,8
 41 231 41 231 41 273 c 0,9,10
 41 523 41 523 267 523 c 0,11,12
 321 523 321 523 362 488.5 c 128,-1,13
 403 454 403 454 403 399 c 0,14,15
 403 369 403 369 386.5 346 c 128,-1,16
 370 323 370 323 346.5 309.5 c 128,-1,17
 323 296 323 296 286.5 285 c 128,-1,18
 250 274 250 274 222 269 c 128,-1,19
 194 264 194 264 155 258 c 128,-1,20
 116 252 116 252 101 249 c 1,21,22
 102 220 102 220 104.5 198 c 128,-1,23
 107 176 107 176 114.5 150.5 c 128,-1,24
 122 125 122 125 134.5 108.5 c 128,-1,25
 147 92 147 92 169 81 c 128,-1,26
 191 70 191 70 221 70 c 0,27,28
 257 70 257 70 309 76.5 c 128,-1,29
 361 83 361 83 401.5 90 c 128,-1,30
 442 97 442 97 444 97 c 1,0,-1
105 311 m 1,31,32
 241 350 241 350 328 393 c 1,33,34
 321 426 321 426 309 441 c 128,-1,35
 297 456 297 456 273 456 c 0,36,37
 212 456 212 456 162.5 414 c 128,-1,38
 113 372 113 372 105 311 c 1,31,32
EndSplineSet
EndChar

StartChar: f
Encoding: 102 102 70
Width: 334
Flags: W
HStem: 375 67<21.6426 95.6831 165 249.59> 384 53<250.781 300.402> 662 60<183.799 322.312>
VStem: 94.5 70.5<-32.5195 372> 99 65<436.059 643.429>
LayerCount: 2
Fore
SplineSet
299 437 m 1,0,-1
 308 391 l 1,1,2
 287 388 287 388 238 384 c 128,-1,3
 189 380 189 380 165 376 c 1,4,5
 165 119 165 119 171 3 c 1,6,7
 159 -36 159 -36 131 -36 c 0,8,9
 118 -36 118 -36 106.5 -25 c 128,-1,10
 95 -14 95 -14 91 3 c 1,11,12
 91 33 91 33 94.5 166 c 128,-1,13
 98 299 98 299 98 372 c 1,14,-1
 22 375 l 1,15,16
 20 395 20 395 20 442 c 1,17,18
 30 440 30 440 58 437 c 128,-1,19
 86 434 86 434 96 433 c 1,20,21
 99 465 99 465 99 524 c 0,22,23
 99 638 99 638 118 680 c 128,-1,24
 137 722 137 722 209 722 c 0,25,26
 286 722 286 722 335 693 c 1,27,-1
 329 657 l 1,28,29
 316 657 316 657 288.5 659.5 c 128,-1,30
 261 662 261 662 247 662 c 0,31,32
 206 662 206 662 185 644 c 128,-1,33
 164 626 164 626 164 575 c 0,34,35
 164 559 164 559 164.5 540.5 c 128,-1,36
 165 522 165 522 165 517 c 0,37,38
 165 480 165 480 164 436 c 1,39,40
 180 436 180 436 208.5 435 c 128,-1,41
 237 434 237 434 250 434 c 0,42,43
 275 434 275 434 299 437 c 1,0,-1
EndSplineSet
EndChar

StartChar: g
Encoding: 103 103 71
Width: 441
Flags: W
HStem: -265 66<48.2028 269.641> -28 72<179.472 308.222> 459 61<168.973 322.692> 506 20G<346 391>
VStem: 41 75<130.676 395.153> 337 55<72.2734 442> 345 51.5<485 516>
LayerCount: 2
Fore
SplineSet
346 516 m 1,0,-1
 391 526 l 1,1,2
 391 496 391 496 392 479 c 0,3,4
 398 260 398 260 398 194 c 0,5,6
 398 171 398 171 399 122 c 128,-1,7
 400 73 400 73 400 48 c 0,8,9
 400 -7 400 -7 396.5 -47 c 128,-1,10
 393 -87 393 -87 381 -130.5 c 128,-1,11
 369 -174 369 -174 348.5 -201.5 c 128,-1,12
 328 -229 328 -229 290.5 -247 c 128,-1,13
 253 -265 253 -265 202 -265 c 0,14,15
 158 -265 158 -265 47 -252 c 1,16,17
 46 -241 46 -241 43.5 -228 c 128,-1,18
 41 -215 41 -215 41 -208 c 0,19,20
 41 -193 41 -193 44 -184 c 1,21,22
 52 -185 52 -185 106.5 -192 c 128,-1,23
 161 -199 161 -199 187 -199 c 0,24,25
 256 -199 256 -199 293 -157 c 128,-1,26
 330 -115 330 -115 331 0 c 1,27,28
 282 -28 282 -28 228 -28 c 0,29,30
 183 -28 183 -28 149 -9.5 c 128,-1,31
 115 9 115 9 95 37.5 c 128,-1,32
 75 66 75 66 62.5 106.5 c 128,-1,33
 50 147 50 147 45.5 185 c 128,-1,34
 41 223 41 223 41 266 c 0,35,36
 41 374 41 374 88.5 447 c 128,-1,37
 136 520 136 520 233 520 c 0,38,39
 290 520 290 520 345 485 c 1,40,41
 346 495 346 495 346 516 c 1,0,-1
334 97 m 1,42,-1
 337 420 l 1,43,44
 331 438 331 438 299.5 448.5 c 128,-1,45
 268 459 268 459 230 459 c 0,46,47
 176 459 176 459 146 409.5 c 128,-1,48
 116 360 116 360 116 289 c 0,49,50
 116 252 116 252 120 216.5 c 128,-1,51
 124 181 124 181 136 138.5 c 128,-1,52
 148 96 148 96 175 70 c 128,-1,53
 202 44 202 44 242 44 c 0,54,55
 272 44 272 44 297 58.5 c 128,-1,56
 322 73 322 73 334 97 c 1,42,-1
EndSplineSet
EndChar

StartChar: h
Encoding: 104 104 72
Width: 444
Flags: W
HStem: -1 21G<70.5 91.5 359 380> 438 72<159.213 292.37>
VStem: 41.5 64.5<453 706.707> 43 78<-0.121094 404.711> 46 52<579.801 708> 330 73<-0.288086 396.47>
LayerCount: 2
Fore
SplineSet
46 720 m 1,0,-1
 98 708 l 1,1,2
 101 667 101 667 102.5 577 c 128,-1,3
 104 487 104 487 106 453 c 1,4,5
 160 510 160 510 236 510 c 0,6,7
 304 510 304 510 353.5 462 c 128,-1,8
 403 414 403 414 403 334 c 2,9,-1
 403 5 l 1,10,11
 390 -1 390 -1 370 -1 c 0,12,13
 348 -1 348 -1 330 3 c 1,14,15
 330 11 330 11 330.5 27.5 c 128,-1,16
 331 44 331 44 331 52 c 0,17,18
 331 91 331 91 328 186.5 c 128,-1,19
 325 282 325 282 325 346 c 1,20,21
 310 438 310 438 232 438 c 0,22,23
 198 438 198 438 165 419.5 c 128,-1,24
 132 401 132 401 117 376 c 1,25,26
 120 313 120 313 121 186 c 128,-1,27
 122 59 122 59 124 3 c 1,28,29
 100 -1 100 -1 83 -1 c 0,30,31
 58 -1 58 -1 41 5 c 1,32,33
 43 54 43 54 43 160 c 0,34,35
 43 207 43 207 42 332.5 c 128,-1,36
 41 458 41 458 41.5 548.5 c 128,-1,37
 42 639 42 639 46 720 c 1,0,-1
EndSplineSet
EndChar

StartChar: i
Encoding: 105 105 73
Width: 181
Flags: W
HStem: -2 21G<87 109> 567 126<57.5419 120.866>
VStem: 41 99<590.721 674.359> 41 90<11.3506 288.914> 49 74<49.3134 490.617>
LayerCount: 2
Fore
SplineSet
63 514 m 1,0,-1
 109 504 l 1,1,2
 117 422 117 422 123 246.5 c 128,-1,3
 129 71 129 71 131 29 c 1,4,5
 122 -2 122 -2 96 -2 c 0,6,7
 78 -2 78 -2 61.5 12.5 c 128,-1,8
 45 27 45 27 41 48 c 1,9,10
 43 89 43 89 49 261.5 c 128,-1,11
 55 434 55 434 63 514 c 1,0,-1
77 693 m 0,12,13
 104 693 104 693 122 669.5 c 128,-1,14
 140 646 140 646 140 616 c 0,15,16
 140 594 140 594 129.5 580.5 c 128,-1,17
 119 567 119 567 101 567 c 0,18,19
 73 567 73 567 57 590 c 128,-1,20
 41 613 41 613 41 644 c 0,21,22
 41 666 41 666 50.5 679.5 c 128,-1,23
 60 693 60 693 77 693 c 0,12,13
EndSplineSet
EndChar

StartChar: j
Encoding: 106 106 74
Width: 166
Flags: W
HStem: 503 20G<66.5 88.5> 569 126<42.5029 105.335>
VStem: 26 99<592.721 675.7> 42 83<582.924 645.033> 51 75<-4.11768 513.332>
LayerCount: 2
Fore
SplineSet
-82 -187 m 1,0,-1
 -82 -151 l 1,1,2
 -46 -143 -46 -143 -20 -120.5 c 128,-1,3
 6 -98 6 -98 19.5 -71.5 c 128,-1,4
 33 -45 33 -45 40.5 -4 c 128,-1,5
 48 37 48 37 49.5 67.5 c 128,-1,6
 51 98 51 98 51 143 c 0,7,8
 51 184 51 184 50 288.5 c 128,-1,9
 49 393 49 393 48 479 c 1,10,11
 52 523 52 523 81 523 c 0,12,13
 96 523 96 523 109.5 508 c 128,-1,14
 123 493 123 493 124 470 c 1,15,16
 124 443 124 443 124.5 385.5 c 128,-1,17
 125 328 125 328 125 297 c 0,18,19
 125 294 125 294 125.5 275 c 128,-1,20
 126 256 126 256 126 240 c 0,21,22
 126 100 126 100 116 12 c 128,-1,23
 106 -76 106 -76 83.5 -120.5 c 128,-1,24
 61 -165 61 -165 33 -180 c 128,-1,25
 5 -195 5 -195 -39 -195 c 0,26,27
 -58 -195 -58 -195 -82 -187 c 1,0,-1
61 695 m 0,28,29
 88 695 88 695 106.5 671.5 c 128,-1,30
 125 648 125 648 125 618 c 0,31,32
 125 596 125 596 114.5 582.5 c 128,-1,33
 104 569 104 569 86 569 c 0,34,35
 58 569 58 569 42 592 c 128,-1,36
 26 615 26 615 26 646 c 0,37,38
 26 668 26 668 35 681.5 c 128,-1,39
 44 695 44 695 61 695 c 0,28,29
EndSplineSet
EndChar

StartChar: k
Encoding: 107 107 75
Width: 405
Flags: W
HStem: -13 34G<87 109 314 386>
VStem: 41 90<0.172485 223> 44 73<360 707.729> 48 61<548.854 709>
LayerCount: 2
Fore
SplineSet
406 0 m 1,0,-1
 314 2 l 1,1,2
 277 39 277 39 212.5 121.5 c 128,-1,3
 148 204 148 204 131 223 c 1,4,-1
 131 17 l 1,5,6
 122 -13 122 -13 96 -13 c 0,7,8
 78 -13 78 -13 61.5 1.5 c 128,-1,9
 45 16 45 16 41 37 c 1,10,11
 44 140 44 140 44 379 c 128,-1,12
 44 618 44 618 48 722 c 1,13,-1
 109 709 l 1,14,15
 110 669 110 669 112.5 545 c 128,-1,16
 115 421 115 421 117 360 c 1,17,-1
 360 538 l 1,18,-1
 377 493 l 1,19,20
 282 424 282 424 154 298 c 1,21,22
 181 269 181 269 273.5 156.5 c 128,-1,23
 366 44 366 44 406 0 c 1,0,-1
EndSplineSet
EndChar

StartChar: l
Encoding: 108 108 76
Width: 172
Flags: W
HStem: -2 21G<87 109>
VStem: 41 90<11.3506 239.804> 63 46<478.128 676>
LayerCount: 2
Fore
SplineSet
63 686 m 1,0,-1
 109 676 l 1,1,-1
 131 29 l 1,2,3
 122 -2 122 -2 96 -2 c 0,4,5
 78 -2 78 -2 61.5 12.5 c 128,-1,6
 45 27 45 27 41 48 c 1,7,-1
 63 686 l 1,0,-1
EndSplineSet
EndChar

StartChar: m
Encoding: 109 109 77
Width: 580
Flags: W
HStem: -4 22G<69 87.5 277.5 294.5 470 480.5> 442 67<126.97 216.232 334.283 426.372> 503 20G<49.5 98>
VStem: 41 72<-3.04297 428.345> 53 45<462 513> 253 70.5<-1.93213 394.245> 457 78<-6.44971 404.195>
LayerCount: 2
Fore
SplineSet
314 396 m 1,0,1
 318 340 318 340 320 263.5 c 128,-1,2
 322 187 322 187 323.5 109 c 128,-1,3
 325 31 325 31 326 3 c 1,4,5
 304 -3 304 -3 285 -3 c 0,6,7
 270 -3 270 -3 257 2 c 1,8,9
 254 41 254 41 253 91 c 128,-1,10
 252 141 252 141 252 179.5 c 128,-1,11
 252 218 252 218 250.5 260 c 128,-1,12
 249 302 249 302 245 332 c 128,-1,13
 241 362 241 362 233 387.5 c 128,-1,14
 225 413 225 413 210.5 427 c 128,-1,15
 196 441 196 441 175 442 c 0,16,17
 154 442 154 442 141 433 c 128,-1,18
 128 424 128 424 113 400 c 1,19,-1
 113 4 l 1,20,21
 98 -4 98 -4 77 -4 c 0,22,23
 61 -4 61 -4 41 1 c 1,24,25
 44 64 44 64 45 249 c 128,-1,26
 46 434 46 434 53 523 c 1,27,-1
 98 513 l 1,28,-1
 101 462 l 1,29,30
 131 509 131 509 177 509 c 0,31,32
 245 509 245 509 292 449 c 1,33,34
 321 509 321 509 386 509 c 0,35,36
 412 509 412 509 431 503 c 0,37,38
 540 472 540 472 540 224 c 0,39,40
 540 188 540 188 537.5 127.5 c 128,-1,41
 535 67 535 67 535 46 c 0,42,43
 535 18 535 18 538 0 c 1,44,45
 486 -14 486 -14 475 -14 c 0,46,47
 465 -14 465 -14 461 -12 c 1,48,49
 457 1 457 1 457 36 c 0,50,51
 457 58 457 58 460 126.5 c 128,-1,52
 463 195 463 195 463 234 c 0,53,54
 463 442 463 442 381 444 c 1,55,56
 362 443 362 443 348 432.5 c 128,-1,57
 334 422 334 422 314 396 c 1,0,1
EndSplineSet
EndChar

StartChar: n
Encoding: 110 110 78
Width: 423
Flags: W
HStem: -4 21G<69 87.5 342 368.5> 442 71<142.579 260.472> 503 20G<49.5 98>
VStem: 41 72<-3.04297 427.967> 53 45<457 513> 303 75.5<1.69165 385.809>
LayerCount: 2
Fore
SplineSet
109 400 m 1,0,-1
 113 4 l 1,1,2
 98 -4 98 -4 77 -4 c 0,3,4
 61 -4 61 -4 41 1 c 1,5,6
 44 64 44 64 45 249 c 128,-1,7
 46 434 46 434 53 523 c 1,8,-1
 98 513 l 1,9,-1
 101 457 l 1,10,11
 154 513 154 513 223 513 c 0,12,13
 258 513 258 513 279 508 c 128,-1,14
 300 503 300 503 319.5 483.5 c 128,-1,15
 339 464 339 464 349 432 c 128,-1,16
 359 400 359 400 367 340.5 c 128,-1,17
 375 281 375 281 378.5 201.5 c 128,-1,18
 382 122 382 122 383 1 c 1,19,20
 377 -1 377 -1 360 -1 c 0,21,22
 324 -1 324 -1 304 8 c 1,23,24
 300 24 300 24 300 61 c 0,25,26
 300 80 300 80 301.5 132.5 c 128,-1,27
 303 185 303 185 303 214 c 0,28,29
 303 262 303 262 299.5 298 c 128,-1,30
 296 334 296 334 286.5 369 c 128,-1,31
 277 404 277 404 257.5 423 c 128,-1,32
 238 442 238 442 209 442 c 0,33,34
 176 442 176 442 157.5 437 c 128,-1,35
 139 432 139 432 131.5 425 c 128,-1,36
 124 418 124 418 109 400 c 1,0,-1
EndSplineSet
EndChar

StartChar: o
Encoding: 111 111 79
Width: 457
Flags: W
HStem: -29 21G<187 258> 511 20G<182.5 253>
VStem: 41 73<115.588 365.101> 351 66<150.204 375.029>
LayerCount: 2
Fore
SplineSet
41 213 m 0,0,1
 41 253 41 253 49.5 302 c 128,-1,2
 58 351 58 351 75 405 c 128,-1,3
 92 459 92 459 126 495 c 128,-1,4
 160 531 160 531 205 531 c 0,5,6
 301 531 301 531 359 444.5 c 128,-1,7
 417 358 417 358 417 252 c 0,8,9
 417 207 417 207 407.5 162.5 c 128,-1,10
 398 118 398 118 378 75 c 128,-1,11
 358 32 358 32 320.5 3.5 c 128,-1,12
 283 -25 283 -25 233 -29 c 1,13,14
 141 -17 141 -17 91 49.5 c 128,-1,15
 41 116 41 116 41 213 c 0,0,1
211 479 m 1,16,17
 176 475 176 475 152 415 c 128,-1,18
 128 355 128 355 121 298.5 c 128,-1,19
 114 242 114 242 114 199 c 0,20,21
 114 143 114 143 148.5 95.5 c 128,-1,22
 183 48 183 48 226 48 c 0,23,24
 257 48 257 48 282 72 c 128,-1,25
 307 96 307 96 321.5 131.5 c 128,-1,26
 336 167 336 167 343.5 203 c 128,-1,27
 351 239 351 239 351 267 c 0,28,29
 351 349 351 349 314 410 c 128,-1,30
 277 471 277 471 211 479 c 1,16,17
EndSplineSet
EndChar

StartChar: p
Encoding: 112 112 80
Width: 454
Flags: W
HStem: -291 21G<87 109> -28 72<146.75 276.198> 459 61<132.287 291.233> 506 20G<52.6871 109>
VStem: 41 90<-277.649 0 61.3022 217.155> 53 56<485.315 516> 339 75<129.211 385.84>
LayerCount: 2
Fore
SplineSet
53 526 m 1,0,-1
 109 516 l 1,1,2
 109 495 109 495 110 485 c 1,3,4
 165 520 165 520 221 520 c 0,5,6
 312 520 312 520 363 442 c 128,-1,7
 414 364 414 364 414 265 c 0,8,9
 414 215 414 215 406.5 169.5 c 128,-1,10
 399 124 399 124 380 76.5 c 128,-1,11
 361 29 361 29 321.5 0.5 c 128,-1,12
 282 -28 282 -28 226 -28 c 0,13,14
 173 -28 173 -28 124 0 c 1,15,16
 128 -175 128 -175 131 -260 c 1,17,18
 122 -291 122 -291 96 -291 c 0,19,20
 78 -291 78 -291 61.5 -276.5 c 128,-1,21
 45 -262 45 -262 41 -241 c 1,22,-1
 53 526 l 1,0,-1
118 420 m 1,23,-1
 121 97 l 1,24,25
 133 73 133 73 158 58.5 c 128,-1,26
 183 44 183 44 213 44 c 0,27,28
 252 44 252 44 279.5 69 c 128,-1,29
 307 94 307 94 318.5 135.5 c 128,-1,30
 330 177 330 177 334.5 213 c 128,-1,31
 339 249 339 249 339 289 c 0,32,33
 339 459 339 459 224 459 c 0,34,35
 187 459 187 459 155.5 448.5 c 128,-1,36
 124 438 124 438 118 420 c 1,23,-1
EndSplineSet
EndChar

StartChar: q
Encoding: 113 113 81
Width: 454
Flags: W
HStem: -28 72<179.472 308.222> 459 61<159.299 322.692> 506 20G<346 401.33>
VStem: 41 75<130.676 393.473> 339 75<-266.404 -3.31299> 346 55<485.315 516>
LayerCount: 2
Fore
SplineSet
346 516 m 1,0,-1
 401 526 l 1,1,-1
 414 -263 l 1,2,3
 382 -279 382 -279 338 -287 c 1,4,5
 339 -264 339 -264 339 -214 c 0,6,7
 339 -106 339 -106 331 0 c 1,8,9
 282 -28 282 -28 228 -28 c 0,10,11
 183 -28 183 -28 149 -9.5 c 128,-1,12
 115 9 115 9 95 37.5 c 128,-1,13
 75 66 75 66 62.5 106.5 c 128,-1,14
 50 147 50 147 45.5 185 c 128,-1,15
 41 223 41 223 41 266 c 0,16,17
 41 326 41 326 59 381.5 c 128,-1,18
 77 437 77 437 122.5 478.5 c 128,-1,19
 168 520 168 520 233 520 c 0,20,21
 290 520 290 520 345 485 c 1,22,23
 346 495 346 495 346 516 c 1,0,-1
334 97 m 1,24,-1
 337 420 l 1,25,26
 331 438 331 438 299.5 448.5 c 128,-1,27
 268 459 268 459 230 459 c 0,28,29
 195 459 195 459 171.5 445.5 c 128,-1,30
 148 432 148 432 136.5 406.5 c 128,-1,31
 125 381 125 381 120.5 353.5 c 128,-1,32
 116 326 116 326 116 289 c 128,-1,33
 116 252 116 252 120 216.5 c 128,-1,34
 124 181 124 181 136 138.5 c 128,-1,35
 148 96 148 96 175 70 c 128,-1,36
 202 44 202 44 242 44 c 0,37,38
 272 44 272 44 297 58.5 c 128,-1,39
 322 73 322 73 334 97 c 1,24,-1
EndSplineSet
EndChar

StartChar: r
Encoding: 114 114 82
Width: 372
Flags: W
HStem: -14 21G<87 109> 440 62<183.514 307.411>
VStem: 41 90<-0.827515 114.084> 75 45<444 511>
LayerCount: 2
Fore
SplineSet
371 381 m 1,0,-1
 327 384 l 1,1,2
 306 440 306 440 256 440 c 0,3,4
 234 440 234 440 209.5 430 c 128,-1,5
 185 420 185 420 169 409.5 c 128,-1,6
 153 399 153 399 127 379 c 1,7,8
 127 365 127 365 126.5 288 c 128,-1,9
 126 211 126 211 127.5 117 c 128,-1,10
 129 23 129 23 131 16 c 1,11,12
 122 -14 122 -14 96 -14 c 0,13,14
 78 -14 78 -14 61.5 0.5 c 128,-1,15
 45 15 45 15 41 36 c 1,16,17
 60 357 60 357 75 521 c 1,18,-1
 120 511 l 1,19,-1
 123 444 l 1,20,21
 193 502 193 502 243 502 c 0,22,23
 298 502 298 502 335.5 477 c 128,-1,24
 373 452 373 452 373 404 c 0,25,26
 373 389 373 389 371 381 c 1,0,-1
EndSplineSet
EndChar

StartChar: s
Encoding: 115 115 83
Width: 388
Flags: W
HStem: -16 69<97.3825 266.029> 482 55<117.544 265.882>
VStem: 38 63<348.304 468.161> 296 72<80.879 184.426>
LayerCount: 2
Fore
SplineSet
349 482 m 1,0,-1
 339 442 l 1,1,2
 242 482 242 482 188 482 c 0,3,4
 140 482 140 482 120.5 467.5 c 128,-1,5
 101 453 101 453 101 406 c 0,6,7
 101 368 101 368 128.5 343 c 128,-1,8
 156 318 156 318 195 303.5 c 128,-1,9
 234 289 234 289 273.5 272.5 c 128,-1,10
 313 256 313 256 340.5 224 c 128,-1,11
 368 192 368 192 368 145 c 0,12,13
 368 81 368 81 321 33 c 128,-1,14
 274 -15 274 -15 199 -16 c 0,15,16
 144 -16 144 -16 96 7 c 128,-1,17
 48 30 48 30 20 65 c 1,18,-1
 49 95 l 1,19,20
 61 90 61 90 84.5 79 c 128,-1,21
 108 68 108 68 118 64.5 c 128,-1,22
 128 61 128 61 147.5 57 c 128,-1,23
 167 53 167 53 189 53 c 0,24,25
 236 53 236 53 266 74 c 128,-1,26
 296 95 296 95 296 133 c 0,27,28
 296 158 296 158 282 175.5 c 128,-1,29
 268 193 268 193 245 204 c 128,-1,30
 222 215 222 215 194.5 225 c 128,-1,31
 167 235 167 235 139.5 247.5 c 128,-1,32
 112 260 112 260 89 277.5 c 128,-1,33
 66 295 66 295 52 325 c 128,-1,34
 38 355 38 355 38 396 c 0,35,36
 38 456 38 456 70.5 496.5 c 128,-1,37
 103 537 103 537 162 537 c 0,38,39
 185 537 185 537 214 530 c 128,-1,40
 243 523 243 523 260 517 c 128,-1,41
 277 511 277 511 310.5 497.5 c 128,-1,42
 344 484 344 484 349 482 c 1,0,-1
EndSplineSet
EndChar

StartChar: t
Encoding: 116 116 84
Width: 372
Flags: W
HStem: -9 68<206.886 349.646> 419 69<6.35913 97 158.819 313.181>
VStem: 96 68<109.885 420.698 490.25 655.249> 110 45<491.427 656>
LayerCount: 2
Fore
SplineSet
314 484 m 1,0,-1
 325 439 l 1,1,2
 298 437 298 437 242 428.5 c 128,-1,3
 186 420 186 420 158 418 c 1,4,5
 163 383 163 383 164 326 c 128,-1,6
 165 269 165 269 166.5 227.5 c 128,-1,7
 168 186 168 186 175.5 144.5 c 128,-1,8
 183 103 183 103 206.5 81 c 128,-1,9
 230 59 230 59 270 59 c 0,10,11
 300 59 300 59 345 73 c 1,12,13
 364 36 364 36 373 19 c 1,14,15
 294 -9 294 -9 213 -9 c 0,16,17
 183 -9 183 -9 161 9 c 128,-1,18
 139 27 139 27 127 54 c 128,-1,19
 115 81 115 81 107.5 122.5 c 128,-1,20
 100 164 100 164 98 201 c 128,-1,21
 96 238 96 238 96 286 c 0,22,23
 96 312 96 312 96.5 358 c 128,-1,24
 97 404 97 404 97 421 c 1,25,26
 87 420 87 420 50 419.5 c 128,-1,27
 13 419 13 419 7 419 c 1,28,29
 0 486 0 486 0 488 c 1,30,31
 7 486 7 486 23 486 c 0,32,33
 32 486 32 486 52 487.5 c 128,-1,34
 72 489 72 489 82 489 c 0,35,36
 86 489 86 489 92.5 488.5 c 128,-1,37
 99 488 99 488 101 488 c 1,38,39
 105 598 105 598 110 667 c 1,40,-1
 155 656 l 1,41,42
 156 632 156 632 156.5 604.5 c 128,-1,43
 157 577 157 577 157.5 543.5 c 128,-1,44
 158 510 158 510 158 492 c 1,45,46
 184 490 184 490 236 488 c 128,-1,47
 288 486 288 486 314 484 c 1,0,-1
EndSplineSet
EndChar

StartChar: u
Encoding: 117 117 85
Width: 450
Flags: W
HStem: -10 73<158.733 300.383> 506 20G<49 102>
VStem: 41 63<131.144 514.967> 57 45<135.645 284.472 445.217 516> 324 62<253.032 493> 328 66.5<84.1844 490.031> 336 74<-3.57617 23.296> 338 48<286.631 493>
LayerCount: 2
Fore
SplineSet
338 502 m 1,0,-1
 386 493 l 1,1,-1
 386 483 l 2,2,3
 386 415 386 415 394.5 253 c 128,-1,4
 403 91 403 91 410 3 c 1,5,6
 390 -5 390 -5 372 -5 c 0,7,8
 356 -5 356 -5 336 0 c 1,9,-1
 328 26 l 1,10,11
 264 -10 264 -10 206 -10 c 0,12,13
 163 -10 163 -10 131.5 10 c 128,-1,14
 100 30 100 30 83 59.5 c 128,-1,15
 66 89 66 89 56 132.5 c 128,-1,16
 46 176 46 176 43.5 211.5 c 128,-1,17
 41 247 41 247 41 291 c 0,18,19
 41 419 41 419 57 526 c 1,20,-1
 102 516 l 1,21,22
 109 483 109 483 109 444 c 0,23,24
 109 422 109 422 106.5 368 c 128,-1,25
 104 314 104 314 104 286 c 0,26,27
 104 237 104 237 108.5 201.5 c 128,-1,28
 113 166 113 166 125.5 132.5 c 128,-1,29
 138 99 138 99 164 81 c 128,-1,30
 190 63 190 63 229 63 c 0,31,32
 273 63 273 63 324 83 c 1,33,34
 326 120 326 120 328 272.5 c 128,-1,35
 330 425 330 425 338 502 c 1,0,-1
EndSplineSet
EndChar

StartChar: v
Encoding: 118 118 86
Width: 379
Flags: W
HStem: -5 21G<176 202.5>
LayerCount: 2
Fore
SplineSet
313 514 m 1,0,-1
 380 505 l 1,1,2
 361 426 361 426 320 264.5 c 128,-1,3
 279 103 279 103 256 2 c 1,4,5
 217 -5 217 -5 188 -5 c 0,6,7
 164 -5 164 -5 143 -1 c 1,8,9
 128 51 128 51 95.5 163.5 c 128,-1,10
 63 276 63 276 40.5 359 c 128,-1,11
 18 442 18 442 0 518 c 1,12,-1
 66 513 l 1,13,-1
 196 97 l 1,14,15
 212 145 212 145 230 205 c 128,-1,16
 248 265 248 265 259 307.5 c 128,-1,17
 270 350 270 350 288 418.5 c 128,-1,18
 306 487 306 487 313 514 c 1,0,-1
EndSplineSet
EndChar

StartChar: w
Encoding: 119 119 87
Width: 596
Flags: W
HStem: -5 25G<176 202.5 393.5 420> 502 20G<225.5 283>
LayerCount: 2
Fore
SplineSet
530 518 m 1,0,-1
 597 509 l 1,1,2
 578 430 578 430 537 268.5 c 128,-1,3
 496 107 496 107 473 6 c 1,4,5
 434 -1 434 -1 406 -1 c 0,6,7
 381 -1 381 -1 360 3 c 1,8,-1
 304 199 l 1,9,-1
 256 2 l 1,10,11
 217 -5 217 -5 188 -5 c 0,12,13
 164 -5 164 -5 143 -1 c 1,14,15
 128 51 128 51 95.5 163.5 c 128,-1,16
 63 276 63 276 40.5 359 c 128,-1,17
 18 442 18 442 0 518 c 1,18,-1
 66 513 l 1,19,-1
 196 97 l 1,20,21
 229 193 229 193 265 334 c 1,22,23
 234 449 234 449 217 522 c 1,24,-1
 283 517 l 1,25,-1
 413 101 l 1,26,27
 429 149 429 149 447 209 c 128,-1,28
 465 269 465 269 476 311.5 c 128,-1,29
 487 354 487 354 505 422.5 c 128,-1,30
 523 491 523 491 530 518 c 1,0,-1
EndSplineSet
EndChar

StartChar: x
Encoding: 120 120 88
Width: 364
Flags: W
HStem: -20 16G<5.6087 52.5 314 348>
LayerCount: 2
Fore
SplineSet
43 -25 m 1,0,-1
 0 -2 l 1,1,2
 26 63 26 63 136 250 c 1,3,4
 78 329 78 329 4 513 c 1,5,-1
 48 513 l 1,6,7
 85 435 85 435 173 310 c 1,8,9
 188 331 188 331 212.5 375 c 128,-1,10
 237 419 237 419 260.5 451 c 128,-1,11
 284 483 284 483 314 507 c 1,12,13
 350 487 350 487 350 460 c 0,14,15
 350 445 350 445 343 431 c 1,16,17
 316 398 316 398 274 327 c 128,-1,18
 232 256 232 256 222 241 c 1,19,20
 328 93 328 93 365 18 c 1,21,22
 365 -20 365 -20 331 -20 c 128,-1,23
 297 -20 297 -20 279 13 c 1,24,25
 261 73 261 73 184 183 c 1,26,27
 167 155 167 155 114.5 81.5 c 128,-1,28
 62 8 62 8 43 -25 c 1,0,-1
EndSplineSet
EndChar

StartChar: y
Encoding: 121 121 89
Width: 437
Flags: W
VStem: 20 58<404.938 516> 359 78<391.309 506.703>
LayerCount: 2
Fore
SplineSet
113 -296 m 1,0,-1
 51 -261 l 1,1,2
 92 -190 92 -190 196 9 c 1,3,4
 115 81 115 81 72 227 c 128,-1,5
 29 373 29 373 20 519 c 1,6,-1
 78 516 l 1,7,8
 83 492 83 492 99.5 406.5 c 128,-1,9
 116 321 116 321 126 280 c 128,-1,10
 136 239 136 239 161.5 177.5 c 128,-1,11
 187 116 187 116 220 74 c 1,12,13
 359 341 359 341 359 512 c 2,14,-1
 359 523 l 1,15,16
 411 515 411 515 437 504 c 1,17,18
 421 399 421 399 387 290 c 128,-1,19
 353 181 353 181 302 70.5 c 128,-1,20
 251 -40 251 -40 211.5 -115 c 128,-1,21
 172 -190 172 -190 113 -296 c 1,0,-1
EndSplineSet
EndChar

StartChar: z
Encoding: 122 122 90
Width: 420
Flags: W
HStem: -7 78<108 417.906> 481 60<27 307.455>
LayerCount: 2
Fore
SplineSet
27 476 m 1,0,-1
 13 536 l 1,1,2
 26 536 26 536 114 538.5 c 128,-1,3
 202 541 202 541 252 541 c 0,4,5
 350 541 350 541 417 532 c 1,6,7
 416 527 416 527 416 518 c 0,8,9
 416 515 416 515 416.5 504.5 c 128,-1,10
 417 494 417 494 417 484 c 1,11,12
 374 407 374 407 262.5 271.5 c 128,-1,13
 151 136 151 136 108 71 c 1,14,15
 141 71 141 71 244 70 c 128,-1,16
 347 69 347 69 416 69 c 1,17,18
 417 60 417 60 418 47.5 c 128,-1,19
 419 35 419 35 420 26 c 128,-1,20
 421 17 421 17 421 9 c 0,21,22
 421 -2 421 -2 420 -9 c 1,23,24
 360 -7 360 -7 3 -7 c 1,25,26
 0 11 0 11 0 22 c 0,27,28
 0 32 0 32 3 59 c 1,29,30
 18 89 18 89 155.5 259 c 128,-1,31
 293 429 293 429 310 479 c 1,32,33
 276 481 276 481 253 481 c 0,34,35
 222 481 222 481 146 478.5 c 128,-1,36
 70 476 70 476 27 476 c 1,0,-1
EndSplineSet
EndChar

StartChar: braceleft
Encoding: 123 123 91
Width: 265
Flags: W
HStem: -103 32<222.781 253.36>
VStem: 22 243
LayerCount: 2
Fore
SplineSet
22 338 m 1,0,-1
 20 390 l 1,1,2
 58 416 58 416 78.5 454.5 c 128,-1,3
 99 493 99 493 103 531.5 c 128,-1,4
 107 570 107 570 113 612.5 c 128,-1,5
 119 655 119 655 127 690 c 128,-1,6
 135 725 135 725 164 755.5 c 128,-1,7
 193 786 193 786 243 801 c 1,8,-1
 258 768 l 1,9,10
 213 758 213 758 190.5 717.5 c 128,-1,11
 168 677 168 677 163.5 624.5 c 128,-1,12
 159 572 159 572 155.5 519 c 128,-1,13
 152 466 152 466 134.5 422.5 c 128,-1,14
 117 379 117 379 80 365 c 1,15,16
 120 327 120 327 139.5 269.5 c 128,-1,17
 159 212 159 212 163 157.5 c 128,-1,18
 167 103 167 103 172.5 53 c 128,-1,19
 178 3 178 3 199.5 -31 c 128,-1,20
 221 -65 221 -65 265 -71 c 1,21,-1
 250 -103 l 1,22,23
 192 -93 192 -93 162.5 -54.5 c 128,-1,24
 133 -16 133 -16 125.5 36.5 c 128,-1,25
 118 89 118 89 113.5 144.5 c 128,-1,26
 109 200 109 200 88 254 c 128,-1,27
 67 308 67 308 22 338 c 1,0,-1
EndSplineSet
EndChar

StartChar: bar
Encoding: 124 124 92
Width: 172
Flags: W
VStem: 41 90<-84.8275 188.848> 63 46<568.536 778>
LayerCount: 2
Fore
SplineSet
63 788 m 1,0,-1
 109 778 l 1,1,2
 113 701 113 701 118.5 354 c 128,-1,3
 124 7 124 7 131 -68 c 1,4,5
 122 -98 122 -98 96 -98 c 0,6,7
 78 -98 78 -98 61.5 -83.5 c 128,-1,8
 45 -69 45 -69 41 -48 c 0,9,10
 41 -45 41 -45 41.5 -38 c 128,-1,11
 42 -31 42 -31 42.5 -11 c 128,-1,12
 43 9 43 9 44 39 c 0,13,14
 63 571 63 571 63 748 c 2,15,-1
 63 788 l 1,0,-1
EndSplineSet
EndChar

StartChar: braceright
Encoding: 125 125 93
Width: 265
Flags: W
HStem: -103 32<11.64 42.2188>
VStem: 0 245
LayerCount: 2
Fore
SplineSet
245 390 m 1,0,-1
 244 338 l 1,1,2
 199 308 199 308 178 254 c 128,-1,3
 157 200 157 200 152 144.5 c 128,-1,4
 147 89 147 89 139.5 36.5 c 128,-1,5
 132 -16 132 -16 102.5 -54.5 c 128,-1,6
 73 -93 73 -93 15 -103 c 1,7,-1
 0 -71 l 1,8,9
 44 -65 44 -65 65.5 -31 c 128,-1,10
 87 3 87 3 92.5 53 c 128,-1,11
 98 103 98 103 102 157.5 c 128,-1,12
 106 212 106 212 125.5 269.5 c 128,-1,13
 145 327 145 327 185 365 c 1,14,15
 148 379 148 379 130.5 422.5 c 128,-1,16
 113 466 113 466 109.5 519 c 128,-1,17
 106 572 106 572 101.5 624.5 c 128,-1,18
 97 677 97 677 74.5 717.5 c 128,-1,19
 52 758 52 758 7 768 c 1,20,-1
 23 801 l 1,21,22
 82 783 82 783 111 744.5 c 128,-1,23
 140 706 140 706 146.5 659.5 c 128,-1,24
 153 613 153 613 156.5 565 c 128,-1,25
 160 517 160 517 180 468.5 c 128,-1,26
 200 420 200 420 245 390 c 1,0,-1
EndSplineSet
EndChar

StartChar: quotesinglbase
Encoding: 8218 8218 94
Width: 208
Flags: W
HStem: -120 32<42 75.8047> 1 124<60.6519 108.564>
VStem: 48 97<9.5 110.294> 113 55<-61.8301 2.5636>
LayerCount: 2
Fore
SplineSet
42 -120 m 1,0,-1
 41 -88 l 1,1,2
 113 -63 113 -63 113 -20 c 0,3,4
 113 -13 113 -13 109 3 c 1,5,6
 95 1 95 1 89 1 c 0,7,8
 70 1 70 1 59 26.5 c 128,-1,9
 48 52 48 52 48 76 c 0,10,11
 48 98 48 98 57.5 111.5 c 128,-1,12
 67 125 67 125 84 125 c 0,13,14
 122 125 122 125 145 81 c 128,-1,15
 168 37 168 37 168 -7 c 0,16,17
 168 -54 168 -54 136.5 -85.5 c 128,-1,18
 105 -117 105 -117 42 -120 c 1,0,-1
EndSplineSet
EndChar

StartChar: quotedblbase
Encoding: 8222 8222 95
Width: 399
Flags: W
HStem: -120 32<42 75.8047 232 277.586> 1 124<60.6519 108.564 248.993 298.565>
VStem: 48 97<9.5 110.294> 113 55<-61.8301 2.5636> 303 55<-69.5484 -3.43652>
LayerCount: 2
Fore
SplineSet
42 -120 m 1,0,-1
 41 -88 l 1,1,2
 113 -63 113 -63 113 -20 c 0,3,4
 113 -13 113 -13 109 3 c 1,5,6
 95 1 95 1 89 1 c 0,7,8
 70 1 70 1 59 26.5 c 128,-1,9
 48 52 48 52 48 76 c 0,10,11
 48 98 48 98 57.5 111.5 c 128,-1,12
 67 125 67 125 84 125 c 0,13,14
 122 125 122 125 145 81 c 128,-1,15
 168 37 168 37 168 -7 c 0,16,17
 168 -54 168 -54 136.5 -85.5 c 128,-1,18
 105 -117 105 -117 42 -120 c 1,0,-1
232 -126 m 1,19,-1
 231 -94 l 1,20,21
 268 -82 268 -82 285.5 -66 c 128,-1,22
 303 -50 303 -50 303 -27 c 0,23,24
 303 -19 303 -19 299 -3 c 1,25,26
 285 -5 285 -5 280 -5 c 0,27,28
 261 -5 261 -5 250 20.5 c 128,-1,29
 239 46 239 46 239 70 c 0,30,31
 239 92 239 92 248 105.5 c 128,-1,32
 257 119 257 119 274 119 c 0,33,34
 312 119 312 119 335 75 c 128,-1,35
 358 31 358 31 358 -13 c 0,36,37
 358 -60 358 -60 326.5 -91.5 c 128,-1,38
 295 -123 295 -123 232 -126 c 1,19,-1
EndSplineSet
EndChar

StartChar: quoteright
Encoding: 8217 8217 96
Width: 167
Flags: W
HStem: 542 31<22 53.2109>
VStem: 92 55<599.278 664.751>
LayerCount: 2
Fore
SplineSet
22 542 m 1,0,-1
 20 573 l 1,1,2
 92 598 92 598 92 641 c 0,3,4
 92 649 92 649 88 665 c 1,5,6
 74 663 74 663 69 663 c 0,7,8
 50 663 50 663 39 688.5 c 128,-1,9
 28 714 28 714 28 737 c 0,10,11
 28 759 28 759 37 772.5 c 128,-1,12
 46 786 46 786 63 786 c 0,13,14
 101 786 101 786 124 742 c 128,-1,15
 147 698 147 698 147 654 c 0,16,17
 147 607 147 607 116 576 c 128,-1,18
 85 545 85 545 22 542 c 1,0,-1
EndSplineSet
EndChar

StartChar: quotedblright
Encoding: 8221 8221 97
Width: 358
Flags: W
HStem: 548 32<22 56.5859 212 256.264> 669 124<40.6562 87.5647 227.993 278.564>
VStem: 92 55<604.064 670.066> 218 97<671.875 771.294> 283 55<599.278 664.751>
LayerCount: 2
Fore
SplineSet
22 548 m 1,0,-1
 20 580 l 1,1,2
 57 592 57 592 74.5 608 c 128,-1,3
 92 624 92 624 92 647 c 0,4,5
 92 655 92 655 88 671 c 1,6,7
 74 669 74 669 69 669 c 0,8,9
 50 669 50 669 39 694.5 c 128,-1,10
 28 720 28 720 28 743 c 0,11,12
 28 765 28 765 37 779 c 128,-1,13
 46 793 46 793 63 793 c 0,14,15
 101 793 101 793 124 748.5 c 128,-1,16
 147 704 147 704 147 660 c 0,17,18
 147 613 147 613 116 582 c 128,-1,19
 85 551 85 551 22 548 c 1,0,-1
212 542 m 1,20,-1
 211 573 l 1,21,22
 283 598 283 598 283 641 c 0,23,24
 283 649 283 649 279 665 c 1,25,26
 265 663 265 663 259 663 c 0,27,28
 240 663 240 663 229 688.5 c 128,-1,29
 218 714 218 714 218 737 c 0,30,31
 218 759 218 759 227.5 772.5 c 128,-1,32
 237 786 237 786 254 786 c 0,33,34
 292 786 292 786 315 742 c 128,-1,35
 338 698 338 698 338 654 c 0,36,37
 338 607 338 607 306.5 576 c 128,-1,38
 275 545 275 545 212 542 c 1,20,-1
EndSplineSet
EndChar

StartChar: endash
Encoding: 8211 8211 98
Width: 644
Flags: W
HStem: 297 71<295.967 612.654> 302 54<28 515.634>
LayerCount: 2
Fore
SplineSet
28 302 m 1,0,-1
 20 356 l 1,1,2
 182 358 182 358 292.5 361.5 c 128,-1,3
 403 365 403 365 572 368 c 1,4,5
 595 367 595 367 609.5 355 c 128,-1,6
 624 343 624 343 624 329 c 0,7,8
 624 317 624 317 613 308 c 128,-1,9
 602 299 602 299 580 297 c 1,10,11
 449 297 449 297 328.5 299.5 c 128,-1,12
 208 302 208 302 28 302 c 1,0,-1
EndSplineSet
EndChar

StartChar: emdash
Encoding: 8212 8212 99
Width: 921
Flags: W
HStem: 294 71<475.062 889.654> 302 54<28 597.771>
LayerCount: 2
Fore
SplineSet
28 302 m 1,0,-1
 20 356 l 1,1,2
 119 357 119 357 379.5 359 c 128,-1,3
 640 361 640 361 850 365 c 1,4,5
 873 364 873 364 887 352 c 128,-1,6
 901 340 901 340 901 326 c 0,7,8
 901 314 901 314 890 305 c 128,-1,9
 879 296 879 296 857 294 c 1,10,11
 726 294 726 294 467 298 c 128,-1,12
 208 302 208 302 28 302 c 1,0,-1
EndSplineSet
EndChar

StartChar: afii10023
Encoding: 1025 1025 100
Width: 468
Flags: W
HStem: 0 75<135.166 361.35> 0 45<220.017 422> 340 87<137 370.983> 638 85<127 381.5> 827 126<110.018 173.92 324.018 387.92>
VStem: 93 100<850.721 934.11> 307 100<850.721 934.11>
LayerCount: 2
Fore
SplineSet
422 45 m 1,0,-1
 432 0 l 1,1,-1
 414 0 l 2,2,3
 387 0 387 0 289 -3.5 c 128,-1,4
 191 -7 191 -7 142 -7 c 0,5,6
 68 -7 68 -7 41 0 c 1,7,8
 51 110 51 110 53 368 c 128,-1,9
 55 626 55 626 66 728 c 1,10,11
 100 725 100 725 246.5 723 c 128,-1,12
 393 721 393 721 438 714 c 1,13,-1
 449 669 l 1,14,15
 404 661 404 661 269 650 c 128,-1,16
 134 639 134 639 127 638 c 1,17,18
 128 615 128 615 131.5 544 c 128,-1,19
 135 473 135 473 136 427 c 1,20,21
 170 423 170 423 260 415.5 c 128,-1,22
 350 408 350 408 374 406 c 1,23,-1
 384 360 l 1,24,25
 173 341 173 341 137 340 c 1,26,27
 137 296 137 296 135.5 206.5 c 128,-1,28
 134 117 134 117 134 75 c 1,29,30
 363 54 363 54 422 45 c 1,0,-1
129 953 m 0,31,32
 156 953 156 953 174.5 930 c 128,-1,33
 193 907 193 907 193 877 c 0,34,35
 193 855 193 855 182.5 841 c 128,-1,36
 172 827 172 827 154 827 c 0,37,38
 126 827 126 827 109.5 850 c 128,-1,39
 93 873 93 873 93 904 c 0,40,41
 93 926 93 926 102.5 939.5 c 128,-1,42
 112 953 112 953 129 953 c 0,31,32
343 953 m 0,43,44
 370 953 370 953 388.5 930 c 128,-1,45
 407 907 407 907 407 877 c 0,46,47
 407 855 407 855 396.5 841 c 128,-1,48
 386 827 386 827 368 827 c 0,49,50
 340 827 340 827 323.5 850 c 128,-1,51
 307 873 307 873 307 904 c 0,52,53
 307 926 307 926 316.5 939.5 c 128,-1,54
 326 953 326 953 343 953 c 0,43,44
EndSplineSet
EndChar

StartChar: guillemotleft
Encoding: 171 171 101
Width: 543
Flags: W
HStem: 6 31<404.449 422.237>
LayerCount: 2
Fore
SplineSet
433 37 m 1,0,-1
 419 6 l 1,1,2
 241 51 241 51 3 210 c 1,3,4
 0 216 0 216 0 224 c 0,5,6
 0 235 0 235 4 239 c 1,7,8
 75 287 75 287 212.5 371.5 c 128,-1,9
 350 456 350 456 391 478 c 1,10,-1
 418 461 l 1,11,12
 222 310 222 310 84 233 c 1,13,14
 201 143 201 143 433 37 c 1,0,-1
544 122 m 1,15,-1
 516 100 l 1,16,17
 510 103 510 103 432.5 133 c 128,-1,18
 355 163 355 163 305 186.5 c 128,-1,19
 255 210 255 210 227 232 c 1,20,21
 323 284 323 284 363 306 c 128,-1,22
 403 328 403 328 446 354.5 c 128,-1,23
 489 381 489 381 507 397 c 1,24,-1
 529 377 l 1,25,26
 407 276 407 276 322 236 c 1,27,28
 346 216 346 216 426.5 181 c 128,-1,29
 507 146 507 146 544 122 c 1,15,-1
EndSplineSet
EndChar

StartChar: afii10071
Encoding: 1105 1105 102
Width: 453
Flags: W
HStem: -2 72<150.998 336.285> 53 44<380.531 444> 456 67<190.724 310.945> 591 126<97.2968 159.866 303.297 365.866>
VStem: 41 60<129.208 252.891 311 364.248> 80 99<607.106 698.359> 286 99<607.106 698.359>
LayerCount: 2
Fore
SplineSet
444 97 m 1,0,-1
 454 53 l 1,1,2
 410 37 410 37 323.5 17.5 c 128,-1,3
 237 -2 237 -2 195 -2 c 0,4,5
 152 -2 152 -2 120 26.5 c 128,-1,6
 88 55 88 55 72 99.5 c 128,-1,7
 56 144 56 144 48.5 187.5 c 128,-1,8
 41 231 41 231 41 273 c 0,9,10
 41 523 41 523 267 523 c 0,11,12
 321 523 321 523 362 488.5 c 128,-1,13
 403 454 403 454 403 399 c 0,14,15
 403 369 403 369 386.5 346 c 128,-1,16
 370 323 370 323 346.5 309.5 c 128,-1,17
 323 296 323 296 286.5 285 c 128,-1,18
 250 274 250 274 222 269 c 128,-1,19
 194 264 194 264 155 258 c 128,-1,20
 116 252 116 252 101 249 c 1,21,22
 104 214 104 214 106.5 194 c 128,-1,23
 109 174 109 174 117 147 c 128,-1,24
 125 120 125 120 137 105.5 c 128,-1,25
 149 91 149 91 170 80.5 c 128,-1,26
 191 70 191 70 221 70 c 0,27,28
 257 70 257 70 309 76.5 c 128,-1,29
 361 83 361 83 401.5 90 c 128,-1,30
 442 97 442 97 444 97 c 1,0,-1
105 311 m 1,31,32
 241 350 241 350 328 393 c 1,33,34
 321 426 321 426 309 441 c 128,-1,35
 297 456 297 456 273 456 c 0,36,37
 212 456 212 456 162.5 414 c 128,-1,38
 113 372 113 372 105 311 c 1,31,32
116 717 m 0,39,40
 143 717 143 717 161 693.5 c 128,-1,41
 179 670 179 670 179 640 c 0,42,43
 179 618 179 618 168.5 604.5 c 128,-1,44
 158 591 158 591 140 591 c 0,45,46
 112 591 112 591 96 615 c 128,-1,47
 80 639 80 639 80 668 c 0,48,49
 80 690 80 690 89.5 703.5 c 128,-1,50
 99 717 99 717 116 717 c 0,39,40
322 717 m 0,51,52
 349 717 349 717 367 693.5 c 128,-1,53
 385 670 385 670 385 640 c 0,54,55
 385 618 385 618 374.5 604.5 c 128,-1,56
 364 591 364 591 346 591 c 0,57,58
 318 591 318 591 302 615 c 128,-1,59
 286 639 286 639 286 668 c 0,60,61
 286 690 286 690 295.5 703.5 c 128,-1,62
 305 717 305 717 322 717 c 0,51,52
EndSplineSet
EndChar

StartChar: guillemotright
Encoding: 187 187 103
Width: 543
Flags: W
HStem: 6 31<121.763 139.551>
LayerCount: 2
Fore
SplineSet
125 6 m 1,0,-1
 111 37 l 1,1,2
 343 143 343 143 460 233 c 1,3,4
 322 310 322 310 126 461 c 1,5,-1
 153 478 l 1,6,7
 194 456 194 456 331.5 371.5 c 128,-1,8
 469 287 469 287 540 239 c 1,9,10
 544 235 544 235 544 224 c 0,11,12
 544 216 544 216 541 210 c 1,13,14
 303 51 303 51 125 6 c 1,0,-1
28 100 m 1,15,-1
 0 122 l 1,16,17
 37 146 37 146 117.5 181 c 128,-1,18
 198 216 198 216 222 236 c 1,19,20
 135 277 135 277 14 377 c 1,21,-1
 37 397 l 1,22,23
 75 362 75 362 316 232 c 1,24,25
 288 210 288 210 238.5 187 c 128,-1,26
 189 164 189 164 111 133 c 128,-1,27
 33 102 33 102 28 100 c 1,15,-1
EndSplineSet
EndChar

StartChar: afii10017
Encoding: 1040 1040 104
Width: 538
Flags: W
HStem: -26 20G<40.5 60.5 497.5 511.5> 221 48<157 328.625>
VStem: 464 75<-12.0433 85.479>
LayerCount: 2
Fore
SplineSet
233 725 m 1,0,-1
 309 720 l 1,1,2
 337 596 337 596 424 369.5 c 128,-1,3
 511 143 511 143 539 31 c 1,4,5
 539 2 539 2 529 -12.5 c 128,-1,6
 519 -27 519 -27 504 -27 c 0,7,8
 491 -27 491 -27 479.5 -16.5 c 128,-1,9
 468 -6 468 -6 464 13 c 0,10,11
 455 57 455 57 406 189 c 1,12,13
 200 215 200 215 147 221 c 1,14,15
 134 185 134 185 115 104 c 128,-1,16
 96 23 96 23 85 -8 c 1,17,18
 70 -26 70 -26 51 -26 c 0,19,20
 30 -26 30 -26 15 -7.5 c 128,-1,21
 0 11 0 11 0 38 c 1,22,23
 32 155 32 155 116 382 c 128,-1,24
 200 609 200 609 233 725 c 1,0,-1
268 624 m 1,25,26
 248 503 248 503 157 269 c 1,27,-1
 269 269 l 2,28,29
 345 269 345 269 396 264 c 1,30,31
 293 485 293 485 268 624 c 1,25,26
EndSplineSet
EndChar

StartChar: afii10018
Encoding: 1041 1041 105
Width: 477
Flags: W
HStem: -4 69<133.256 277.835> 402 51<122.873 282.44> 672 59<122.601 385.399> 680 51<165.574 387>
VStem: 47 74<80.3481 398.045 439 600.625> 57 64<497.562 666.26> 376 81<157.463 310.781>
LayerCount: 2
Fore
SplineSet
399 731 m 1,0,-1
 387 680 l 1,1,2
 336 676 336 676 254 672 c 128,-1,3
 172 668 172 668 121 665 c 1,4,-1
 121 439 l 1,5,6
 172 453 172 453 214 453 c 0,7,8
 325 453 325 453 391 379.5 c 128,-1,9
 457 306 457 306 457 193 c 0,10,11
 457 130 457 130 407 83.5 c 128,-1,12
 357 37 357 37 290.5 16.5 c 128,-1,13
 224 -4 224 -4 156 -4 c 0,14,15
 73 -4 73 -4 41 26 c 1,16,17
 44 112 44 112 47 361 c 128,-1,18
 50 610 50 610 57 731 c 1,19,-1
 399 731 l 1,0,-1
122 394 m 0,20,21
 122 393 122 393 122 371 c 128,-1,22
 122 349 122 349 121.5 281 c 128,-1,23
 121 213 121 213 121 99 c 1,24,25
 151 65 151 65 198 65 c 0,26,27
 260 65 260 65 318 116.5 c 128,-1,28
 376 168 376 168 376 227 c 0,29,30
 376 305 376 305 321.5 353.5 c 128,-1,31
 267 402 267 402 186 402 c 0,32,33
 159 402 159 402 122 394 c 0,20,21
EndSplineSet
EndChar

StartChar: afii10019
Encoding: 1042 1042 106
Width: 497
Flags: W
HStem: -4 69<133.256 277.835> 382 69<123.85 263.016> 708 59<118.843 262.21>
VStem: 41 80<80.3481 379.292 450 702.832> 316 80<504.445 653.118> 376 81<157.463 309.854>
LayerCount: 2
Fore
SplineSet
41 26 m 1,0,-1
 46 730 l 1,1,2
 57 767 57 767 132 767 c 0,3,4
 201 767 201 767 259 748.5 c 128,-1,5
 317 730 317 730 356.5 686.5 c 128,-1,6
 396 643 396 643 396 582 c 0,7,8
 396 534 396 534 372.5 489 c 128,-1,9
 349 444 349 444 315 431 c 1,10,11
 379 422 379 422 418 354 c 128,-1,12
 457 286 457 286 457 193 c 0,13,14
 457 130 457 130 407 83.5 c 128,-1,15
 357 37 357 37 290.5 16.5 c 128,-1,16
 224 -4 224 -4 156 -4 c 0,17,18
 73 -4 73 -4 41 26 c 1,0,-1
123 376 m 1,19,20
 123 307 123 307 121 99 c 1,21,22
 151 65 151 65 198 65 c 0,23,24
 260 65 260 65 318 116.5 c 128,-1,25
 376 168 376 168 376 227 c 0,26,27
 376 300 376 300 327 341 c 128,-1,28
 278 382 278 382 201 382 c 0,29,30
 150 382 150 382 123 376 c 1,19,20
121 450 m 1,31,-1
 183 451 l 1,32,33
 247 451 247 451 281.5 488.5 c 128,-1,34
 316 526 316 526 316 578 c 0,35,36
 316 631 316 631 281 669.5 c 128,-1,37
 246 708 246 708 184 708 c 0,38,39
 156 708 156 708 118 696 c 1,40,41
 120 635 120 635 120.5 545 c 128,-1,42
 121 455 121 455 121 450 c 1,31,-1
EndSplineSet
EndChar

StartChar: afii10020
Encoding: 1043 1043 107
Width: 430
Flags: W
HStem: -25 21G<87 109> 651 68<122 359.617>
VStem: 41 90<-11.3733 284.323> 55 71<381.22 653.156>
LayerCount: 2
Fore
SplineSet
420 716 m 1,0,-1
 430 671 l 1,1,2
 386 668 386 668 276 661.5 c 128,-1,3
 166 655 166 655 122 651 c 1,4,5
 125 556 125 556 126 333 c 128,-1,6
 127 110 127 110 131 6 c 1,7,8
 122 -25 122 -25 96 -25 c 0,9,10
 78 -25 78 -25 61.5 -10 c 128,-1,11
 45 5 45 5 41 26 c 1,12,13
 52 152 52 152 55 615 c 0,14,15
 55 632 55 632 55.5 667 c 128,-1,16
 56 702 56 702 56 722 c 1,17,18
 110 719 110 719 165 719 c 0,19,20
 187 719 187 719 231 719.5 c 128,-1,21
 275 720 275 720 297 720 c 0,22,23
 365 720 365 720 420 716 c 1,0,-1
EndSplineSet
EndChar

StartChar: afii10021
Encoding: 1044 1044 108
Width: 563
Flags: W
HStem: 12 69<147 385.188> 659 55<224.914 390.128>
VStem: 20 43<-136 -0.875> 140 77<264.896 650.581> 389 88<84.7227 291.288> 389 66<509.712 658.5> 494 45<-118 -73.0596>
LayerCount: 2
Fore
SplineSet
539 -128 m 1,0,-1
 494 -118 l 1,1,2
 485 -42 485 -42 463 6 c 1,3,4
 380 12 380 12 297 12 c 0,5,6
 226 12 226 12 86 6 c 1,7,8
 80 -15 80 -15 63 -140 c 1,9,-1
 20 -136 l 1,10,11
 0 -29 0 -29 0 48 c 0,12,13
 0 52 0 52 0.5 62 c 128,-1,14
 1 72 1 72 1 77 c 1,15,16
 2 77 2 77 34 77.5 c 128,-1,17
 66 78 66 78 67 78 c 0,18,19
 93 131 93 131 109.5 192.5 c 128,-1,20
 126 254 126 254 132 324.5 c 128,-1,21
 138 395 138 395 140 448.5 c 128,-1,22
 142 502 142 502 142 585 c 128,-1,23
 142 668 142 668 143 709 c 1,24,25
 213 714 213 714 455 714 c 1,26,-1
 477 87 l 1,27,28
 493 85 493 85 510 84 c 128,-1,29
 527 83 527 83 543 82 c 1,30,31
 540 61 540 61 540 30 c 0,32,33
 540 14 540 14 541 -20.5 c 128,-1,34
 542 -55 542 -55 542 -72 c 0,35,36
 542 -106 542 -106 539 -128 c 1,0,-1
147 84 m 1,37,38
 174 84 174 84 228 82.5 c 128,-1,39
 282 81 282 81 308 81 c 0,40,41
 346 81 346 81 387 84 c 1,42,43
 389 147 389 147 389 281 c 2,44,-1
 389 480 l 2,45,46
 389 599 389 599 391 657 c 1,47,48
 363 659 363 659 349 659 c 0,49,50
 326 659 326 659 282.5 656 c 128,-1,51
 239 653 239 653 224 652 c 1,52,53
 221 607 221 607 217 510.5 c 128,-1,54
 213 414 213 414 209 361 c 128,-1,55
 205 308 205 308 189.5 229.5 c 128,-1,56
 174 151 174 151 147 84 c 1,37,38
EndSplineSet
EndChar

StartChar: afii10022
Encoding: 1045 1045 109
Width: 448
Flags: W
HStem: -7 82<135.166 361.35> -7 52<220.017 422> 340 87<137 370.983> 638 85<127 381.5>
LayerCount: 2
Fore
SplineSet
422 45 m 1,0,-1
 432 0 l 1,1,2
 393 0 393 0 290.5 -3.5 c 128,-1,3
 188 -7 188 -7 142 -7 c 0,4,5
 68 -7 68 -7 41 0 c 1,6,7
 51 110 51 110 53 368 c 128,-1,8
 55 626 55 626 66 728 c 1,9,10
 100 725 100 725 246.5 723 c 128,-1,11
 393 721 393 721 438 714 c 1,12,-1
 449 669 l 1,13,14
 404 661 404 661 269 650 c 128,-1,15
 134 639 134 639 127 638 c 1,16,17
 128 615 128 615 131.5 544 c 128,-1,18
 135 473 135 473 136 427 c 1,19,20
 170 423 170 423 260 415.5 c 128,-1,21
 350 408 350 408 374 406 c 1,22,-1
 384 360 l 1,23,24
 173 341 173 341 137 340 c 1,25,26
 137 296 137 296 135.5 206.5 c 128,-1,27
 134 117 134 117 134 75 c 1,28,29
 363 54 363 54 422 45 c 1,0,-1
EndSplineSet
EndChar

StartChar: afii10024
Encoding: 1046 1046 110
Width: 844
Flags: W
HStem: -25 42<-16.9248 109.621 735.092 861.925> -9 38<-17.5659 59.0891 784.942 862.566> 307 138<343.667 382 463 501.333> 696 40<-10.792 60.9214 783.11 855.792> 707 45<-11.6088 113.797 730.041 856.609>
VStem: 379 90<-11.3733 299.302> 395 55.5<446.172 722>
LayerCount: 2
Fore
SplineSet
382 307 m 1,0,1
 343 307 343 307 315 282.5 c 128,-1,2
 287 258 287 258 272.5 221 c 128,-1,3
 258 184 258 184 241.5 141 c 128,-1,4
 225 98 225 98 208.5 61 c 128,-1,5
 192 24 192 24 159.5 -0.5 c 128,-1,6
 127 -25 127 -25 81 -25 c 0,7,8
 33 -25 33 -25 -20 -9 c 1,9,-1
 -17 29 l 1,10,11
 31 17 31 17 60 17 c 0,12,13
 91 17 91 17 113 41 c 128,-1,14
 135 65 135 65 146.5 101 c 128,-1,15
 158 137 158 137 174 181.5 c 128,-1,16
 190 226 190 226 207.5 266 c 128,-1,17
 225 306 225 306 260 338 c 128,-1,18
 295 370 295 370 343 381 c 1,19,20
 289 394 289 394 252 432.5 c 128,-1,21
 215 471 215 471 196 516 c 128,-1,22
 177 561 177 561 160.5 605 c 128,-1,23
 144 649 144 649 120 678 c 128,-1,24
 96 707 96 707 61 707 c 0,25,26
 59 707 59 707 -9 696 c 1,27,-1
 -19 736 l 1,28,29
 67 752 67 752 96 752 c 0,30,31
 141 752 141 752 173.5 720.5 c 128,-1,32
 206 689 206 689 226 644 c 128,-1,33
 246 599 246 599 265.5 554 c 128,-1,34
 285 509 285 509 315.5 477.5 c 128,-1,35
 346 446 346 446 389 445 c 1,36,-1
 395 732 l 1,37,-1
 445 722 l 1,38,39
 446 684 446 684 450.5 583 c 128,-1,40
 455 482 455 482 456 445 c 1,41,42
 499 446 499 446 529.5 477.5 c 128,-1,43
 560 509 560 509 579.5 554 c 128,-1,44
 599 599 599 599 619 644 c 128,-1,45
 639 689 639 689 671.5 720.5 c 128,-1,46
 704 752 704 752 749 752 c 0,47,48
 778 752 778 752 864 736 c 1,49,-1
 854 696 l 1,50,51
 786 707 786 707 783 707 c 0,52,53
 748 707 748 707 724 678 c 128,-1,54
 700 649 700 649 684 605 c 128,-1,55
 668 561 668 561 649 516 c 128,-1,56
 630 471 630 471 593 432.5 c 128,-1,57
 556 394 556 394 502 381 c 1,58,59
 550 370 550 370 585 338 c 128,-1,60
 620 306 620 306 637 266 c 128,-1,61
 654 226 654 226 670 181.5 c 128,-1,62
 686 137 686 137 698 101 c 128,-1,63
 710 65 710 65 731.5 41 c 128,-1,64
 753 17 753 17 784 17 c 0,65,66
 814 17 814 17 862 29 c 1,67,-1
 865 -9 l 1,68,69
 812 -25 812 -25 764 -25 c 0,70,71
 718 -25 718 -25 685.5 -0.5 c 128,-1,72
 653 24 653 24 636.5 61 c 128,-1,73
 620 98 620 98 603.5 141 c 128,-1,74
 587 184 587 184 572.5 221 c 128,-1,75
 558 258 558 258 530 282.5 c 128,-1,76
 502 307 502 307 463 307 c 1,77,-1
 469 6 l 1,78,79
 460 -25 460 -25 434 -25 c 0,80,81
 416 -25 416 -25 399.5 -10 c 128,-1,82
 383 5 383 5 379 26 c 1,83,84
 381 59 381 59 382 307 c 1,0,1
EndSplineSet
EndChar

StartChar: afii10025
Encoding: 1047 1047 111
Width: 464
Flags: W
HStem: -8 63<133.605 301.561> 368 73<132.39 178.621> 659 71<117.969 285.207>
VStem: 318 74<486.164 627.497> 349 75<104.206 293.922>
LayerCount: 2
Fore
SplineSet
58 626 m 1,0,-1
 27 659 l 1,1,2
 134 730 134 730 222 730 c 0,3,4
 298 730 298 730 345 675.5 c 128,-1,5
 392 621 392 621 392 541 c 0,6,7
 392 441 392 441 324 400 c 1,8,9
 374 392 374 392 399 340.5 c 128,-1,10
 424 289 424 289 424 218 c 0,11,12
 424 110 424 110 378 51 c 128,-1,13
 332 -8 332 -8 225 -8 c 0,14,15
 153 -8 153 -8 89.5 24 c 128,-1,16
 26 56 26 56 0 116 c 1,17,18
 5 120 5 120 7 124 c 128,-1,19
 9 128 9 128 10 130 c 128,-1,20
 11 132 11 132 15.5 135.5 c 128,-1,21
 20 139 20 139 30 144 c 1,22,23
 74 104 74 104 128 79.5 c 128,-1,24
 182 55 182 55 230 55 c 0,25,26
 284 55 284 55 316.5 90.5 c 128,-1,27
 349 126 349 126 349 200 c 0,28,29
 349 276 349 276 306 323 c 128,-1,30
 263 370 263 370 179 370 c 0,31,32
 167 370 167 370 137 368 c 1,33,34
 136 374 136 374 132.5 390 c 128,-1,35
 129 406 129 406 124 441 c 1,36,37
 135 442 135 442 164 443.5 c 128,-1,38
 193 445 193 445 205 446.5 c 128,-1,39
 217 448 217 448 239.5 452.5 c 128,-1,40
 262 457 262 457 272.5 465 c 128,-1,41
 283 473 283 473 295.5 485.5 c 128,-1,42
 308 498 308 498 313 518 c 128,-1,43
 318 538 318 538 318 565 c 0,44,45
 318 614 318 614 285.5 636.5 c 128,-1,46
 253 659 253 659 199 659 c 0,47,48
 127 659 127 659 58 626 c 1,0,-1
EndSplineSet
EndChar

StartChar: afii10026
Encoding: 1048 1048 112
Width: 527
Flags: W
HStem: -25 31G<87 109 443 464.5> 724 20G<414 432>
VStem: 41 90<-11.3733 118.161 174 431.203> 56 45<521.494 723> 396 90<-1.39209 272.34> 399.5 79<98.5898 545>
LayerCount: 2
Fore
SplineSet
56 733 m 1,0,-1
 101 723 l 1,1,2
 111 558 111 558 124 174 c 1,3,4
 319 521 319 521 392 732 c 1,5,6
 407 744 407 744 421 744 c 0,7,8
 443 744 443 744 457.5 718 c 128,-1,9
 472 692 472 692 473 659 c 0,10,11
 476 566 476 566 478.5 345 c 128,-1,12
 481 124 481 124 486 15 c 1,13,14
 477 -15 477 -15 452 -15 c 0,15,16
 434 -15 434 -15 417 -0.5 c 128,-1,17
 400 14 400 14 396 35 c 1,18,19
 399 122 399 122 399.5 302 c 128,-1,20
 400 482 400 482 401 545 c 1,21,22
 379 507 379 507 324 401 c 128,-1,23
 269 295 269 295 222.5 219 c 128,-1,24
 176 143 176 143 127 87 c 1,25,-1
 131 6 l 1,26,27
 122 -25 122 -25 96 -25 c 0,28,29
 78 -25 78 -25 61.5 -10 c 128,-1,30
 45 5 45 5 41 26 c 1,31,32
 44 111 44 111 47 359 c 128,-1,33
 50 607 50 607 56 733 c 1,0,-1
EndSplineSet
EndChar

StartChar: afii10027
Encoding: 1049 1049 113
Width: 527
Flags: W
HStem: -25 31G<87 109 443 464.5> 724 20G<414 432> 799 41<147.98 282.238>
VStem: 41 90<-11.3733 118.161 174 431.203> 56 45<521.494 723> 396 90<-1.39209 272.34> 399.5 79<98.5898 545>
LayerCount: 2
Fore
SplineSet
148 811 m 1,0,-1
 141 843 l 1,1,2
 165 840 165 840 188 840 c 0,3,4
 257 840 257 840 315 878 c 1,5,6
 338 876 338 876 354.5 864 c 128,-1,7
 371 852 371 852 371 836 c 0,8,9
 371 799 371 799 272 799 c 0,10,11
 203 799 203 799 148 811 c 1,0,-1
56 733 m 1,12,-1
 101 723 l 1,13,14
 111 558 111 558 124 174 c 1,15,16
 319 521 319 521 392 732 c 1,17,18
 407 744 407 744 421 744 c 0,19,20
 443 744 443 744 457.5 718 c 128,-1,21
 472 692 472 692 473 659 c 0,22,23
 476 566 476 566 478.5 345 c 128,-1,24
 481 124 481 124 486 15 c 1,25,26
 477 -15 477 -15 452 -15 c 0,27,28
 434 -15 434 -15 417 -0.5 c 128,-1,29
 400 14 400 14 396 35 c 1,30,31
 399 122 399 122 399.5 302 c 128,-1,32
 400 482 400 482 401 545 c 1,33,34
 379 507 379 507 324 401 c 128,-1,35
 269 295 269 295 222.5 219 c 128,-1,36
 176 143 176 143 127 87 c 1,37,-1
 131 6 l 1,38,39
 122 -25 122 -25 96 -25 c 0,40,41
 78 -25 78 -25 61.5 -10 c 128,-1,42
 45 5 45 5 41 26 c 1,43,44
 44 111 44 111 47 359 c 128,-1,45
 50 607 50 607 56 733 c 1,12,-1
EndSplineSet
EndChar

StartChar: afii10028
Encoding: 1050 1050 114
Width: 523
Flags: W
HStem: -32 42<393.092 519.925> 699 45<388.041 514.778>
VStem: 41 90<-11.3733 216.739> 57 45<582.749 722>
LayerCount: 2
Fore
SplineSet
520 22 m 1,0,-1
 523 -16 l 1,1,2
 470 -32 470 -32 422 -32 c 0,3,4
 376 -32 376 -32 343.5 -7.5 c 128,-1,5
 311 17 311 17 294.5 54 c 128,-1,6
 278 91 278 91 261.5 134 c 128,-1,7
 245 177 245 177 230.5 214 c 128,-1,8
 216 251 216 251 188 275.5 c 128,-1,9
 160 300 160 300 121 300 c 1,10,-1
 131 6 l 1,11,12
 122 -25 122 -25 96 -25 c 0,13,14
 78 -25 78 -25 61.5 -10 c 128,-1,15
 45 5 45 5 41 26 c 1,16,17
 42 47 42 47 48 364.5 c 128,-1,18
 54 682 54 682 57 732 c 1,19,-1
 102 722 l 1,20,21
 103 684 103 684 108 579.5 c 128,-1,22
 113 475 113 475 114 438 c 1,23,24
 157 439 157 439 187.5 470.5 c 128,-1,25
 218 502 218 502 237.5 547 c 128,-1,26
 257 592 257 592 277 636.5 c 128,-1,27
 297 681 297 681 329.5 712.5 c 128,-1,28
 362 744 362 744 407 744 c 0,29,30
 441 744 441 744 522 729 c 1,31,-1
 512 689 l 1,32,33
 450 699 450 699 441 699 c 0,34,35
 406 699 406 699 382 670 c 128,-1,36
 358 641 358 641 342 597.5 c 128,-1,37
 326 554 326 554 307 508.5 c 128,-1,38
 288 463 288 463 251 425 c 128,-1,39
 214 387 214 387 160 374 c 1,40,41
 208 363 208 363 243 331 c 128,-1,42
 278 299 278 299 295 259 c 128,-1,43
 312 219 312 219 328 174.5 c 128,-1,44
 344 130 344 130 356 94 c 128,-1,45
 368 58 368 58 389.5 34 c 128,-1,46
 411 10 411 10 442 10 c 0,47,48
 472 10 472 10 520 22 c 1,0,-1
EndSplineSet
EndChar

StartChar: afii10029
Encoding: 1051 1051 115
Width: 528
Flags: W
HStem: 646 70<223.976 395.617>
VStem: 394 81<17.3848 646.828> 397 90<-20.3921 256.807>
LayerCount: 2
Fore
SplineSet
-53 -94 m 1,0,-1
 -82 -42 l 1,1,2
 -27 -5 -27 -5 12 43.5 c 128,-1,3
 51 92 51 92 73 140.5 c 128,-1,4
 95 189 95 189 108 251 c 128,-1,5
 121 313 121 313 124.5 365.5 c 128,-1,6
 128 418 128 418 128 487 c 0,7,8
 128 523 128 523 130.5 598.5 c 128,-1,9
 133 674 133 674 133 714 c 1,10,11
 162 719 162 719 222 719 c 0,12,13
 247 719 247 719 298 717.5 c 128,-1,14
 349 716 349 716 375 716 c 0,15,16
 423 716 423 716 463 720 c 1,17,18
 475 653 475 653 475 510 c 0,19,20
 475 472 475 472 474 390.5 c 128,-1,21
 473 309 473 309 473 267 c 0,22,23
 473 103 473 103 487 -3 c 1,24,25
 478 -34 478 -34 453 -34 c 0,26,27
 435 -34 435 -34 418 -19.5 c 128,-1,28
 401 -5 401 -5 397 16 c 1,29,30
 399 94 399 94 399 135 c 0,31,32
 399 193 399 193 396.5 317 c 128,-1,33
 394 441 394 441 394 509 c 0,34,35
 394 601 394 601 396 646 c 1,36,37
 372 648 372 648 313 649 c 128,-1,38
 254 650 254 650 223 654 c 1,39,40
 214 602 214 602 208.5 518.5 c 128,-1,41
 203 435 203 435 199.5 370.5 c 128,-1,42
 196 306 196 306 181.5 228.5 c 128,-1,43
 167 151 167 151 142.5 94 c 128,-1,44
 118 37 118 37 68.5 -14.5 c 128,-1,45
 19 -66 19 -66 -53 -94 c 1,0,-1
EndSplineSet
EndChar

StartChar: afii10030
Encoding: 1052 1052 116
Width: 736
Flags: W
HStem: 0 14G<0 123 632.5 736>
VStem: 0 62<5.30632 77.2002> 313 101<186 250.766>
LayerCount: 2
Fore
SplineSet
736 0 m 1,0,-1
 660 -7 l 1,1,2
 605 338 605 338 541 584 c 1,3,4
 508 506 508 506 468.5 364.5 c 128,-1,5
 429 223 429 223 414 181 c 1,6,7
 412 181 412 181 407.5 180.5 c 128,-1,8
 403 180 403 180 400 180 c 0,9,10
 386 180 386 180 354 183 c 128,-1,11
 322 186 322 186 313 186 c 1,12,13
 312 215 312 215 262 379.5 c 128,-1,14
 212 544 212 544 202 590 c 1,15,16
 184 428 184 428 62 0 c 1,17,-1
 0 6 l 1,18,19
 14 115 14 115 69 349 c 128,-1,20
 124 583 124 583 134 711 c 1,21,22
 152 713 152 713 163 713 c 0,23,24
 173 713 173 713 237 705 c 0,25,26
 251 703 251 703 277.5 614.5 c 128,-1,27
 304 526 304 526 331 420 c 128,-1,28
 358 314 358 314 365 295 c 1,29,30
 393 364 393 364 432.5 519 c 128,-1,31
 472 674 472 674 488 716 c 1,32,33
 504 715 504 715 589 707 c 1,34,35
 615 606 615 606 639.5 489 c 128,-1,36
 664 372 664 372 692.5 223 c 128,-1,37
 721 74 721 74 736 0 c 1,0,-1
EndSplineSet
EndChar

StartChar: afii10031
Encoding: 1053 1053 117
Width: 480
Flags: W
HStem: -23 21G<87 109 395 417> 333 60<117 231.519> 340.5 67<267.402 348.018>
VStem: 41 90<-9.37329 161.5> 46.5 70.5<82.908 334 393 600.816> 56 46<517.493 721> 349 90<-9.37329 265.357> 349 58<505.405 719> 350 79.5<92.5859 345 414.002 586.666>
LayerCount: 2
Fore
SplineSet
349 719 m 1,0,-1
 407 731 l 1,1,2
 425 590 425 590 429.5 339.5 c 128,-1,3
 434 89 434 89 439 8 c 1,4,5
 430 -23 430 -23 404 -23 c 0,6,7
 386 -23 386 -23 369.5 -8 c 128,-1,8
 353 7 353 7 349 28 c 1,9,10
 350 64 350 64 350 148 c 2,11,-1
 350 345 l 1,12,13
 328 344 328 344 288.5 340.5 c 128,-1,14
 249 337 249 337 216.5 335 c 128,-1,15
 184 333 184 333 155 333 c 0,16,17
 129 333 129 333 117 334 c 1,18,19
 119 273 119 273 124 161.5 c 128,-1,20
 129 50 129 50 131 8 c 1,21,22
 122 -23 122 -23 96 -23 c 0,23,24
 78 -23 78 -23 61.5 -8 c 128,-1,25
 45 7 45 7 41 28 c 1,26,27
 44 114 44 114 46.5 362 c 128,-1,28
 49 610 49 610 56 731 c 1,29,-1
 101 721 l 1,30,31
 101 718 101 718 101.5 711.5 c 128,-1,32
 102 705 102 705 102 701 c 0,33,34
 115 455 115 455 117 393 c 1,35,36
 151 396 151 396 189.5 399.5 c 128,-1,37
 228 403 228 403 274.5 407.5 c 128,-1,38
 321 412 321 412 347 414 c 0,39,40
 348 414 348 414 348 424 c 128,-1,41
 348 434 348 434 348.5 505 c 128,-1,42
 349 576 349 576 349 719 c 1,0,-1
EndSplineSet
EndChar

StartChar: afii10032
Encoding: 1054 1054 118
Width: 536
Flags: W
HStem: -12 66<203.51 342.282> 681 72<197.371 316.201>
VStem: 42 76<163.502 545.839> 424 72<171.8 503.83>
LayerCount: 2
Fore
SplineSet
42 335 m 0,0,1
 42 369 42 369 42 386.5 c 128,-1,2
 42 404 42 404 43.5 440 c 128,-1,3
 45 476 45 476 47.5 497 c 128,-1,4
 50 518 50 518 55 551.5 c 128,-1,5
 60 585 60 585 68 605.5 c 128,-1,6
 76 626 76 626 86.5 652 c 128,-1,7
 97 678 97 678 113 694 c 128,-1,8
 129 710 129 710 148 724.5 c 128,-1,9
 167 739 167 739 193 746 c 128,-1,10
 219 753 219 753 250 753 c 0,11,12
 312 753 312 753 358 728.5 c 128,-1,13
 404 704 404 704 430 667 c 128,-1,14
 456 630 456 630 471.5 576 c 128,-1,15
 487 522 487 522 491.5 473 c 128,-1,16
 496 424 496 424 496 365 c 0,17,18
 496 325 496 325 494.5 293 c 128,-1,19
 493 261 493 261 488.5 220.5 c 128,-1,20
 484 180 484 180 475.5 149 c 128,-1,21
 467 118 467 118 452 86.5 c 128,-1,22
 437 55 437 55 416.5 34.5 c 128,-1,23
 396 14 396 14 365 1 c 128,-1,24
 334 -12 334 -12 296 -12 c 0,25,26
 234 -12 234 -12 189.5 3 c 128,-1,27
 145 18 145 18 116.5 45 c 128,-1,28
 88 72 88 72 71.5 116 c 128,-1,29
 55 160 55 160 48.5 212 c 128,-1,30
 42 264 42 264 42 335 c 0,0,1
424 327 m 0,31,32
 424 376 424 376 416.5 429 c 128,-1,33
 409 482 409 482 391.5 543 c 128,-1,34
 374 604 374 604 336 642.5 c 128,-1,35
 298 681 298 681 245 681 c 0,36,37
 205 681 205 681 174.5 627.5 c 128,-1,38
 144 574 144 574 131 507.5 c 128,-1,39
 118 441 118 441 118 382 c 0,40,41
 118 341 118 341 118.5 319.5 c 128,-1,42
 119 298 119 298 122 258.5 c 128,-1,43
 125 219 125 219 130.5 196 c 128,-1,44
 136 173 136 173 148 143 c 128,-1,45
 160 113 160 113 176.5 96.5 c 128,-1,46
 193 80 193 80 219.5 67.5 c 128,-1,47
 246 55 246 55 279 54 c 1,48,49
 352 58 352 58 388 136 c 128,-1,50
 424 214 424 214 424 327 c 0,31,32
EndSplineSet
EndChar

StartChar: afii10033
Encoding: 1055 1055 119
Width: 480
Flags: W
HStem: -23 21G<87 109 395 417> 654 77<114.818 339>
VStem: 41 90<-9.37329 262.16> 46.5 75<118.376 606.196> 56 58<504.598 656> 344 85.5<103.48 592.543> 349 90<-9.37329 265.357>
LayerCount: 2
Fore
SplineSet
56 731 m 1,0,-1
 407 731 l 1,1,2
 425 590 425 590 429.5 339.5 c 128,-1,3
 434 89 434 89 439 8 c 1,4,5
 430 -23 430 -23 404 -23 c 0,6,7
 386 -23 386 -23 369.5 -8 c 128,-1,8
 353 7 353 7 349 28 c 1,9,10
 349 109 349 109 344 357.5 c 128,-1,11
 339 606 339 606 339 660 c 1,12,13
 317 660 317 660 267.5 657 c 128,-1,14
 218 654 218 654 188 654 c 0,15,16
 140 654 140 654 114 656 c 1,17,18
 114 653 114 653 121.5 363 c 128,-1,19
 129 73 129 73 131 8 c 1,20,21
 122 -23 122 -23 96 -23 c 0,22,23
 78 -23 78 -23 61.5 -8 c 128,-1,24
 45 7 45 7 41 28 c 1,25,26
 44 114 44 114 46.5 362 c 128,-1,27
 49 610 49 610 56 731 c 1,0,-1
EndSplineSet
EndChar

StartChar: afii10034
Encoding: 1056 1056 120
Width: 525
Flags: W
HStem: 211 74<137.067 327.695> 675 57<152.948 315.182>
VStem: 41 90<-21.6494 220.699> 47.5 75.5<17.6638 223 303.311 518.311> 57 45<694.132 718> 412 72<372.944 563.506>
LayerCount: 2
Fore
SplineSet
57 718 m 1,0,-1
 102 730 l 1,1,2
 102 698 102 698 103 694 c 1,3,4
 160 732 160 732 263 732 c 0,5,6
 374 732 374 732 429 662.5 c 128,-1,7
 484 593 484 593 484 468 c 0,8,9
 484 357 484 357 430 284 c 128,-1,10
 376 211 376 211 267 211 c 0,11,12
 249 211 249 211 123 223 c 1,13,14
 125 150 125 150 131 -4 c 1,15,16
 122 -35 122 -35 96 -35 c 0,17,18
 78 -35 78 -35 61.5 -20.5 c 128,-1,19
 45 -6 45 -6 41 15 c 1,20,21
 44 99 44 99 47.5 342 c 128,-1,22
 51 585 51 585 57 718 c 1,0,-1
112 627 m 1,23,-1
 120 315 l 1,24,25
 175 285 175 285 247 285 c 0,26,27
 316 285 316 285 364 337 c 128,-1,28
 412 389 412 389 412 464 c 0,29,30
 412 545 412 545 362 610 c 128,-1,31
 312 675 312 675 237 675 c 0,32,33
 176 675 176 675 112 627 c 1,23,-1
EndSplineSet
EndChar

StartChar: afii10035
Encoding: 1057 1057 121
Width: 540
Flags: W
HStem: -46 84<235.323 397.515> 672 58<221.44 398.57>
VStem: 41 79<199.668 525.889>
LayerCount: 2
Fore
SplineSet
499 660 m 1,0,-1
 459 614 l 1,1,2
 381 672 381 672 305 672 c 0,3,4
 255 672 255 672 219 648 c 128,-1,5
 183 624 183 624 164.5 590 c 128,-1,6
 146 556 146 556 135.5 504 c 128,-1,7
 125 452 125 452 122.5 414 c 128,-1,8
 120 376 120 376 120 325 c 0,9,10
 120 275 120 275 138.5 211.5 c 128,-1,11
 157 148 157 148 201 93 c 128,-1,12
 245 38 245 38 303 38 c 0,13,14
 366 38 366 38 496 104 c 1,15,16
 509 85 509 85 530 41 c 1,17,18
 404 -46 404 -46 305 -46 c 0,19,20
 241 -46 241 -46 188 -7 c 128,-1,21
 135 32 135 32 104.5 92 c 128,-1,22
 74 152 74 152 57.5 217.5 c 128,-1,23
 41 283 41 283 41 342 c 0,24,25
 41 407 41 407 51 468.5 c 128,-1,26
 61 530 61 530 85 592 c 128,-1,27
 109 654 109 654 157.5 692 c 128,-1,28
 206 730 206 730 273 730 c 0,29,30
 331 730 331 730 393 710 c 128,-1,31
 455 690 455 690 499 660 c 1,0,-1
EndSplineSet
EndChar

StartChar: afii10036
Encoding: 1058 1058 122
Width: 441
Flags: W
HStem: -15 21G<227 248.5> 657 81<257.537 366.803> 671 45<10 124.463>
VStem: 181 89<-2.08008 270.234> 181 52<442.625 657>
LayerCount: 2
Fore
SplineSet
10 671 m 1,0,-1
 0 716 l 1,1,-1
 382 738 l 1,2,3
 407 737 407 737 424 720 c 128,-1,4
 441 703 441 703 441 683 c 0,5,6
 441 670 441 670 431 660 c 128,-1,7
 421 650 421 650 401 648 c 1,8,-1
 233 657 l 1,9,10
 258 304 258 304 270 15 c 1,11,12
 261 -15 261 -15 236 -15 c 0,13,14
 218 -15 218 -15 201 -0.5 c 128,-1,15
 184 14 184 14 180 35 c 1,16,17
 182 89 182 89 182 199 c 0,18,19
 182 240 182 240 181.5 322 c 128,-1,20
 181 404 181 404 181 445 c 0,21,22
 181 564 181 564 185 660 c 1,23,24
 72 668 72 668 10 671 c 1,0,-1
EndSplineSet
EndChar

StartChar: afii10037
Encoding: 1059 1059 123
Width: 491
Flags: W
HStem: -32 21G<85 179>
LayerCount: 2
Fore
SplineSet
0 682 m 1,0,-1
 52 731 l 1,1,2
 97 657 97 657 166 503 c 128,-1,3
 235 349 235 349 260 300 c 1,4,5
 360 557 360 557 411 710 c 1,6,7
 424 734 424 734 444 734 c 0,8,9
 462 734 462 734 476 716.5 c 128,-1,10
 490 699 490 699 492 676 c 1,11,12
 458 603 458 603 384.5 438.5 c 128,-1,13
 311 274 311 274 259.5 169.5 c 128,-1,14
 208 65 208 65 150 -32 c 1,15,-1
 85 -19 l 1,16,-1
 214 234 l 1,17,18
 178 333 178 333 0 682 c 1,0,-1
EndSplineSet
EndChar

StartChar: afii10038
Encoding: 1060 1060 124
Width: 764
Flags: W
HStem: 40 65<209.806 337.969 427 557.795> 612 53<236.128 350 404 528.134> 724 20G<352 397>
VStem: 20 67<230.096 455.596> 337 90<-20.6494 44 108 365.761> 351 50<397.129 612 663.041 734> 679 65<229.455 457.793>
LayerCount: 2
Fore
SplineSet
340 108 m 1,0,1
 342 174 342 174 344.5 349.5 c 128,-1,2
 347 525 347 525 350 613 c 1,3,-1
 341 613 l 2,4,5
 233 613 233 613 160 534 c 128,-1,6
 87 455 87 455 87 343 c 0,7,8
 87 236 87 236 149 170.5 c 128,-1,9
 211 105 211 105 322 105 c 0,10,11
 332 105 332 105 340 108 c 1,0,1
397 734 m 1,12,-1
 401 663 l 1,13,14
 425 665 425 665 438 665 c 0,15,16
 559 665 559 665 651.5 586 c 128,-1,17
 744 507 744 507 744 386 c 1,18,19
 743 323 743 323 731 266 c 128,-1,20
 719 209 719 209 692.5 156 c 128,-1,21
 666 103 666 103 616 71.5 c 128,-1,22
 566 40 566 40 498 40 c 0,23,24
 484 40 484 40 459 42 c 128,-1,25
 434 44 434 44 427 44 c 1,26,-1
 427 -3 l 1,27,28
 418 -34 418 -34 392 -34 c 0,29,30
 374 -34 374 -34 357.5 -19.5 c 128,-1,31
 341 -5 341 -5 337 16 c 1,32,-1
 338 44 l 1,33,34
 331 44 331 44 306 42 c 128,-1,35
 281 40 281 40 267 40 c 0,36,37
 202 40 202 40 153 69.5 c 128,-1,38
 104 99 104 99 75.5 149 c 128,-1,39
 47 199 47 199 33.5 259 c 128,-1,40
 20 319 20 319 20 386 c 0,41,42
 20 503 20 503 108 583.5 c 128,-1,43
 196 664 196 664 312 664 c 0,44,45
 325 664 325 664 351 660 c 1,46,47
 352 664 352 664 352 678 c 0,48,49
 352 684 352 684 351.5 700.5 c 128,-1,50
 351 717 351 717 351 725 c 0,51,52
 351 729 351 729 351.5 735 c 128,-1,53
 352 741 352 741 352 744 c 1,54,-1
 397 734 l 1,12,-1
420 612 m 2,55,-1
 404 612 l 1,56,57
 413 439 413 439 423 108 c 1,58,-1
 435 108 l 1,59,60
 566 109 566 109 622.5 167.5 c 128,-1,61
 679 226 679 226 679 343 c 0,62,63
 679 459 679 459 605.5 535.5 c 128,-1,64
 532 612 532 612 420 612 c 2,55,-1
EndSplineSet
EndChar

StartChar: afii10039
Encoding: 1061 1061 125
Width: 558
Flags: W
HStem: -17 29G<3.90909 61.5 507 531.5> 724 20G<468.5 489>
LayerCount: 2
Fore
SplineSet
43 -9 m 1,0,-1
 0 13 l 1,1,2
 26 74 26 74 59.5 132.5 c 128,-1,3
 93 191 93 191 151.5 280.5 c 128,-1,4
 210 370 210 370 224 392 c 1,5,6
 199 431 199 431 121.5 542.5 c 128,-1,7
 44 654 44 654 6 717 c 1,8,-1
 48 736 l 1,9,10
 133 637 133 637 261 451 c 1,11,12
 266 470 266 470 348.5 584 c 128,-1,13
 431 698 431 698 443 719 c 0,14,15
 458 744 458 744 479 744 c 0,16,17
 499 744 499 744 515 726.5 c 128,-1,18
 531 709 531 709 532 686 c 1,19,20
 526 679 526 679 428.5 543 c 128,-1,21
 331 407 331 407 307 379 c 1,22,23
 341 326 341 326 437 195.5 c 128,-1,24
 533 65 533 65 558 22 c 1,25,26
 558 3 558 3 548.5 -7 c 128,-1,27
 539 -17 539 -17 524 -17 c 0,28,29
 490 -17 490 -17 472 16 c 1,30,-1
 267 322 l 1,31,32
 236 272 236 272 158 162 c 128,-1,33
 80 52 80 52 43 -9 c 1,0,-1
EndSplineSet
EndChar

StartChar: afii10040
Encoding: 1062 1062 126
Width: 537
Flags: W
HStem: -8 66<124.065 351.802>
VStem: 41 82<61 260.782> 51 63.5<158.733 622.124> 61 45<508.262 723> 355 73.5<78 316.077> 368.5 56.5<187.215 632.815> 381 45<520.691 723> 455 46<-134 -3.60107>
LayerCount: 2
Fore
SplineSet
501 -134 m 1,0,-1
 455 -134 l 1,1,2
 450 -116 450 -116 432 0 c 1,3,4
 361 -8 361 -8 207 -8 c 0,5,6
 86 -8 86 -8 41 -3 c 1,7,8
 44 105 44 105 51 365 c 128,-1,9
 58 625 58 625 61 733 c 1,10,-1
 106 723 l 1,11,12
 109 618 109 618 114.5 389.5 c 128,-1,13
 120 161 120 161 123 61 c 1,14,15
 168 61 168 61 201 59.5 c 128,-1,16
 234 58 234 58 236 58 c 0,17,18
 252 58 252 58 355 75 c 1,19,20
 359 183 359 183 368.5 409.5 c 128,-1,21
 378 636 378 636 381 733 c 1,22,-1
 426 723 l 1,23,24
 425 652 425 652 425 510 c 0,25,26
 425 318 425 318 428 109 c 0,27,28
 428 104 428 104 428.5 93.5 c 128,-1,29
 429 83 429 83 429 78 c 1,30,31
 441 78 441 78 470 76.5 c 128,-1,32
 499 75 499 75 517 75 c 1,33,34
 517 71 517 71 512.5 -11 c 128,-1,35
 508 -93 508 -93 501 -134 c 1,0,-1
EndSplineSet
EndChar

StartChar: afii10041
Encoding: 1063 1063 127
Width: 470
Flags: W
HStem: -9 21G<385 407> 300 78<168.104 329.301>
VStem: 41 60<465.761 716.429> 339 90<4.35059 280.596> 345 72.5<125.147 317 397.805 607.428>
LayerCount: 2
Fore
SplineSet
358 713 m 1,0,-1
 403 702 l 1,1,2
 407 651 407 651 417.5 364.5 c 128,-1,3
 428 78 428 78 429 22 c 1,4,5
 420 -9 420 -9 394 -9 c 0,6,7
 376 -9 376 -9 359.5 5.5 c 128,-1,8
 343 20 343 20 339 41 c 1,9,10
 340 58 340 58 345 317 c 1,11,12
 283 300 283 300 237 300 c 0,13,14
 140 300 140 300 90.5 366.5 c 128,-1,15
 41 433 41 433 41 557 c 0,16,17
 41 634 41 634 59 725 c 1,18,-1
 104 715 l 1,19,20
 101 668 101 668 101 627 c 0,21,22
 101 378 101 378 236 378 c 0,23,24
 281 378 281 378 347 408 c 1,25,26
 352 616 352 616 358 713 c 1,0,-1
EndSplineSet
EndChar

StartChar: afii10042
Encoding: 1064 1064 128
Width: 643
Flags: W
HStem: -11 67<123 274.565>
VStem: 41 82<56 255.782> 51 63.5<153.733 617.124> 61 45<503.262 718> 281 87<68 320.309> 294 65.5<167.095 621.266> 306 45<514.202 716> 525 77<75 322.374> 538.5 56.5<187.215 632.815> 551 45<520.691 723>
LayerCount: 2
Fore
SplineSet
551 733 m 1,0,-1
 596 723 l 1,1,2
 595 649 595 649 595 526 c 0,3,4
 595 358 595 358 598.5 211 c 128,-1,5
 602 64 602 64 602 41 c 2,6,-1
 602 0 l 1,7,8
 497 -11 497 -11 193 -11 c 0,9,10
 70 -11 70 -11 41 -8 c 1,11,12
 44 100 44 100 51 360 c 128,-1,13
 58 620 58 620 61 728 c 1,14,-1
 106 718 l 1,15,16
 109 613 109 613 114.5 384.5 c 128,-1,17
 120 156 120 156 123 56 c 1,18,-1
 281 63 l 1,19,20
 285 173 285 173 294 402 c 128,-1,21
 303 631 303 631 306 726 c 1,22,-1
 351 716 l 1,23,24
 354 612 354 612 359.5 389 c 128,-1,25
 365 166 365 166 368 68 c 1,26,27
 396 70 396 70 525 75 c 1,28,29
 529 183 529 183 538.5 409.5 c 128,-1,30
 548 636 548 636 551 733 c 1,0,-1
EndSplineSet
EndChar

StartChar: afii10043
Encoding: 1065 1065 129
Width: 707
Flags: W
HStem: -11 67<123 274.565>
VStem: 41 82<56 255.782> 51 63.5<153.733 617.124> 61 45<503.262 718> 281 87<68 320.309> 294 65.5<167.095 621.266> 306 45<514.202 716> 525 73.5<78 316.077> 538.5 56.5<187.215 632.815> 551 45<520.691 723> 625 46<-134 -3.60107>
LayerCount: 2
Fore
SplineSet
671 -134 m 1,0,-1
 625 -134 l 1,1,2
 620 -116 620 -116 602 0 c 1,3,4
 497 -11 497 -11 193 -11 c 0,5,6
 70 -11 70 -11 41 -8 c 1,7,8
 44 100 44 100 51 360 c 128,-1,9
 58 620 58 620 61 728 c 1,10,-1
 106 718 l 1,11,12
 109 613 109 613 114.5 384.5 c 128,-1,13
 120 156 120 156 123 56 c 1,14,-1
 281 63 l 1,15,16
 285 173 285 173 294 402 c 128,-1,17
 303 631 303 631 306 726 c 1,18,-1
 351 716 l 1,19,20
 354 612 354 612 359.5 389 c 128,-1,21
 365 166 365 166 368 68 c 1,22,23
 443 75 443 75 525 75 c 1,24,25
 529 183 529 183 538.5 409.5 c 128,-1,26
 548 636 548 636 551 733 c 1,27,-1
 596 723 l 1,28,29
 595 614 595 614 595 450 c 0,30,31
 595 328 595 328 598 109 c 0,32,33
 598 104 598 104 598.5 93.5 c 128,-1,34
 599 83 599 83 599 78 c 1,35,36
 611 78 611 78 640 76.5 c 128,-1,37
 669 75 669 75 687 75 c 1,38,39
 687 71 687 71 682.5 -11 c 128,-1,40
 678 -93 678 -93 671 -134 c 1,0,-1
EndSplineSet
EndChar

StartChar: afii10044
Encoding: 1066 1066 130
Width: 599
Flags: W
HStem: -22 80<233.999 444.463> 355 75<223 393.427> 649 84.5<103.892 156.602> 720 20G<173 206>
VStem: 146 87<64.4072 316.218> 151 72<111.375 353.663 426 649> 495 84<107.147 266.75>
LayerCount: 2
Fore
SplineSet
-6 671 m 1,0,-1
 -20 731 l 1,1,2
 1 732 1 732 72.5 733.5 c 128,-1,3
 144 735 144 735 202 740 c 1,4,5
 210 608 210 608 218 426 c 1,6,7
 245 430 245 430 279 430 c 0,8,9
 411 430 411 430 495 355.5 c 128,-1,10
 579 281 579 281 579 181 c 0,11,12
 579 -22 579 -22 328 -22 c 0,13,14
 263 -22 263 -22 208.5 -12 c 128,-1,15
 154 -2 154 -2 146 13 c 1,16,17
 149 105 149 105 151 323 c 128,-1,18
 153 541 153 541 157 649 c 1,19,-1
 -6 671 l 1,0,-1
223 351 m 1,20,21
 230 138 230 138 233 67 c 1,22,23
 302 58 302 58 354 58 c 0,24,25
 495 58 495 58 495 191 c 0,26,27
 495 260 495 260 435.5 307.5 c 128,-1,28
 376 355 376 355 279 355 c 0,29,30
 248 355 248 355 223 351 c 1,20,21
EndSplineSet
EndChar

StartChar: afii10045
Encoding: 1067 1067 131
Width: 700
Flags: W
HStem: -22 80<129.534 338.639> 355 75<118 287.427>
VStem: 41 87<64.4072 318.585> 55 45<520.876 725> 389 84<107.147 266.75> 589 45<516.75 718>
LayerCount: 2
Fore
SplineSet
55 735 m 1,0,-1
 100 725 l 1,1,2
 101 706 101 706 113 426 c 1,3,4
 140 430 140 430 173 430 c 0,5,6
 305 430 305 430 389 355.5 c 128,-1,7
 473 281 473 281 473 181 c 0,8,9
 473 -22 473 -22 222 -22 c 0,10,11
 157 -22 157 -22 103 -12 c 128,-1,12
 49 -2 49 -2 41 13 c 1,13,14
 44 97 44 97 46 353.5 c 128,-1,15
 48 610 48 610 55 735 c 1,0,-1
118 351 m 1,16,17
 125 138 125 138 128 67 c 1,18,19
 197 58 197 58 249 58 c 0,20,21
 389 58 389 58 389 191 c 0,22,23
 389 260 389 260 329.5 307.5 c 128,-1,24
 270 355 270 355 173 355 c 0,25,26
 143 355 143 355 118 351 c 1,16,17
589 728 m 1,27,-1
 634 718 l 1,28,29
 637 671 637 671 659 10 c 1,30,31
 650 -20 650 -20 625 -20 c 0,32,33
 607 -20 607 -20 590 -5.5 c 128,-1,34
 573 9 573 9 569 30 c 1,35,36
 571 102 571 102 576.5 348 c 128,-1,37
 582 594 582 594 589 728 c 1,27,-1
EndSplineSet
EndChar

StartChar: afii10046
Encoding: 1068 1068 132
Width: 493
Flags: W
HStem: -22 80<129.534 338.639> 355 75<118 287.427>
VStem: 41 87<64.4072 318.585> 55 45<520.876 725> 389 84<107.147 266.75>
LayerCount: 2
Fore
SplineSet
55 735 m 1,0,-1
 100 725 l 1,1,2
 101 706 101 706 113 426 c 1,3,4
 140 430 140 430 173 430 c 0,5,6
 305 430 305 430 389 355.5 c 128,-1,7
 473 281 473 281 473 181 c 0,8,9
 473 -22 473 -22 222 -22 c 0,10,11
 157 -22 157 -22 103 -12 c 128,-1,12
 49 -2 49 -2 41 13 c 1,13,14
 44 97 44 97 46 353.5 c 128,-1,15
 48 610 48 610 55 735 c 1,0,-1
118 351 m 1,16,17
 125 138 125 138 128 67 c 1,18,19
 197 58 197 58 249 58 c 0,20,21
 389 58 389 58 389 191 c 0,22,23
 389 260 389 260 329.5 307.5 c 128,-1,24
 270 355 270 355 173 355 c 0,25,26
 143 355 143 355 118 351 c 1,16,17
EndSplineSet
EndChar

StartChar: afii10047
Encoding: 1069 1069 133
Width: 530
Flags: W
HStem: -46 84<133.054 292.404> 329 87.5<217.096 410> 672 58<132.05 304.803>
VStem: 412 77<196.467 527.375>
LayerCount: 2
Fore
SplineSet
410 416 m 1,0,1
 404 543 404 543 352.5 607.5 c 128,-1,2
 301 672 301 672 224 672 c 0,3,4
 150 672 150 672 72 614 c 1,5,-1
 32 660 l 1,6,7
 76 690 76 690 137.5 710 c 128,-1,8
 199 730 199 730 257 730 c 0,9,10
 311 730 311 730 353.5 704 c 128,-1,11
 396 678 396 678 421 638.5 c 128,-1,12
 446 599 446 599 462 545 c 128,-1,13
 478 491 478 491 483.5 442.5 c 128,-1,14
 489 394 489 394 489 343 c 0,15,16
 489 284 489 284 473 218.5 c 128,-1,17
 457 153 457 153 426 92.5 c 128,-1,18
 395 32 395 32 342.5 -7 c 128,-1,19
 290 -46 290 -46 226 -46 c 0,20,21
 126 -46 126 -46 0 41 c 1,22,23
 19 80 19 80 35 104 c 1,24,25
 165 38 165 38 227 38 c 0,26,27
 276 38 276 38 320.5 85 c 128,-1,28
 365 132 365 132 388.5 193 c 128,-1,29
 412 254 412 254 412 304 c 0,30,31
 412 315 412 315 410 329 c 1,32,33
 192 345 192 345 151 372 c 1,34,-1
 158 408 l 2,35,36
 158 409 158 409 199 411 c 128,-1,37
 240 413 240 413 295 415 c 128,-1,38
 350 417 350 417 383 417 c 0,39,40
 389 417 389 417 398.5 416.5 c 128,-1,41
 408 416 408 416 410 416 c 1,0,1
EndSplineSet
EndChar

StartChar: afii10048
Encoding: 1070 1070 134
Width: 718
Flags: W
HStem: -16 65<356.264 495.124> 673 67<387.687 504.648>
VStem: 41 90<4.35059 209.02> 233 61<378 492.297> 602 76<181.489 512.704>
LayerCount: 2
Fore
SplineSet
54 731 m 1,0,-1
 99 721 l 1,1,2
 113 496 113 496 118 359 c 1,3,-1
 233 378 l 1,4,5
 238 527 238 527 256 592 c 0,6,7
 298 740 298 740 433 740 c 0,8,9
 489 740 489 740 533 712.5 c 128,-1,10
 577 685 577 685 603.5 643 c 128,-1,11
 630 601 630 601 647.5 545 c 128,-1,12
 665 489 665 489 671.5 437 c 128,-1,13
 678 385 678 385 678 333 c 0,14,15
 678 276 678 276 672.5 229 c 128,-1,16
 667 182 667 182 650 135 c 128,-1,17
 633 88 633 88 605.5 56 c 128,-1,18
 578 24 578 24 530.5 4 c 128,-1,19
 483 -16 483 -16 420 -16 c 0,20,21
 220 -16 220 -16 220 222 c 0,22,23
 220 258 220 258 223 294 c 1,24,-1
 120 309 l 1,25,-1
 131 22 l 1,26,27
 122 -9 122 -9 96 -9 c 0,28,29
 78 -9 78 -9 61.5 5.5 c 128,-1,30
 45 20 45 20 41 41 c 1,31,32
 44 125 44 125 45.5 366.5 c 128,-1,33
 47 608 47 608 54 731 c 1,0,-1
294 306 m 1,34,35
 297 240 297 240 307 186.5 c 128,-1,36
 317 133 317 133 341 91 c 128,-1,37
 365 49 365 49 400 49 c 0,38,39
 457 49 457 49 498.5 73 c 128,-1,40
 540 97 540 97 561.5 139 c 128,-1,41
 583 181 583 181 592.5 228.5 c 128,-1,42
 602 276 602 276 602 333 c 0,43,44
 602 385 602 385 594.5 437.5 c 128,-1,45
 587 490 587 490 570.5 546.5 c 128,-1,46
 554 603 554 603 519.5 638 c 128,-1,47
 485 673 485 673 438 673 c 0,48,49
 401 673 401 673 372 635 c 128,-1,50
 343 597 343 597 327 538 c 128,-1,51
 311 479 311 479 303 419.5 c 128,-1,52
 295 360 295 360 294 306 c 1,34,35
EndSplineSet
EndChar

StartChar: afii10049
Encoding: 1071 1071 135
Width: 500
Flags: W
HStem: -67 45<-6.54862 27.6479> -15 21G<416 438> 313 53<175.844 231 314.937 374.584> 314 65<314.937 376> 658 66<172.388 383.35>
VStem: 31 75<434.745 594.396> 231 87<238.841 313> 370 90<-1.82751 273.173> 376 76<148.724 315 373.935 586.076> 385 63.5<400.173 644.889>
LayerCount: 2
Fore
SplineSet
31 523 m 0,0,1
 31 587 31 587 51 628.5 c 128,-1,2
 71 670 71 670 112 690 c 128,-1,3
 153 710 153 710 197.5 717 c 128,-1,4
 242 724 242 724 307 724 c 0,5,6
 385 724 385 724 441 714 c 1,7,8
 447 698 447 698 448.5 637.5 c 128,-1,9
 450 577 450 577 452 394.5 c 128,-1,10
 454 212 454 212 460 15 c 1,11,12
 451 -15 451 -15 425 -15 c 0,13,14
 407 -15 407 -15 390.5 -0.5 c 128,-1,15
 374 14 374 14 370 35 c 1,16,17
 374 174 374 174 376 315 c 1,18,19
 368 315 368 315 348 314 c 128,-1,20
 328 313 328 313 318 313 c 1,21,22
 306 209 306 209 201.5 82.5 c 128,-1,23
 97 -44 97 -44 -4 -67 c 1,24,-1
 -20 -22 l 1,25,26
 27 -6 27 -6 66.5 24.5 c 128,-1,27
 106 55 106 55 131 88 c 128,-1,28
 156 121 156 121 177.5 165 c 128,-1,29
 199 209 199 209 209.5 241 c 128,-1,30
 220 273 220 273 231 313 c 1,31,32
 135 313 135 313 83 368.5 c 128,-1,33
 31 424 31 424 31 523 c 0,0,1
380 379 m 1,34,-1
 385 639 l 1,35,36
 322 658 322 658 270 658 c 0,37,38
 191 658 191 658 148.5 618.5 c 128,-1,39
 106 579 106 579 106 518 c 1,40,41
 115 366 115 366 274 366 c 0,42,43
 322 366 322 366 380 379 c 1,34,-1
EndSplineSet
EndChar

StartChar: afii10065
Encoding: 1072 1072 136
Width: 411
Flags: W
HStem: -18 21G<322 342.5> -10 70<108.426 226.01> 309 56<193.393 283> 479 61<115.364 247.913>
VStem: 20 70<78.3151 212.569> 286 76<-9.75806 49.9053 105.172 246.741> 288 83<132.428 309 362 420.163>
LayerCount: 2
Fore
SplineSet
77 432 m 1,0,-1
 57 483 l 1,1,2
 83 509 83 509 123 524.5 c 128,-1,3
 163 540 163 540 202 540 c 0,4,5
 371 540 371 540 371 248 c 0,6,7
 371 208 371 208 366.5 130 c 128,-1,8
 362 52 362 52 362 13 c 1,9,10
 354 -18 354 -18 331 -18 c 0,11,12
 313 -18 313 -18 298 0 c 128,-1,13
 283 18 283 18 283 40 c 0,14,15
 283 47 283 47 284 50 c 1,16,17
 222 -10 222 -10 152 -10 c 0,18,19
 99 -10 99 -10 59.5 28.5 c 128,-1,20
 20 67 20 67 20 122 c 0,21,22
 20 215 20 215 92.5 290 c 128,-1,23
 165 365 165 365 257 365 c 0,24,25
 261 365 261 365 265 364.5 c 128,-1,26
 269 364 269 364 274.5 363 c 128,-1,27
 280 362 280 362 283 362 c 1,28,29
 275 479 275 479 190 479 c 0,30,31
 140 479 140 479 77 432 c 1,0,-1
286 119 m 1,32,33
 288 189 288 189 288 225 c 0,34,35
 288 255 288 255 286 309 c 1,36,-1
 278 309 l 1,37,38
 207 308 207 308 148.5 256 c 128,-1,39
 90 204 90 204 90 130 c 0,40,41
 90 98 90 98 109.5 79 c 128,-1,42
 129 60 129 60 157 60 c 0,43,44
 201 60 201 60 286 119 c 1,32,33
EndSplineSet
EndChar

StartChar: afii10066
Encoding: 1073 1073 137
Width: 470
Flags: W
HStem: -45 73<170.112 279.531> 458 62<152.743 291.734>
VStem: 41 57<145.69 394.469> 342 77<130.825 405.272>
LayerCount: 2
Fore
SplineSet
108 476 m 1,0,1
 132 495 132 495 168.5 507.5 c 128,-1,2
 205 520 205 520 233 520 c 0,3,4
 419 520 419 520 419 305 c 0,5,6
 419 259 419 259 412 207.5 c 128,-1,7
 405 156 405 156 387.5 95 c 128,-1,8
 370 34 370 34 332.5 -5.5 c 128,-1,9
 295 -45 295 -45 242 -45 c 0,10,11
 185 -45 185 -45 145 -15 c 128,-1,12
 105 15 105 15 82.5 73 c 128,-1,13
 60 131 60 131 50.5 203.5 c 128,-1,14
 41 276 41 276 41 373 c 0,15,16
 41 471 41 471 65.5 548 c 128,-1,17
 90 625 90 625 140 683 c 128,-1,18
 190 741 190 741 252 783 c 128,-1,19
 314 825 314 825 402 866 c 1,20,21
 408 858 408 858 415.5 852.5 c 128,-1,22
 423 847 423 847 429.5 836 c 128,-1,23
 436 825 436 825 450 793 c 1,24,25
 431 782 431 782 389 760 c 128,-1,26
 347 738 347 738 319 722.5 c 128,-1,27
 291 707 291 707 252.5 679.5 c 128,-1,28
 214 652 214 652 188.5 625.5 c 128,-1,29
 163 599 163 599 140.5 559.5 c 128,-1,30
 118 520 118 520 108 476 c 1,0,1
342 311 m 0,31,32
 342 385 342 385 308 421.5 c 128,-1,33
 274 458 274 458 217 458 c 0,34,35
 164 458 164 458 131 412.5 c 128,-1,36
 98 367 98 367 98 302 c 0,37,38
 98 263 98 263 104.5 219 c 128,-1,39
 111 175 111 175 124.5 130.5 c 128,-1,40
 138 86 138 86 163.5 57 c 128,-1,41
 189 28 189 28 221 28 c 0,42,43
 342 28 342 28 342 311 c 0,31,32
EndSplineSet
EndChar

StartChar: afii10067
Encoding: 1074 1074 138
Width: 457
Flags: W
HStem: -28 75<129.49 273.371> 274 43<123.355 258.316> 483 63<115.259 305.295>
VStem: 41 88<51.0107 188.719> 63 47<356.281 470.023> 352 65<115.393 236.58>
LayerCount: 2
Fore
SplineSet
63 513 m 1,0,1
 218 546 218 546 252 546 c 0,2,3
 386 546 386 546 386 431 c 0,4,5
 386 391 386 391 372.5 353.5 c 128,-1,6
 359 316 359 316 339 304 c 1,7,8
 417 251 417 251 417 158 c 0,9,10
 417 70 417 70 359.5 21 c 128,-1,11
 302 -28 302 -28 208 -28 c 0,12,13
 96 -28 96 -28 41 32 c 1,14,-1
 63 513 l 1,0,1
120 262 m 1,15,-1
 129 59 l 1,16,17
 154 47 154 47 186 47 c 0,18,19
 248 47 248 47 300 86 c 128,-1,20
 352 125 352 125 352 177 c 0,21,22
 352 213 352 213 324 243.5 c 128,-1,23
 296 274 296 274 253 274 c 0,24,25
 228 274 228 274 120 262 c 1,15,-1
110 468 m 1,26,-1
 117 314 l 1,27,28
 132 316 132 316 163 317 c 128,-1,29
 194 318 194 318 213 321.5 c 128,-1,30
 232 325 232 325 255 336.5 c 128,-1,31
 278 348 278 348 291.5 377 c 128,-1,32
 305 406 305 406 310 453 c 1,33,34
 300 483 300 483 249 483 c 0,35,36
 226 483 226 483 177 476 c 128,-1,37
 128 469 128 469 110 468 c 1,26,-1
EndSplineSet
EndChar

StartChar: afii10068
Encoding: 1075 1075 139
Width: 373
Flags: W
HStem: 0 21G<61.5 106.5> 449 90<109.228 359.898>
VStem: 41 90<6.67529 319.703> 61 47<297.685 469>
LayerCount: 2
Fore
SplineSet
61 513 m 1,0,1
 104 517 104 517 191 526.5 c 128,-1,2
 278 536 278 536 314 539 c 1,3,4
 339 538 339 538 356.5 520.5 c 128,-1,5
 374 503 374 503 374 483 c 0,6,7
 374 453 374 453 334 449 c 1,8,9
 297 452 297 452 222 459 c 128,-1,10
 147 466 147 466 108 469 c 1,11,12
 109 408 109 408 120 271 c 128,-1,13
 131 134 131 134 131 62 c 0,14,15
 131 0 131 0 82 0 c 0,16,17
 41 0 41 0 41 56 c 0,18,19
 41 122 41 122 44 197.5 c 128,-1,20
 47 273 47 273 53 370.5 c 128,-1,21
 59 468 59 468 61 513 c 1,0,1
EndSplineSet
EndChar

StartChar: afii10069
Encoding: 1076 1076 140
Width: 540
Flags: W
HStem: 6 60<133 304.181> 468 59<207 371.551>
VStem: 8 45<-121 -88.3036> 129 76<187.992 465.891> 352 87<68 207.21> 372 60.5<318.79 461.112> 452 65<-135.561 -16.7915> 473 45<-136 -100.934>
LayerCount: 2
Fore
SplineSet
53 -131 m 1,0,-1
 8 -121 l 1,1,2
 8 -110 8 -110 4 -56 c 128,-1,3
 0 -2 0 -2 0 22 c 0,4,5
 0 42 0 42 3 65 c 1,6,-1
 68 65 l 1,7,8
 73 82 73 82 84.5 116 c 128,-1,9
 96 150 96 150 100 164 c 128,-1,10
 104 178 104 178 111.5 205.5 c 128,-1,11
 119 233 119 233 121.5 252.5 c 128,-1,12
 124 272 124 272 126.5 301 c 128,-1,13
 129 330 129 330 129 362 c 0,14,15
 129 437 129 437 123 531 c 1,16,17
 179 528 179 528 241.5 527 c 128,-1,18
 304 526 304 526 344 524 c 128,-1,19
 384 522 384 522 426 515 c 1,20,21
 429 447 429 447 432.5 291.5 c 128,-1,22
 436 136 436 136 439 68 c 1,23,-1
 517 68 l 1,24,-1
 517 38 l 2,25,26
 517 12 517 12 518.5 -36 c 128,-1,27
 520 -84 520 -84 520 -100 c 0,28,29
 520 -130 520 -130 518 -146 c 1,30,-1
 473 -136 l 1,31,32
 469 -122 469 -122 465.5 -100.5 c 128,-1,33
 462 -79 462 -79 458 -54 c 128,-1,34
 454 -29 454 -29 452 -18 c 1,35,36
 395 -15 395 -15 270.5 -6 c 128,-1,37
 146 3 146 3 76 6 c 1,38,-1
 53 -131 l 1,0,-1
207 468 m 1,39,40
 206 453 206 453 205 405.5 c 128,-1,41
 204 358 204 358 202.5 333 c 128,-1,42
 201 308 201 308 196.5 263.5 c 128,-1,43
 192 219 192 219 185 189.5 c 128,-1,44
 178 160 178 160 164.5 125.5 c 128,-1,45
 151 91 151 91 133 66 c 1,46,-1
 352 66 l 1,47,-1
 372 460 l 1,48,49
 358 461 358 461 298.5 463 c 128,-1,50
 239 465 239 465 207 468 c 1,39,40
EndSplineSet
EndChar

StartChar: afii10070
Encoding: 1077 1077 141
Width: 453
Flags: W
HStem: -2 72<150.86 336.285> 53 44<380.531 444> 456 67<190.724 310.945>
VStem: 41 60<127.25 252.891 311 364.248>
LayerCount: 2
Fore
SplineSet
444 97 m 1,0,-1
 454 53 l 1,1,2
 410 37 410 37 323.5 17.5 c 128,-1,3
 237 -2 237 -2 195 -2 c 0,4,5
 152 -2 152 -2 120 26.5 c 128,-1,6
 88 55 88 55 72 99.5 c 128,-1,7
 56 144 56 144 48.5 187.5 c 128,-1,8
 41 231 41 231 41 273 c 0,9,10
 41 523 41 523 267 523 c 0,11,12
 321 523 321 523 362 488.5 c 128,-1,13
 403 454 403 454 403 399 c 0,14,15
 403 369 403 369 386.5 346 c 128,-1,16
 370 323 370 323 346.5 309.5 c 128,-1,17
 323 296 323 296 286.5 285 c 128,-1,18
 250 274 250 274 222 269 c 128,-1,19
 194 264 194 264 155 258 c 128,-1,20
 116 252 116 252 101 249 c 1,21,22
 102 220 102 220 104.5 198 c 128,-1,23
 107 176 107 176 114.5 150.5 c 128,-1,24
 122 125 122 125 134.5 108.5 c 128,-1,25
 147 92 147 92 169 81 c 128,-1,26
 191 70 191 70 221 70 c 0,27,28
 257 70 257 70 309 76.5 c 128,-1,29
 361 83 361 83 401.5 90 c 128,-1,30
 442 97 442 97 444 97 c 1,0,-1
105 311 m 1,31,32
 241 350 241 350 328 393 c 1,33,34
 321 426 321 426 309 441 c 128,-1,35
 297 456 297 456 273 456 c 0,36,37
 212 456 212 456 162.5 414 c 128,-1,38
 113 372 113 372 105 311 c 1,31,32
EndSplineSet
EndChar

StartChar: afii10072
Encoding: 1078 1078 142
Width: 645
Flags: W
HStem: -12 46<2.69502 78.4189 567.734 642.305> 510 35<17.1808 34.6575 610.343 627.819> 511 45<17.0309 93.8893 551.141 627.818>
VStem: 284 90<16.3506 227.093> 288 64<326 524.773>
LayerCount: 2
Fore
SplineSet
288 326 m 1,0,1
 288 479 288 479 297 543 c 1,2,-1
 342 526 l 1,3,4
 350 487 350 487 350.5 416 c 128,-1,5
 351 345 351 345 352 326 c 1,6,7
 382 331 382 331 404.5 357 c 128,-1,8
 427 383 427 383 441.5 415.5 c 128,-1,9
 456 448 456 448 472 480 c 128,-1,10
 488 512 488 512 513.5 534 c 128,-1,11
 539 556 539 556 574 556 c 0,12,13
 596 556 596 556 631 545 c 1,14,-1
 627 510 l 1,15,16
 621 511 621 511 610 511 c 0,17,18
 577 511 577 511 552 489.5 c 128,-1,19
 527 468 527 468 511.5 436 c 128,-1,20
 496 404 496 404 483 371.5 c 128,-1,21
 470 339 470 339 452.5 314 c 128,-1,22
 435 289 435 289 413 284 c 1,23,24
 450 275 450 275 476.5 233.5 c 128,-1,25
 503 192 503 192 516.5 148.5 c 128,-1,26
 530 105 530 105 556 69.5 c 128,-1,27
 582 34 582 34 620 34 c 0,28,29
 630 34 630 34 642 37 c 1,30,-1
 645 -7 l 1,31,32
 625 -12 625 -12 610 -12 c 0,33,34
 572 -12 572 -12 541.5 13 c 128,-1,35
 511 38 511 38 491 74 c 128,-1,36
 471 110 471 110 453.5 145.5 c 128,-1,37
 436 181 436 181 416 206 c 128,-1,38
 396 231 396 231 375 231 c 0,39,40
 366 231 366 231 359 228 c 1,41,42
 361 199 361 199 363.5 166.5 c 128,-1,43
 366 134 366 134 369 95 c 128,-1,44
 372 56 372 56 374 34 c 1,45,46
 365 3 365 3 339 3 c 0,47,48
 321 3 321 3 304.5 17.5 c 128,-1,49
 288 32 288 32 284 53 c 1,50,51
 286 137 286 137 286 228 c 1,52,53
 278 231 278 231 270 231 c 0,54,55
 249 231 249 231 229 206 c 128,-1,56
 209 181 209 181 191.5 145.5 c 128,-1,57
 174 110 174 110 154 74 c 128,-1,58
 134 38 134 38 103.5 13 c 128,-1,59
 73 -12 73 -12 35 -12 c 0,60,61
 20 -12 20 -12 0 -7 c 1,62,-1
 3 37 l 1,63,64
 15 34 15 34 26 34 c 0,65,66
 57 34 57 34 79 57 c 128,-1,67
 101 80 101 80 115 114.5 c 128,-1,68
 129 149 129 149 142.5 184 c 128,-1,69
 156 219 156 219 178.5 248 c 128,-1,70
 201 277 201 277 232 284 c 1,71,72
 210 289 210 289 192.5 314 c 128,-1,73
 175 339 175 339 162 371.5 c 128,-1,74
 149 404 149 404 133.5 436 c 128,-1,75
 118 468 118 468 93 489.5 c 128,-1,76
 68 511 68 511 35 511 c 0,77,78
 24 511 24 511 18 510 c 1,79,-1
 14 545 l 1,80,81
 44 556 44 556 72 556 c 0,82,83
 107 556 107 556 133 534.5 c 128,-1,84
 159 513 159 513 174.5 481.5 c 128,-1,85
 190 450 190 450 204.5 417.5 c 128,-1,86
 219 385 219 385 240 358.5 c 128,-1,87
 261 332 261 332 288 326 c 1,0,1
EndSplineSet
EndChar

StartChar: afii10073
Encoding: 1079 1079 143
Width: 355
Flags: W
HStem: -26 58<83.3217 200.562> 248 54<99.5514 190.524> 467 52<54.1277 191.533>
VStem: 216 64<326.999 442.845> 248 66<82.2275 213.182>
LayerCount: 2
Fore
SplineSet
100 247 m 1,0,-1
 96 303 l 1,1,2
 99 303 99 303 105.5 302.5 c 128,-1,3
 112 302 112 302 115 302 c 0,4,5
 216 302 216 302 216 390 c 1,6,7
 205 467 205 467 131 467 c 0,8,9
 103 467 103 467 49 451 c 1,10,-1
 31 480 l 1,11,12
 73 519 73 519 151 519 c 0,13,14
 206 519 206 519 243 491 c 128,-1,15
 280 463 280 463 280 409 c 0,16,17
 280 376 280 376 267 344.5 c 128,-1,18
 254 313 254 313 233 297 c 1,19,20
 271 289 271 289 292.5 245.5 c 128,-1,21
 314 202 314 202 314 148 c 0,22,23
 314 78 314 78 269 26 c 128,-1,24
 224 -26 224 -26 153 -26 c 0,25,26
 118 -26 118 -26 69 -6 c 128,-1,27
 20 14 20 14 20 44 c 0,28,29
 20 65 20 65 47 65 c 0,30,31
 65 65 65 65 94 48.5 c 128,-1,32
 123 32 123 32 142 32 c 0,33,34
 184 32 184 32 216 69 c 128,-1,35
 248 106 248 106 248 151 c 0,36,37
 248 199 248 199 214.5 223.5 c 128,-1,38
 181 248 181 248 129 248 c 0,39,40
 109 248 109 248 100 247 c 1,0,-1
EndSplineSet
EndChar

StartChar: afii10074
Encoding: 1080 1080 144
Width: 477
Flags: W
HStem: -12 21G<392 414>
VStem: 41 90<20.3506 121.438> 48.5 67.5<187.547 503.257> 346 90<1.17249 173.432> 359 58<274.568 382>
LayerCount: 2
Fore
SplineSet
129 83 m 1,0,1
 129 66 129 66 131 38 c 1,2,3
 122 7 122 7 96 7 c 0,4,5
 78 7 78 7 61.5 21.5 c 128,-1,6
 45 36 45 36 41 57 c 1,7,8
 44 138 44 138 48.5 294 c 128,-1,9
 53 450 53 450 55 505 c 1,10,-1
 101 513 l 1,11,12
 113 449 113 449 116 343 c 128,-1,13
 119 237 119 237 124 185 c 1,14,15
 143 213 143 213 232 331 c 128,-1,16
 321 449 321 449 353 507 c 1,17,18
 375 511 375 511 381 511 c 0,19,20
 400 511 400 511 407.5 494 c 128,-1,21
 415 477 415 477 417 430 c 2,22,-1
 436 18 l 1,23,24
 427 -12 427 -12 401 -12 c 0,25,26
 383 -12 383 -12 366.5 2.5 c 128,-1,27
 350 17 350 17 346 38 c 1,28,29
 347 71 347 71 351.5 199.5 c 128,-1,30
 356 328 356 328 359 382 c 1,31,32
 188 187 188 187 129 83 c 1,0,1
EndSplineSet
EndChar

StartChar: afii10075
Encoding: 1081 1081 145
Width: 477
Flags: W
HStem: -12 21G<392 414> 609 41<133.845 267.411> 613.5 74.5<288.376 344.717> 622 31<132 171.281>
VStem: 41 90<20.3506 121.438> 48.5 67.5<187.547 503.257> 346 90<1.17249 173.432> 359 58<274.568 382>
LayerCount: 2
Fore
SplineSet
132 622 m 1,0,-1
 125 653 l 1,1,2
 149 650 149 650 172 650 c 0,3,4
 241 650 241 650 299 688 c 1,5,6
 322 686 322 686 338 674 c 128,-1,7
 354 662 354 662 354 646 c 0,8,9
 354 633 354 633 345 625 c 128,-1,10
 336 617 336 617 318 613.5 c 128,-1,11
 300 610 300 610 288 609.5 c 128,-1,12
 276 609 276 609 256 609 c 0,13,14
 191 609 191 609 132 622 c 1,0,-1
129 83 m 1,15,16
 129 66 129 66 131 38 c 1,17,18
 122 7 122 7 96 7 c 0,19,20
 78 7 78 7 61.5 21.5 c 128,-1,21
 45 36 45 36 41 57 c 1,22,23
 44 138 44 138 48.5 294 c 128,-1,24
 53 450 53 450 55 505 c 1,25,-1
 101 513 l 1,26,27
 113 449 113 449 116 343 c 128,-1,28
 119 237 119 237 124 185 c 1,29,30
 143 213 143 213 232 331 c 128,-1,31
 321 449 321 449 353 507 c 1,32,33
 375 511 375 511 381 511 c 0,34,35
 400 511 400 511 407.5 494 c 128,-1,36
 415 477 415 477 417 430 c 2,37,-1
 436 18 l 1,38,39
 427 -12 427 -12 401 -12 c 0,40,41
 383 -12 383 -12 366.5 2.5 c 128,-1,42
 350 17 350 17 346 38 c 1,43,44
 347 71 347 71 351.5 199.5 c 128,-1,45
 356 328 356 328 359 382 c 1,46,47
 188 187 188 187 129 83 c 1,15,16
EndSplineSet
EndChar

StartChar: afii10076
Encoding: 1082 1082 146
Width: 402
Flags: W
HStem: -25 47<324.618 399.305> -9 21G<87 109> 499 45<309.993 384.728> 510 20G<49.5 99>
VStem: 41 90<4.35059 214.107> 45 65<313 512.773>
LayerCount: 2
Fore
SplineSet
399 25 m 1,0,-1
 402 -19 l 1,1,2
 378 -25 378 -25 368 -25 c 0,3,4
 330 -25 330 -25 299 0 c 128,-1,5
 268 25 268 25 248 61 c 128,-1,6
 228 97 228 97 210.5 133 c 128,-1,7
 193 169 193 169 173 194 c 128,-1,8
 153 219 153 219 132 219 c 0,9,10
 124 219 124 219 117 216 c 1,11,12
 121 156 121 156 131 22 c 1,13,14
 122 -9 122 -9 96 -9 c 0,15,16
 78 -9 78 -9 61.5 5.5 c 128,-1,17
 45 20 45 20 41 41 c 1,18,19
 45 209 45 209 45 357 c 0,20,21
 45 466 45 466 54 530 c 1,22,-1
 99 514 l 1,23,24
 107 475 107 475 108 402.5 c 128,-1,25
 109 330 109 330 110 313 c 1,26,27
 140 318 140 318 162.5 344 c 128,-1,28
 185 370 185 370 199.5 403 c 128,-1,29
 214 436 214 436 230 468 c 128,-1,30
 246 500 246 500 271.5 522 c 128,-1,31
 297 544 297 544 332 544 c 0,32,33
 350 544 350 544 388 532 c 1,34,-1
 384 498 l 1,35,36
 378 499 378 499 368 499 c 0,37,38
 328 499 328 499 298.5 465.5 c 128,-1,39
 269 432 269 432 254.5 391.5 c 128,-1,40
 240 351 240 351 218 314 c 128,-1,41
 196 277 196 277 170 271 c 1,42,43
 207 262 207 262 233.5 221 c 128,-1,44
 260 180 260 180 273.5 136.5 c 128,-1,45
 287 93 287 93 313 57.5 c 128,-1,46
 339 22 339 22 377 22 c 0,47,48
 387 22 387 22 399 25 c 1,0,-1
EndSplineSet
EndChar

StartChar: afii10077
Encoding: 1083 1083 147
Width: 422
Flags: W
HStem: -90 43<-68.6672 -44.1949> -28 21G<338.5 359.5> 467 61<152.537 291.688>
VStem: 79.5 67.5<295.075 464.343> 293 89<-15.0801 255.3> 293.5 78.5<283.552 475>
LayerCount: 2
Fore
SplineSet
-66 -90 m 1,0,-1
 -82 -47 l 1,1,2
 -49 -34 -49 -34 -22.5 -6 c 128,-1,3
 4 22 4 22 21 52.5 c 128,-1,4
 38 83 38 83 50 129 c 128,-1,5
 62 175 62 175 67.5 209.5 c 128,-1,6
 73 244 73 244 76 295 c 128,-1,7
 79 346 79 346 79.5 371.5 c 128,-1,8
 80 397 80 397 80 440 c 0,9,10
 80 501 80 501 91 513 c 0,11,12
 105 528 105 528 246 528 c 0,13,14
 357 528 357 528 372 529 c 1,15,16
 374 123 374 123 382 2 c 1,17,18
 372 -28 372 -28 347 -28 c 0,19,20
 330 -28 330 -28 314 -14 c 128,-1,21
 298 0 298 0 294 20 c 1,22,23
 293 59 293 59 293 136 c 0,24,25
 293 174 293 174 293.5 251 c 128,-1,26
 294 328 294 328 294 367 c 0,27,28
 294 439 294 439 293 475 c 1,29,30
 251 468 251 468 210 467 c 128,-1,31
 169 466 169 466 152 464 c 1,32,33
 149 431 149 431 147 366 c 128,-1,34
 145 301 145 301 143.5 251.5 c 128,-1,35
 142 202 142 202 131 139.5 c 128,-1,36
 120 77 120 77 99.5 33.5 c 128,-1,37
 79 -10 79 -10 36.5 -44.5 c 128,-1,38
 -6 -79 -6 -79 -66 -90 c 1,0,-1
EndSplineSet
EndChar

StartChar: afii10078
Encoding: 1084 1084 148
Width: 603
Flags: W
HStem: -8 21G<0 51 561.5 577.5>
VStem: 0 39<2.97826 70.5>
LayerCount: 2
Fore
SplineSet
433 493 m 1,0,-1
 501 499 l 1,1,2
 551 364 551 364 603 -4 c 1,3,4
 586 -8 586 -8 569 -8 c 0,5,6
 554 -8 554 -8 534 -3 c 1,7,8
 520 52 520 52 500.5 191 c 128,-1,9
 481 330 481 330 466 388 c 1,10,11
 417 308 417 308 334 94 c 1,12,13
 327 93 327 93 309.5 90 c 128,-1,14
 292 87 292 87 283 87 c 0,15,16
 272 87 272 87 257 90 c 1,17,18
 241 131 241 131 209.5 221.5 c 128,-1,19
 178 312 178 312 159 358 c 1,20,21
 63 112 63 112 39 -6 c 1,22,-1
 0 5 l 1,23,24
 5 81 5 81 55 270.5 c 128,-1,25
 105 460 105 460 115 512 c 1,26,27
 127 512 127 512 142.5 509.5 c 128,-1,28
 158 507 158 507 166 507 c 1,29,30
 192 462 192 462 237 334.5 c 128,-1,31
 282 207 282 207 297 175 c 1,32,33
 373 391 373 391 433 493 c 1,0,-1
EndSplineSet
EndChar

StartChar: afii10079
Encoding: 1085 1085 149
Width: 448
Flags: W
HStem: -2 5G<87 109 364 386> 209 48<119.323 325.705> 216 50<118 240.416>
VStem: 41 90<11.3506 214.17> 44 74<33.0139 216 264.649 456.382> 331 54<345.849 385.677> 335 50<345.849 497>
LayerCount: 2
Fore
SplineSet
340 507 m 1,0,-1
 385 497 l 1,1,-1
 408 12 l 1,2,3
 399 -18 399 -18 373 -18 c 0,4,5
 355 -18 355 -18 338 -3.5 c 128,-1,6
 321 11 321 11 317 32 c 0,7,8
 317 35 317 35 326 201 c 1,9,-1
 326 209 l 1,10,11
 298 211 298 211 243 211 c 0,12,13
 160 211 160 211 118 216 c 1,14,15
 123 158 123 158 131 29 c 1,16,17
 122 -2 122 -2 96 -2 c 0,18,19
 78 -2 78 -2 61.5 12.5 c 128,-1,20
 45 27 45 27 41 48 c 1,21,22
 44 98 44 98 44 148 c 0,23,24
 44 180 44 180 43 244 c 128,-1,25
 42 308 42 308 42 339 c 0,26,27
 42 435 42 435 48 500 c 1,28,-1
 93 489 l 1,29,30
 113 272 113 272 114 266 c 1,31,32
 285 257 285 257 290 257 c 0,33,34
 331 257 331 257 331 262 c 0,35,36
 331 282 331 282 335 389 c 128,-1,37
 339 496 339 496 340 507 c 1,0,-1
EndSplineSet
EndChar

StartChar: afii10080
Encoding: 1086 1086 150
Width: 457
Flags: W
HStem: -29 21G<187 258> 511 20G<182.5 253>
VStem: 41 73<115.588 365.101> 351 66<150.204 375.029>
LayerCount: 2
Fore
SplineSet
41 213 m 0,0,1
 41 253 41 253 49.5 302 c 128,-1,2
 58 351 58 351 75 405 c 128,-1,3
 92 459 92 459 126 495 c 128,-1,4
 160 531 160 531 205 531 c 0,5,6
 301 531 301 531 359 444.5 c 128,-1,7
 417 358 417 358 417 252 c 0,8,9
 417 207 417 207 407.5 162.5 c 128,-1,10
 398 118 398 118 378 75 c 128,-1,11
 358 32 358 32 320.5 3.5 c 128,-1,12
 283 -25 283 -25 233 -29 c 1,13,14
 141 -17 141 -17 91 49.5 c 128,-1,15
 41 116 41 116 41 213 c 0,0,1
211 479 m 1,16,17
 176 475 176 475 152 415 c 128,-1,18
 128 355 128 355 121 298.5 c 128,-1,19
 114 242 114 242 114 199 c 0,20,21
 114 143 114 143 148.5 95.5 c 128,-1,22
 183 48 183 48 226 48 c 0,23,24
 257 48 257 48 282 72 c 128,-1,25
 307 96 307 96 321.5 131.5 c 128,-1,26
 336 167 336 167 343.5 203 c 128,-1,27
 351 239 351 239 351 267 c 0,28,29
 351 349 351 349 314 410 c 128,-1,30
 277 471 277 471 211 479 c 1,16,17
EndSplineSet
EndChar

StartChar: afii10081
Encoding: 1087 1087 151
Width: 448
Flags: W
HStem: -2 5G<87 109 364 386> 442 55<123.569 330>
VStem: 41 90<11.3506 231.927> 44 83<29.943 449.114> 317 91<-4.39209 163.151> 326 59<345.849 442>
LayerCount: 2
Fore
SplineSet
48 500 m 1,0,-1
 385 497 l 1,1,-1
 408 12 l 1,2,3
 399 -18 399 -18 373 -18 c 0,4,5
 355 -18 355 -18 338 -3.5 c 128,-1,6
 321 11 321 11 317 32 c 1,7,8
 318 50 318 50 320.5 145.5 c 128,-1,9
 323 241 323 241 326 328.5 c 128,-1,10
 329 416 329 416 330 442 c 1,11,12
 302 444 302 444 247 444 c 0,13,14
 172 444 172 444 122 450 c 1,15,16
 125 417 125 417 127 237.5 c 128,-1,17
 129 58 129 58 131 29 c 1,18,19
 122 -2 122 -2 96 -2 c 0,20,21
 78 -2 78 -2 61.5 12.5 c 128,-1,22
 45 27 45 27 41 48 c 1,23,24
 44 98 44 98 44 148 c 0,25,26
 44 174 44 174 43 234 c 128,-1,27
 42 294 42 294 42 329 c 0,28,29
 42 432 42 432 48 500 c 1,0,-1
EndSplineSet
EndChar

StartChar: afii10082
Encoding: 1088 1088 152
Width: 454
Flags: W
HStem: -291 21G<87 109> -28 72<146.75 276.198> 459 61<132.287 291.233> 506 20G<52.6871 109>
VStem: 41 90<-277.649 0 61.3022 217.155> 53 56<485.315 516> 339 75<129.211 385.84>
LayerCount: 2
Fore
SplineSet
53 526 m 1,0,-1
 109 516 l 1,1,2
 109 495 109 495 110 485 c 1,3,4
 165 520 165 520 221 520 c 0,5,6
 312 520 312 520 363 442 c 128,-1,7
 414 364 414 364 414 265 c 0,8,9
 414 215 414 215 406.5 169.5 c 128,-1,10
 399 124 399 124 380 76.5 c 128,-1,11
 361 29 361 29 321.5 0.5 c 128,-1,12
 282 -28 282 -28 226 -28 c 0,13,14
 173 -28 173 -28 124 0 c 1,15,16
 128 -175 128 -175 131 -260 c 1,17,18
 122 -291 122 -291 96 -291 c 0,19,20
 78 -291 78 -291 61.5 -276.5 c 128,-1,21
 45 -262 45 -262 41 -241 c 1,22,-1
 53 526 l 1,0,-1
118 420 m 1,23,-1
 121 97 l 1,24,25
 133 73 133 73 158 58.5 c 128,-1,26
 183 44 183 44 213 44 c 0,27,28
 252 44 252 44 279.5 69 c 128,-1,29
 307 94 307 94 318.5 135.5 c 128,-1,30
 330 177 330 177 334.5 213 c 128,-1,31
 339 249 339 249 339 289 c 0,32,33
 339 459 339 459 224 459 c 0,34,35
 187 459 187 459 155.5 448.5 c 128,-1,36
 124 438 124 438 118 420 c 1,23,-1
EndSplineSet
EndChar

StartChar: afii10083
Encoding: 1089 1089 153
Width: 400
Flags: W
HStem: -22 59<149.135 344.41> 459 60<212.78 373.609>
VStem: 41 68<80.5184 336.225>
LayerCount: 2
Fore
SplineSet
378 496 m 1,0,-1
 373 453 l 1,1,2
 331 459 331 459 301 459 c 0,3,4
 232 459 232 459 187 417.5 c 128,-1,5
 142 376 142 376 125.5 319.5 c 128,-1,6
 109 263 109 263 109 194 c 0,7,8
 109 162 109 162 113 137 c 128,-1,9
 117 112 117 112 127.5 88 c 128,-1,10
 138 64 138 64 160.5 50.5 c 128,-1,11
 183 37 183 37 216 37 c 0,12,13
 260 37 260 37 328 54 c 1,14,15
 349 62 349 62 361 62 c 0,16,17
 385 62 385 62 390 6 c 1,18,19
 302 -22 302 -22 227 -22 c 0,20,21
 118 -22 118 -22 79.5 31.5 c 128,-1,22
 41 85 41 85 41 205 c 0,23,24
 41 275 41 275 50.5 327.5 c 128,-1,25
 60 380 60 380 84 425.5 c 128,-1,26
 108 471 108 471 153.5 495 c 128,-1,27
 199 519 199 519 265 519 c 0,28,29
 339 519 339 519 378 496 c 1,0,-1
EndSplineSet
EndChar

StartChar: afii10084
Encoding: 1090 1090 154
Width: 480
Flags: W
HStem: -11 21G<218.5 240> 437 88<291.065 466.631>
VStem: 203 55.5<223.837 446>
LayerCount: 2
Fore
SplineSet
9 459 m 1,0,-1
 0 503 l 1,1,2
 134 511 134 511 422 525 c 1,3,4
 446 524 446 524 463 507 c 128,-1,5
 480 490 480 490 480 471 c 0,6,7
 480 441 480 441 440 437 c 1,8,-1
 253 446 l 1,9,10
 258 371 258 371 258.5 227.5 c 128,-1,11
 259 84 259 84 262 18 c 1,12,13
 253 -11 253 -11 227 -11 c 0,14,15
 210 -11 210 -11 194 3 c 128,-1,16
 178 17 178 17 174 37 c 1,17,18
 188 283 188 283 203 450 c 1,19,-1
 9 459 l 1,0,-1
EndSplineSet
EndChar

StartChar: afii10085
Encoding: 1091 1091 155
Width: 437
Flags: W
VStem: 20 58<404.938 516> 359 78<391.309 506.703>
LayerCount: 2
Fore
SplineSet
113 -296 m 1,0,-1
 51 -261 l 1,1,2
 92 -190 92 -190 196 9 c 1,3,4
 115 81 115 81 72 227 c 128,-1,5
 29 373 29 373 20 519 c 1,6,-1
 78 516 l 1,7,8
 83 492 83 492 99.5 406.5 c 128,-1,9
 116 321 116 321 126 280 c 128,-1,10
 136 239 136 239 161.5 177.5 c 128,-1,11
 187 116 187 116 220 74 c 1,12,13
 359 341 359 341 359 512 c 2,14,-1
 359 523 l 1,15,16
 411 515 411 515 437 504 c 1,17,18
 421 399 421 399 387 290 c 128,-1,19
 353 181 353 181 302 70.5 c 128,-1,20
 251 -40 251 -40 211.5 -115 c 128,-1,21
 172 -190 172 -190 113 -296 c 1,0,-1
EndSplineSet
EndChar

StartChar: afii10086
Encoding: 1092 1092 156
Width: 557
Flags: W
HStem: -6 65<138.278 243 308 405.915> 436 68<324 377.463> 449 58<167.525 253.894>
VStem: 20 60<122.648 336.494> 243 65<-269 -5 59.0027 121.872> 247 51<-269 -142.703> 257 67<507 686.209> 258 63<228.128 435.036> 468 69<123.926 319.086>
LayerCount: 2
Fore
SplineSet
298 -279 m 1,0,-1
 247 -269 l 1,1,2
 243 -190 243 -190 243 -3 c 1,3,4
 140 -3 140 -3 80 53.5 c 128,-1,5
 20 110 20 110 20 207 c 0,6,7
 20 323 20 323 82.5 414.5 c 128,-1,8
 145 506 145 506 254 507 c 1,9,10
 253 530 253 530 253 562 c 0,11,12
 253 595 253 595 257 669 c 1,13,-1
 257 677 l 1,14,15
 270 687 270 687 290 687 c 0,16,17
 312 687 312 687 330 677 c 1,18,19
 324 583 324 583 324 532 c 2,20,-1
 324 504 l 1,21,-1
 331 504 l 2,22,23
 412 504 412 504 474.5 406 c 128,-1,24
 537 308 537 308 537 201 c 0,25,26
 537 115 537 115 476 54.5 c 128,-1,27
 415 -6 415 -6 327 -6 c 0,28,29
 314 -6 314 -6 308 -5 c 1,30,31
 306 -70 306 -70 303 -140.5 c 128,-1,32
 300 -211 300 -211 298 -279 c 1,0,-1
243 61 m 1,33,34
 243 109 243 109 250.5 207.5 c 128,-1,35
 258 306 258 306 258 356 c 0,36,37
 258 408 258 408 253 446 c 0,38,39
 252 446 252 446 244.5 447.5 c 128,-1,40
 237 449 237 449 233 449 c 0,41,42
 167 449 167 449 123.5 378 c 128,-1,43
 80 307 80 307 80 221 c 0,44,45
 80 151 80 151 113 104.5 c 128,-1,46
 146 58 146 58 210 58 c 0,47,48
 226 58 226 58 243 61 c 1,33,34
321 436 m 1,49,-1
 308 59 l 1,50,-1
 317 59 l 2,51,52
 394 59 394 59 431 102.5 c 128,-1,53
 468 146 468 146 468 213 c 0,54,55
 468 292 468 292 424 362 c 128,-1,56
 380 432 380 432 321 436 c 1,49,-1
EndSplineSet
EndChar

StartChar: afii10087
Encoding: 1093 1093 157
Width: 364
Flags: W
HStem: -20 16G<5.6087 52.5 314 348>
LayerCount: 2
Fore
SplineSet
43 -25 m 1,0,-1
 0 -2 l 1,1,2
 26 63 26 63 136 250 c 1,3,4
 78 329 78 329 4 513 c 1,5,-1
 48 513 l 1,6,7
 85 435 85 435 173 310 c 1,8,9
 188 331 188 331 212.5 375 c 128,-1,10
 237 419 237 419 260.5 451 c 128,-1,11
 284 483 284 483 314 507 c 1,12,13
 350 487 350 487 350 460 c 0,14,15
 350 445 350 445 343 431 c 1,16,17
 316 398 316 398 274 327 c 128,-1,18
 232 256 232 256 222 241 c 1,19,20
 328 93 328 93 365 18 c 1,21,22
 365 -20 365 -20 331 -20 c 128,-1,23
 297 -20 297 -20 279 13 c 1,24,25
 261 73 261 73 184 183 c 1,26,27
 167 155 167 155 114.5 81.5 c 128,-1,28
 62 8 62 8 43 -25 c 1,0,-1
EndSplineSet
EndChar

StartChar: afii10088
Encoding: 1094 1094 158
Width: 486
Flags: W
HStem: -7 79<113 326> 509 20G<49.5 98>
VStem: 41 72<71 492.299> 326 65<70 510> 341 45<307.744 510> 388 73<-51.0256 -3>
LayerCount: 2
Fore
SplineSet
41 -3 m 1,0,1
 44 52 44 52 45 251.5 c 128,-1,2
 46 451 46 451 53 529 c 1,3,-1
 98 519 l 1,4,5
 105 439 105 439 108.5 263 c 128,-1,6
 112 87 112 87 113 71 c 1,7,8
 128 72 128 72 162 72 c 0,9,10
 186 72 186 72 232.5 71 c 128,-1,11
 279 70 279 70 298 70 c 2,12,-1
 326 70 l 1,13,14
 329 132 329 132 333 288.5 c 128,-1,15
 337 445 337 445 341 520 c 1,16,-1
 386 510 l 1,17,18
 390 432 390 432 390.5 263 c 128,-1,19
 391 94 391 94 391 70 c 1,20,-1
 466 70 l 1,21,22
 465 42 465 42 461 -33 c 128,-1,23
 457 -108 457 -108 456 -145 c 1,24,-1
 408 -137 l 1,25,-1
 388 -3 l 1,26,27
 258 -7 258 -7 194 -7 c 0,28,29
 109 -7 109 -7 41 -3 c 1,0,1
EndSplineSet
EndChar

StartChar: afii10089
Encoding: 1095 1095 159
Width: 419
Flags: W
HStem: -23 21G<335 357> 188 82<131.414 291.271>
VStem: 30 45<436.193 524> 289 90<-9.37329 196.776>
LayerCount: 2
Fore
SplineSet
302 531 m 1,0,-1
 343 544 l 1,1,2
 354 507 354 507 364.5 266.5 c 128,-1,3
 375 26 375 26 379 8 c 1,4,5
 370 -23 370 -23 344 -23 c 0,6,7
 326 -23 326 -23 309.5 -8 c 128,-1,8
 293 7 293 7 289 28 c 1,9,10
 291 85 291 85 293 201 c 1,11,12
 241 188 241 188 207 188 c 0,13,14
 155 188 155 188 117 209 c 128,-1,15
 79 230 79 230 58.5 267 c 128,-1,16
 38 304 38 304 29 345.5 c 128,-1,17
 20 387 20 387 20 435 c 0,18,19
 20 473 20 473 30 535 c 1,20,-1
 75 524 l 1,21,22
 76 511 76 511 78.5 474.5 c 128,-1,23
 81 438 81 438 83 422 c 128,-1,24
 85 406 85 406 89.5 376.5 c 128,-1,25
 94 347 94 347 102.5 332.5 c 128,-1,26
 111 318 111 318 123.5 301 c 128,-1,27
 136 284 136 284 155.5 277 c 128,-1,28
 175 270 175 270 201 270 c 0,29,30
 234 270 234 270 293 289 c 1,31,32
 293 315 293 315 298 404.5 c 128,-1,33
 303 494 303 494 303 516 c 0,34,35
 303 529 303 529 302 531 c 1,0,-1
EndSplineSet
EndChar

StartChar: afii10090
Encoding: 1096 1096 160
Width: 591
Flags: W
HStem: -5 68.5<120.696 274 341 484> 506 20G<278.5 327>
VStem: 41 79<61 499.865> 275 61.5<69 494.578> 484 67<70 306.309> 491.5 56.5<71.8987 510> 500 45<306.309 510>
LayerCount: 2
Fore
SplineSet
500 520 m 1,0,-1
 545 510 l 1,1,2
 548 443 548 443 548 184 c 0,3,4
 548 55 548 55 551 -3 c 1,5,6
 475 -5 475 -5 353 -5 c 0,7,8
 117 -5 117 -5 41 0 c 1,9,10
 44 57 44 57 48 253.5 c 128,-1,11
 52 450 52 450 59 536 c 1,12,-1
 104 525 l 1,13,14
 111 441 111 441 115 268 c 128,-1,15
 119 95 119 95 120 61 c 1,16,17
 142 63 142 63 199.5 63.5 c 128,-1,18
 257 64 257 64 274 65 c 1,19,20
 276 100 276 100 276 175 c 0,21,22
 276 204 276 204 275.5 264 c 128,-1,23
 275 324 275 324 275 354 c 0,24,25
 275 452 275 452 282 526 c 1,26,-1
 327 516 l 1,27,28
 333 436 333 436 336.5 265 c 128,-1,29
 340 94 340 94 341 69 c 1,30,31
 443 69 443 69 484 70 c 1,32,33
 487 130 487 130 491.5 287 c 128,-1,34
 496 444 496 444 500 520 c 1,0,-1
EndSplineSet
EndChar

StartChar: afii10091
Encoding: 1097 1097 161
Width: 645
Flags: W
HStem: -5 74<120.696 274 341 484> 506 20G<278.5 327>
VStem: 41 79<61 499.865> 274 67<68 500.196> 484 66<70 306.309> 491.5 58<71.8987 510> 500 45<306.309 510> 566 48<-137 -86.4467>
LayerCount: 2
Fore
SplineSet
614 -145 m 1,0,-1
 566 -137 l 1,1,-1
 547 -3 l 1,2,3
 467 -5 467 -5 349 -5 c 0,4,5
 117 -5 117 -5 41 0 c 1,6,7
 44 57 44 57 48 253.5 c 128,-1,8
 52 450 52 450 59 536 c 1,9,-1
 104 525 l 1,10,11
 111 441 111 441 115 268 c 128,-1,12
 119 95 119 95 120 61 c 1,13,14
 142 63 142 63 199.5 63.5 c 128,-1,15
 257 64 257 64 274 65 c 1,16,17
 275 154 275 154 275 354 c 0,18,19
 275 452 275 452 282 526 c 1,20,-1
 327 516 l 1,21,22
 333 436 333 436 336.5 264.5 c 128,-1,23
 340 93 340 93 341 68 c 1,24,25
 360 69 360 69 413 69 c 0,26,27
 464 69 464 69 484 70 c 1,28,29
 487 130 487 130 491.5 287 c 128,-1,30
 496 444 496 444 500 520 c 1,31,-1
 545 510 l 1,32,33
 549 432 549 432 549.5 262.5 c 128,-1,34
 550 93 550 93 550 69 c 1,35,-1
 625 69 l 1,36,37
 624 42 624 42 620 -32.5 c 128,-1,38
 616 -107 616 -107 614 -145 c 1,0,-1
EndSplineSet
EndChar

StartChar: afii10092
Encoding: 1098 1098 162
Width: 512
Flags: W
HStem: -13 60<218.218 369.701> 267 69<225.316 368.23> 453 45<10 47.6984>
VStem: 155.5 69.5<81.904 264.948> 159 58<54.2324 241.096 324 426> 418 74<94.9336 220.439>
LayerCount: 2
Fore
SplineSet
10 453 m 1,0,-1
 0 498 l 1,1,-1
 112 502 l 1,2,3
 164 502 164 502 200 497 c 1,4,5
 205 433 205 433 217 324 c 1,6,7
 258 336 258 336 293 336 c 0,8,9
 380 336 380 336 436 277 c 128,-1,10
 492 218 492 218 492 144 c 0,11,12
 492 75 492 75 437.5 31 c 128,-1,13
 383 -13 383 -13 308 -13 c 0,14,15
 297 -13 297 -13 278 -12 c 128,-1,16
 259 -11 259 -11 230 -8 c 128,-1,17
 201 -5 201 -5 180 2 c 128,-1,18
 159 9 159 9 158 19 c 1,19,20
 159 38 159 38 159 79 c 0,21,22
 159 125 159 125 155.5 239.5 c 128,-1,23
 152 354 152 354 152 426 c 1,24,-1
 10 453 l 1,0,-1
225 262 m 1,25,-1
 217 61 l 1,26,27
 256 47 256 47 293 47 c 0,28,29
 350 47 350 47 384 81 c 128,-1,30
 418 115 418 115 418 159 c 128,-1,31
 418 203 418 203 382 235 c 128,-1,32
 346 267 346 267 279 267 c 0,33,34
 257 267 257 267 225 262 c 1,25,-1
EndSplineSet
EndChar

StartChar: afii10093
Encoding: 1099 1099 163
Width: 544
Flags: W
HStem: -13 60<107.288 258.869> 267 69<115.35 257.23>
VStem: 44 71<101.915 265.047> 44 62<54.2324 221.085 324 494.989> 44 45<327.395 497> 307 74<94.3945 220.439> 414 90<3.17249 255.993>
LayerCount: 2
Fore
SplineSet
44 507 m 1,0,-1
 89 497 l 1,1,2
 94 433 94 433 106 324 c 1,3,4
 146 336 146 336 182 336 c 0,5,6
 269 336 269 336 325 277 c 128,-1,7
 381 218 381 218 381 144 c 0,8,9
 381 73 381 73 329.5 30 c 128,-1,10
 278 -13 278 -13 198 -13 c 0,11,12
 146 -13 146 -13 96.5 -4 c 128,-1,13
 47 5 47 5 47 18 c 0,14,15
 47 79 47 79 44 206 c 128,-1,16
 41 333 41 333 41 400 c 0,17,18
 41 456 41 456 44 507 c 1,0,-1
115 262 m 1,19,-1
 106 61 l 1,20,21
 145 47 145 47 182 47 c 0,22,23
 239 47 239 47 273 81 c 128,-1,24
 307 115 307 115 307 159 c 128,-1,25
 307 203 307 203 271 235 c 128,-1,26
 235 267 235 267 168 267 c 0,27,28
 147 267 147 267 115 262 c 1,19,-1
427 510 m 1,29,-1
 472 500 l 1,30,31
 486 343 486 343 504 20 c 1,32,33
 495 -10 495 -10 469 -10 c 0,34,35
 451 -10 451 -10 434.5 4.5 c 128,-1,36
 418 19 418 19 414 40 c 1,37,38
 417 100 417 100 418.5 261 c 128,-1,39
 420 422 420 422 427 510 c 1,29,-1
EndSplineSet
EndChar

StartChar: afii10094
Encoding: 1100 1100 164
Width: 401
Flags: W
HStem: -13 60<107.218 257.544> 267 69<115.35 257.23>
VStem: 44 71<101.915 265.047> 44 62<54.2324 221.085 324 494.989> 44 45<327.395 497> 307 74<94.9336 220.439>
LayerCount: 2
Fore
SplineSet
44 507 m 1,0,-1
 89 497 l 1,1,2
 94 433 94 433 106 324 c 1,3,4
 146 336 146 336 182 336 c 0,5,6
 269 336 269 336 325 277 c 128,-1,7
 381 218 381 218 381 144 c 0,8,9
 381 75 381 75 327 31 c 128,-1,10
 273 -13 273 -13 198 -13 c 0,11,12
 187 -13 187 -13 168 -12 c 128,-1,13
 149 -11 149 -11 119.5 -8 c 128,-1,14
 90 -5 90 -5 69 2 c 128,-1,15
 48 9 48 9 47 19 c 1,16,17
 47 80 47 80 44 206.5 c 128,-1,18
 41 333 41 333 41 400 c 0,19,20
 41 456 41 456 44 507 c 1,0,-1
115 262 m 1,21,-1
 106 61 l 1,22,23
 145 47 145 47 182 47 c 0,24,25
 239 47 239 47 273 81 c 128,-1,26
 307 115 307 115 307 159 c 128,-1,27
 307 203 307 203 271 235 c 128,-1,28
 235 267 235 267 168 267 c 0,29,30
 147 267 147 267 115 262 c 1,21,-1
EndSplineSet
EndChar

StartChar: afii10095
Encoding: 1101 1101 165
Width: 390
Flags: W
HStem: -22 59<56.476 242.133> 234 50<101.57 205.251> 459 60<16.3906 180.749>
VStem: 282 67<78.8052 240>
LayerCount: 2
Fore
SplineSet
281 201 m 1,0,-1
 266 203 l 2,1,2
 169 215 169 215 99 234 c 1,3,-1
 102 284 l 1,4,5
 114 283 114 283 175 279 c 128,-1,6
 236 275 236 275 271 274 c 1,7,8
 251 363 251 363 211.5 411 c 128,-1,9
 172 459 172 459 89 459 c 0,10,11
 59 459 59 459 17 453 c 1,12,-1
 12 496 l 1,13,14
 51 519 51 519 125 519 c 0,15,16
 191 519 191 519 236.5 495 c 128,-1,17
 282 471 282 471 306 425.5 c 128,-1,18
 330 380 330 380 339.5 327.5 c 128,-1,19
 349 275 349 275 349 205 c 0,20,21
 349 148 349 148 342.5 110.5 c 128,-1,22
 336 73 336 73 317 41 c 128,-1,23
 298 9 298 9 260 -6.5 c 128,-1,24
 222 -22 222 -22 163 -22 c 0,25,26
 88 -22 88 -22 0 6 c 1,27,28
 5 62 5 62 29 62 c 128,-1,29
 53 62 53 62 105.5 49.5 c 128,-1,30
 158 37 158 37 174 37 c 0,31,32
 282 37 282 37 282 177 c 0,33,34
 282 193 282 193 281 201 c 1,0,-1
EndSplineSet
EndChar

StartChar: afii10096
Encoding: 1102 1102 166
Width: 617
Flags: W
HStem: -9 75<353.499 441.677> 178 82<215.015 258.413> 200 60<124.006 167.985> 464 53<381.642 475.742>
VStem: 41 88<-4.09839 182.528> 62 55<322.472 457.828> 258 69<88.2574 178 256.32 373.625> 510 67<175.629 424.578>
LayerCount: 2
Fore
SplineSet
124 200 m 1,0,-1
 129 13 l 1,1,2
 120 -16 120 -16 94 -16 c 0,3,4
 77 -16 77 -16 61 -2 c 128,-1,5
 45 12 45 12 41 32 c 1,6,-1
 62 473 l 1,7,-1
 106 464 l 1,8,9
 117 265 117 265 117 259 c 1,10,11
 122 260 122 260 133 260 c 0,12,13
 146 260 146 260 173 257.5 c 128,-1,14
 200 255 200 255 213 255 c 0,15,16
 242 255 242 255 265 263 c 1,17,18
 269 309 269 309 274 341.5 c 128,-1,19
 279 374 279 374 290.5 409.5 c 128,-1,20
 302 445 302 445 318.5 467 c 128,-1,21
 335 489 335 489 362 503 c 128,-1,22
 389 517 389 517 425 517 c 0,23,24
 459 517 459 517 483.5 507.5 c 128,-1,25
 508 498 508 498 530.5 471.5 c 128,-1,26
 553 445 553 445 565 390.5 c 128,-1,27
 577 336 577 336 577 254 c 0,28,29
 577 222 577 222 567 180.5 c 128,-1,30
 557 139 557 139 537 95 c 128,-1,31
 517 51 517 51 479 21 c 128,-1,32
 441 -9 441 -9 393 -9 c 0,33,34
 333 -9 333 -9 295.5 24.5 c 128,-1,35
 258 58 258 58 258 121 c 0,36,37
 258 158 258 158 259 178 c 1,38,-1
 124 200 l 1,0,-1
510 321 m 0,39,40
 510 341 510 341 506.5 363 c 128,-1,41
 503 385 503 385 494.5 409 c 128,-1,42
 486 433 486 433 469.5 448.5 c 128,-1,43
 453 464 453 464 430 464 c 0,44,45
 402 464 402 464 381 441 c 128,-1,46
 360 418 360 418 349 382.5 c 128,-1,47
 338 347 338 347 332.5 311.5 c 128,-1,48
 327 276 327 276 327 243 c 0,49,50
 327 169 327 169 335 130 c 128,-1,51
 343 91 343 91 357 78.5 c 128,-1,52
 371 66 371 66 396 66 c 0,53,54
 432 66 432 66 459 111.5 c 128,-1,55
 486 157 486 157 498 213.5 c 128,-1,56
 510 270 510 270 510 321 c 0,39,40
EndSplineSet
EndChar

StartChar: afii10097
Encoding: 1103 1103 167
Width: 440
Flags: W
HStem: -87 43<-47.6672 -1.47485> 189 59<227.943 305.145> 470 64<138.758 323.527>
VStem: 41 64<309.427 439.495> 329 55<270.825 463.286>
LayerCount: 2
Fore
SplineSet
384 519 m 1,0,-1
 399 -18 l 1,1,2
 389 -48 389 -48 365 -48 c 0,3,4
 348 -48 348 -48 331.5 -34 c 128,-1,5
 315 -20 315 -20 311 0 c 1,6,-1
 321 217 l 1,7,8
 279 190 279 190 234 189 c 1,9,10
 196 64 196 64 138.5 6 c 128,-1,11
 81 -52 81 -52 -45 -87 c 1,12,-1
 -61 -44 l 1,13,14
 126 3 126 3 152 203 c 1,15,16
 104 223 104 223 72.5 264 c 128,-1,17
 41 305 41 305 41 358 c 0,18,19
 41 464 41 464 95 499 c 128,-1,20
 149 534 149 534 266 534 c 0,21,22
 327 534 327 534 384 519 c 1,0,-1
329 301 m 1,23,-1
 324 459 l 1,24,25
 289 470 289 470 221 470 c 0,26,27
 173 470 173 470 139 448.5 c 128,-1,28
 105 427 105 427 105 379 c 0,29,30
 105 325 105 325 148 286.5 c 128,-1,31
 191 248 191 248 242 248 c 0,32,33
 302 248 302 248 329 301 c 1,23,-1
EndSplineSet
EndChar

StartChar: afii10053
Encoding: 1028 1028 168
Width: 530
Flags: W
HStem: -46 84<238.617 397.357> 329 87.5<121 313.904> 672 58<225.28 398.647>
VStem: 41 78<196.467 527.375>
LayerCount: 2
Fore
SplineSet
121 416 m 1,0,1
 123 416 123 416 132 416.5 c 128,-1,2
 141 417 141 417 147 417 c 0,3,4
 180 417 180 417 235.5 415 c 128,-1,5
 291 413 291 413 332 411 c 128,-1,6
 373 409 373 409 373 408 c 2,7,-1
 380 372 l 1,8,9
 339 345 339 345 121 329 c 1,10,11
 119 315 119 315 119 304 c 0,12,13
 119 254 119 254 142.5 193 c 128,-1,14
 166 132 166 132 210 85 c 128,-1,15
 254 38 254 38 303 38 c 0,16,17
 366 38 366 38 496 104 c 1,18,19
 509 85 509 85 530 41 c 1,20,21
 404 -46 404 -46 304 -46 c 0,22,23
 240 -46 240 -46 187.5 -7 c 128,-1,24
 135 32 135 32 104 92.5 c 128,-1,25
 73 153 73 153 57 218.5 c 128,-1,26
 41 284 41 284 41 343 c 0,27,28
 41 394 41 394 46.5 442.5 c 128,-1,29
 52 491 52 491 68 545 c 128,-1,30
 84 599 84 599 109 638.5 c 128,-1,31
 134 678 134 678 176.5 704 c 128,-1,32
 219 730 219 730 273 730 c 0,33,34
 331 730 331 730 393 710 c 128,-1,35
 455 690 455 690 499 660 c 1,36,-1
 459 614 l 1,37,38
 381 672 381 672 306 672 c 0,39,40
 229 672 229 672 178 607.5 c 128,-1,41
 127 543 127 543 121 416 c 1,0,1
EndSplineSet
EndChar

StartChar: afii10101
Encoding: 1108 1108 169
Width: 400
Flags: W
HStem: -22 59<148.182 333.524> 234 50<184.749 288.43> 459 60<209.251 373.609>
VStem: 41 68<78.8052 240>
LayerCount: 2
Fore
SplineSet
124 203 m 1,0,-1
 110 201 l 1,1,2
 109 193 109 193 109 177 c 0,3,4
 109 37 109 37 216 37 c 0,5,6
 232 37 232 37 284.5 49.5 c 128,-1,7
 337 62 337 62 361 62 c 128,-1,8
 385 62 385 62 390 6 c 1,9,10
 302 -22 302 -22 227 -22 c 0,11,12
 168 -22 168 -22 130 -6.5 c 128,-1,13
 92 9 92 9 73 41 c 128,-1,14
 54 73 54 73 47.5 110.5 c 128,-1,15
 41 148 41 148 41 205 c 0,16,17
 41 275 41 275 50.5 327.5 c 128,-1,18
 60 380 60 380 84 425.5 c 128,-1,19
 108 471 108 471 153.5 495 c 128,-1,20
 199 519 199 519 265 519 c 0,21,22
 339 519 339 519 378 496 c 1,23,-1
 373 453 l 1,24,25
 331 459 331 459 301 459 c 0,26,27
 218 459 218 459 178.5 411 c 128,-1,28
 139 363 139 363 119 274 c 1,29,30
 154 275 154 275 215 279 c 128,-1,31
 276 283 276 283 288 284 c 1,32,-1
 291 234 l 1,33,34
 221 215 221 215 124 203 c 1,0,-1
EndSplineSet
EndChar

StartChar: afii10055
Encoding: 1030 1030 170
Width: 337
Flags: W
HStem: -3 49<24 135.295 200.507 315> -2 64<24.8579 136 200 315> 648 62<27 128 194 278> 659 50<194.256 278>
VStem: 136 64<62 646.253>
LayerCount: 2
Fore
SplineSet
24 -3 m 1,0,-1
 22 46 l 1,1,2
 114 61 114 61 136 62 c 1,3,4
 137 96 137 96 137 164 c 0,5,6
 137 254 137 254 133 423.5 c 128,-1,7
 129 593 129 593 128 648 c 1,8,-1
 27 653 l 1,9,-1
 20 711 l 1,10,11
 61 710 61 710 147 710 c 0,12,13
 235 710 235 710 278 709 c 1,14,-1
 281 659 l 1,15,16
 264 652 264 652 233 650.5 c 128,-1,17
 202 649 202 649 194 648 c 1,18,19
 197 620 197 620 197.5 507 c 128,-1,20
 198 394 198 394 198 257 c 128,-1,21
 198 120 198 120 200 62 c 1,22,23
 216 59 216 59 261 55 c 128,-1,24
 306 51 306 51 317 49 c 1,25,-1
 315 -3 l 1,26,27
 285 -2 285 -2 220 -2 c 0,28,29
 186 -2 186 -2 119 -2.5 c 128,-1,30
 52 -3 52 -3 24 -3 c 1,0,-1
EndSplineSet
EndChar

StartChar: afii10103
Encoding: 1110 1110 171
Width: 181
Flags: W
HStem: -2 21G<87 109> 567 126<57.5419 120.866>
VStem: 41 99<590.721 674.359> 41 90<11.3506 288.914> 49 74<49.3134 490.617>
LayerCount: 2
Fore
SplineSet
63 514 m 1,0,-1
 109 504 l 1,1,2
 117 422 117 422 123 246.5 c 128,-1,3
 129 71 129 71 131 29 c 1,4,5
 122 -2 122 -2 96 -2 c 0,6,7
 78 -2 78 -2 61.5 12.5 c 128,-1,8
 45 27 45 27 41 48 c 1,9,10
 43 89 43 89 49 261.5 c 128,-1,11
 55 434 55 434 63 514 c 1,0,-1
77 693 m 0,12,13
 104 693 104 693 122 669.5 c 128,-1,14
 140 646 140 646 140 616 c 0,15,16
 140 594 140 594 129.5 580.5 c 128,-1,17
 119 567 119 567 101 567 c 0,18,19
 73 567 73 567 57 590 c 128,-1,20
 41 613 41 613 41 644 c 0,21,22
 41 666 41 666 50.5 679.5 c 128,-1,23
 60 693 60 693 77 693 c 0,12,13
EndSplineSet
EndChar

StartChar: quotedblleft
Encoding: 8220 8220 172
Width: 358
Flags: W
HStem: 548 124<80.4353 127.348 270.436 315.198> 761 32<112.679 146 315.377 337>
VStem: 20 56<670.436 736.166> 43 97<562.706 663.5> 211 55<664.436 728.722> 234 97<556.706 657.5>
LayerCount: 2
Fore
SplineSet
337 786 m 1,0,-1
 338 755 l 1,1,2
 266 730 266 730 266 687 c 0,3,4
 266 680 266 680 270 664 c 1,5,6
 284 666 284 666 290 666 c 0,7,8
 309 666 309 666 320 640.5 c 128,-1,9
 331 615 331 615 331 591 c 0,10,11
 331 569 331 569 321.5 555.5 c 128,-1,12
 312 542 312 542 295 542 c 0,13,14
 257 542 257 542 234 586 c 128,-1,15
 211 630 211 630 211 674 c 0,16,17
 211 721 211 721 242.5 752 c 128,-1,18
 274 783 274 783 337 786 c 1,0,-1
146 793 m 1,19,-1
 147 761 l 1,20,21
 76 737 76 737 76 693 c 0,22,23
 76 686 76 686 80 670 c 1,24,25
 94 672 94 672 99 672 c 0,26,27
 118 672 118 672 129 646.5 c 128,-1,28
 140 621 140 621 140 597 c 0,29,30
 140 575 140 575 130.5 561.5 c 128,-1,31
 121 548 121 548 104 548 c 0,32,33
 66 548 66 548 43 592 c 128,-1,34
 20 636 20 636 20 680 c 0,35,36
 20 727 20 727 51.5 758.5 c 128,-1,37
 83 790 83 790 146 793 c 1,19,-1
EndSplineSet
EndChar

StartChar: quoteleft
Encoding: 8216 8216 173
Width: 167
Flags: W
HStem: 755 31<113.054 146>
VStem: 20 56<664.436 730.053> 43 97<556.706 657.5>
LayerCount: 2
Fore
SplineSet
146 786 m 1,0,-1
 147 755 l 1,1,2
 76 731 76 731 76 687 c 0,3,4
 76 680 76 680 80 664 c 1,5,6
 94 666 94 666 99 666 c 0,7,8
 118 666 118 666 129 640.5 c 128,-1,9
 140 615 140 615 140 591 c 0,10,11
 140 569 140 569 130.5 555.5 c 128,-1,12
 121 542 121 542 104 542 c 0,13,14
 66 542 66 542 43 586 c 128,-1,15
 20 630 20 630 20 674 c 0,16,17
 20 721 20 721 51.5 752 c 128,-1,18
 83 783 83 783 146 786 c 1,0,-1
EndSplineSet
EndChar

StartChar: afii10054
Encoding: 1029 1029 174
Width: 457
Flags: W
HStem: -5 71<120.071 311.082> 701 67<145.064 306.248>
VStem: 10 90<518.217 656.831> 358 89<106.654 241.389>
LayerCount: 2
Fore
SplineSet
28 57 m 1,0,-1
 42 113 l 1,1,2
 129 66 129 66 213 66 c 0,3,4
 273 66 273 66 315.5 90.5 c 128,-1,5
 358 115 358 115 358 170 c 0,6,7
 358 219 358 219 322 259.5 c 128,-1,8
 286 300 286 300 235 331 c 128,-1,9
 184 362 184 362 133 394.5 c 128,-1,10
 82 427 82 427 46 474.5 c 128,-1,11
 10 522 10 522 10 580 c 0,12,13
 10 651 10 651 61 709.5 c 128,-1,14
 112 768 112 768 184 768 c 0,15,16
 239 768 239 768 306.5 746 c 128,-1,17
 374 724 374 724 420 702 c 1,18,-1
 408 662 l 1,19,20
 294 701 294 701 216 701 c 0,21,22
 168 701 168 701 134 670 c 128,-1,23
 100 639 100 639 100 590 c 0,24,25
 100 553 100 553 119 523 c 128,-1,26
 138 493 138 493 168.5 471 c 128,-1,27
 199 449 199 449 236.5 428 c 128,-1,28
 274 407 274 407 311 383 c 128,-1,29
 348 359 348 359 378.5 331 c 128,-1,30
 409 303 409 303 428 260.5 c 128,-1,31
 447 218 447 218 447 165 c 0,32,33
 447 90 447 90 399 42.5 c 128,-1,34
 351 -5 351 -5 274 -5 c 0,35,36
 208 -5 208 -5 133.5 13.5 c 128,-1,37
 59 32 59 32 28 57 c 1,0,-1
EndSplineSet
EndChar

StartChar: afii10102
Encoding: 1109 1109 175
Width: 388
Flags: W
HStem: -16 69<97.3825 266.029> 482 55<117.544 265.882>
VStem: 38 63<348.304 468.161> 296 72<80.879 184.426>
LayerCount: 2
Fore
SplineSet
349 482 m 1,0,-1
 339 442 l 1,1,2
 242 482 242 482 188 482 c 0,3,4
 140 482 140 482 120.5 467.5 c 128,-1,5
 101 453 101 453 101 406 c 0,6,7
 101 368 101 368 128.5 343 c 128,-1,8
 156 318 156 318 195 303.5 c 128,-1,9
 234 289 234 289 273.5 272.5 c 128,-1,10
 313 256 313 256 340.5 224 c 128,-1,11
 368 192 368 192 368 145 c 0,12,13
 368 81 368 81 321 33 c 128,-1,14
 274 -15 274 -15 199 -16 c 0,15,16
 144 -16 144 -16 96 7 c 128,-1,17
 48 30 48 30 20 65 c 1,18,-1
 49 95 l 1,19,20
 61 90 61 90 84.5 79 c 128,-1,21
 108 68 108 68 118 64.5 c 128,-1,22
 128 61 128 61 147.5 57 c 128,-1,23
 167 53 167 53 189 53 c 0,24,25
 236 53 236 53 266 74 c 128,-1,26
 296 95 296 95 296 133 c 0,27,28
 296 158 296 158 282 175.5 c 128,-1,29
 268 193 268 193 245 204 c 128,-1,30
 222 215 222 215 194.5 225 c 128,-1,31
 167 235 167 235 139.5 247.5 c 128,-1,32
 112 260 112 260 89 277.5 c 128,-1,33
 66 295 66 295 52 325 c 128,-1,34
 38 355 38 355 38 396 c 0,35,36
 38 456 38 456 70.5 496.5 c 128,-1,37
 103 537 103 537 162 537 c 0,38,39
 185 537 185 537 214 530 c 128,-1,40
 243 523 243 523 260 517 c 128,-1,41
 277 511 277 511 310.5 497.5 c 128,-1,42
 344 484 344 484 349 482 c 1,0,-1
EndSplineSet
EndChar

StartChar: afii10105
Encoding: 1112 1112 176
Width: 166
Flags: W
HStem: 503 20G<66.5 88.5> 569 126<42.5029 105.335>
VStem: 26 99<592.721 675.7> 42 83<582.924 645.033> 51 75<-4.11768 513.332>
LayerCount: 2
Fore
SplineSet
-82 -187 m 1,0,-1
 -82 -151 l 1,1,2
 -46 -143 -46 -143 -20 -120.5 c 128,-1,3
 6 -98 6 -98 19.5 -71.5 c 128,-1,4
 33 -45 33 -45 40.5 -4 c 128,-1,5
 48 37 48 37 49.5 67.5 c 128,-1,6
 51 98 51 98 51 143 c 0,7,8
 51 184 51 184 50 288.5 c 128,-1,9
 49 393 49 393 48 479 c 1,10,11
 52 523 52 523 81 523 c 0,12,13
 96 523 96 523 109.5 508 c 128,-1,14
 123 493 123 493 124 470 c 1,15,16
 124 443 124 443 124.5 385.5 c 128,-1,17
 125 328 125 328 125 297 c 0,18,19
 125 294 125 294 125.5 275 c 128,-1,20
 126 256 126 256 126 240 c 0,21,22
 126 100 126 100 116 12 c 128,-1,23
 106 -76 106 -76 83.5 -120.5 c 128,-1,24
 61 -165 61 -165 33 -180 c 128,-1,25
 5 -195 5 -195 -39 -195 c 0,26,27
 -58 -195 -58 -195 -82 -187 c 1,0,-1
61 695 m 0,28,29
 88 695 88 695 106.5 671.5 c 128,-1,30
 125 648 125 648 125 618 c 0,31,32
 125 596 125 596 114.5 582.5 c 128,-1,33
 104 569 104 569 86 569 c 0,34,35
 58 569 58 569 42 592 c 128,-1,36
 26 615 26 615 26 646 c 0,37,38
 26 668 26 668 35 681.5 c 128,-1,39
 44 695 44 695 61 695 c 0,28,29
EndSplineSet
EndChar

StartChar: afii10057
Encoding: 1032 1032 177
Width: 389
Flags: W
HStem: -28 74<109.014 245.204>
VStem: 274 74<77.1174 722.156>
LayerCount: 2
Fore
SplineSet
0 98 m 1,0,-1
 51 124 l 1,1,2
 109 46 109 46 183 46 c 0,3,4
 239 46 239 46 256.5 86 c 128,-1,5
 274 126 274 126 274 217 c 0,6,7
 274 283 274 283 272 423 c 128,-1,8
 270 563 270 563 270 643 c 0,9,10
 270 697 270 697 271 725 c 1,11,12
 278 722 278 722 290 722 c 0,13,14
 294 722 294 722 301.5 722.5 c 128,-1,15
 309 723 309 723 314 723 c 0,16,17
 331 723 331 723 344 717 c 1,18,19
 342 649 342 649 342 613 c 0,20,21
 342 556 342 556 345 429.5 c 128,-1,22
 348 303 348 303 348 233 c 0,23,24
 348 188 348 188 347.5 165 c 128,-1,25
 347 142 347 142 345 110.5 c 128,-1,26
 343 79 343 79 338.5 64.5 c 128,-1,27
 334 50 334 50 325.5 30 c 128,-1,28
 317 10 317 10 305 2.5 c 128,-1,29
 293 -5 293 -5 274.5 -14 c 128,-1,30
 256 -23 256 -23 232 -25.5 c 128,-1,31
 208 -28 208 -28 176 -28 c 0,32,33
 53 -28 53 -28 0 98 c 1,0,-1
EndSplineSet
EndChar

StartChar: afii10050
Encoding: 1168 1168 178
Width: 430
Flags: W
HStem: -25 21G<87 109> 651 68<122 338> 671 45<216.504 338 419 420>
VStem: 41 90<-11.3733 284.323> 55 71<381.22 653.156> 354 45<801.333 839>
LayerCount: 2
Fore
SplineSet
354 839 m 1,0,-1
 399 849 l 1,1,-1
 419 716 l 1,2,-1
 420 716 l 1,3,-1
 430 671 l 1,4,5
 386 668 386 668 276 661.5 c 128,-1,6
 166 655 166 655 122 651 c 1,7,8
 125 556 125 556 126 333 c 128,-1,9
 127 110 127 110 131 6 c 1,10,11
 122 -25 122 -25 96 -25 c 0,12,13
 78 -25 78 -25 61.5 -10 c 128,-1,14
 45 5 45 5 41 26 c 1,15,16
 52 152 52 152 55 615 c 0,17,18
 55 632 55 632 55.5 667 c 128,-1,19
 56 702 56 702 56 722 c 1,20,21
 110 719 110 719 165 719 c 0,22,23
 187 719 187 719 231 719.5 c 128,-1,24
 275 720 275 720 297 720 c 2,25,-1
 338 720 l 1,26,-1
 354 839 l 1,0,-1
EndSplineSet
EndChar

StartChar: afii10098
Encoding: 1169 1169 179
Width: 373
Flags: W
HStem: 0 21G<61.5 106.5>
VStem: 41 90<6.67529 319.703> 61 47<297.685 469> 300 45<601.136 654>
LayerCount: 2
Fore
SplineSet
300 654 m 1,0,-1
 345 665 l 1,1,2
 351 620 351 620 356.5 585 c 128,-1,3
 362 550 362 550 365 533 c 128,-1,4
 368 516 368 516 370.5 504.5 c 128,-1,5
 373 493 373 493 373.5 489 c 128,-1,6
 374 485 374 485 374 483 c 0,7,8
 374 453 374 453 334 449 c 1,9,10
 297 452 297 452 222 459 c 128,-1,11
 147 466 147 466 108 469 c 1,12,13
 109 408 109 408 120 271 c 128,-1,14
 131 134 131 134 131 62 c 0,15,16
 131 0 131 0 82 0 c 0,17,18
 41 0 41 0 41 56 c 0,19,20
 41 122 41 122 44 197.5 c 128,-1,21
 47 273 47 273 53 370.5 c 128,-1,22
 59 468 59 468 61 513 c 1,23,24
 102 516 102 516 181.5 525 c 128,-1,25
 261 534 261 534 284 536 c 1,26,-1
 300 654 l 1,0,-1
EndSplineSet
EndChar

StartChar: paragraph
Encoding: 182 182 180
Width: 658
Flags: W
HStem: 718 20G<200.905 611.5>
VStem: 316.5 89.5<-115.677 159.938> 480 89<-115.256 148.266> 480 52<442.83 656>
LayerCount: 2
Fore
SplineSet
480 445 m 0,0,1
 480 561 480 561 484 656 c 1,2,3
 426 654 426 654 369 654 c 1,4,5
 382 463 382 463 406 -97 c 1,6,7
 397 -128 397 -128 371 -128 c 0,8,9
 353 -128 353 -128 336 -113.5 c 128,-1,10
 319 -99 319 -99 315 -78 c 1,11,12
 317 -24 317 -24 317 199 c 0,13,14
 317 226 317 226 316.5 283 c 128,-1,15
 316 340 316 340 316 368 c 1,16,17
 244 344 244 344 185 344 c 0,18,19
 138 344 138 344 104 362 c 128,-1,20
 70 380 70 380 52.5 411.5 c 128,-1,21
 35 443 35 443 27.5 478 c 128,-1,22
 20 513 20 513 20 554 c 0,23,24
 20 631 20 631 61.5 672 c 128,-1,25
 103 713 103 713 181 717 c 2,26,-1
 599 738 l 1,27,28
 624 737 624 737 641 720 c 128,-1,29
 658 703 658 703 658 683 c 0,30,31
 658 670 658 670 648 660 c 128,-1,32
 638 650 638 650 618 648 c 1,33,-1
 532 657 l 1,34,35
 545 471 545 471 569 -97 c 1,36,37
 560 -128 560 -128 535 -128 c 0,38,39
 517 -128 517 -128 500 -113.5 c 128,-1,40
 483 -99 483 -99 479 -78 c 1,41,42
 481 -24 481 -24 481 199 c 0,43,44
 481 240 481 240 480.5 322 c 128,-1,45
 480 404 480 404 480 445 c 0,0,1
EndSplineSet
EndChar

StartChar: Euro
Encoding: 8364 8364 181
Width: 589
Flags: W
HStem: -46 84<282.622 446.857> 215 90<188.316 457.984> 220 70<185 407.911> 232 46<36 93.6221> 368 90<34.1016 90> 393 45<237.084 440> 672 58<269.806 447.797>
VStem: 90 79<290 369> 98 77<457 552.67>
LayerCount: 2
Fore
SplineSet
36 232 m 1,0,-1
 26 278 l 1,1,2
 34 279 34 279 58 280.5 c 128,-1,3
 82 282 82 282 94 283 c 1,4,5
 90 310 90 310 90 342 c 2,6,-1
 90 369 l 1,7,8
 86 369 86 369 76 368.5 c 128,-1,9
 66 368 66 368 60 368 c 0,10,11
 20 372 20 372 20 402 c 0,12,13
 20 422 20 422 37.5 439.5 c 128,-1,14
 55 457 55 457 80 458 c 1,15,16
 87 457 87 457 98 457 c 1,17,18
 106 511 106 511 121.5 557 c 128,-1,19
 137 603 137 603 162.5 643.5 c 128,-1,20
 188 684 188 684 229.5 707 c 128,-1,21
 271 730 271 730 323 730 c 0,22,23
 381 730 381 730 442.5 710 c 128,-1,24
 504 690 504 690 548 660 c 1,25,-1
 508 614 l 1,26,27
 430 672 430 672 354 672 c 0,28,29
 200 672 200 672 175 453 c 1,30,31
 318 448 318 448 451 438 c 1,32,-1
 440 393 l 1,33,34
 243 377 243 377 169 373 c 1,35,36
 169 302 169 302 171 290 c 1,37,38
 281 299 281 299 412 305 c 1,39,40
 437 304 437 304 454 287 c 128,-1,41
 471 270 471 270 471 250 c 0,42,43
 471 237 471 237 461 227 c 128,-1,44
 451 217 451 217 431 215 c 1,45,46
 368 218 368 218 290.5 220 c 128,-1,47
 213 222 213 222 185 223 c 1,48,49
 207 146 207 146 249.5 92 c 128,-1,50
 292 38 292 38 352 38 c 0,51,52
 415 38 415 38 545 104 c 1,53,54
 561 80 561 80 580 41 c 1,55,56
 454 -46 454 -46 354 -46 c 0,57,58
 304 -46 304 -46 261 -22.5 c 128,-1,59
 218 1 218 1 187.5 41 c 128,-1,60
 157 81 157 81 136 127.5 c 128,-1,61
 115 174 115 174 103 227 c 1,62,63
 97 227 97 227 36 232 c 1,0,-1
EndSplineSet
EndChar

StartChar: perthousand
Encoding: 8240 8240 182
Width: 1012
Flags: W
HStem: -25 68<453.003 579.383 791.003 917.383> -15 21G<115 135.5> 243 65<458.682 577.977 796.682 915.977> 464 67<100.316 225.508> 731 66<104.979 224.977>
VStem: 0 61<569.325 687.431> 263 59<569.725 692.787> 353 62<80.5034 199.119> 616 59<80.916 204.277> 691 62<80.5034 199.119> 954 59<80.916 204.277>
LayerCount: 2
Fore
SplineSet
545 773 m 1,0,-1
 598 737 l 1,1,2
 578 692 578 692 381.5 377.5 c 128,-1,3
 185 63 185 63 160 2 c 1,4,5
 146 -15 146 -15 125 -15 c 0,6,7
 105 -15 105 -15 90.5 0.5 c 128,-1,8
 76 16 76 16 76 37 c 0,9,10
 76 48 76 48 82 60 c 1,11,12
 130 120 130 120 304.5 386 c 128,-1,13
 479 652 479 652 545 773 c 1,0,-1
353 135 m 0,14,15
 353 199 353 199 404 253.5 c 128,-1,16
 455 308 455 308 520 308 c 0,17,18
 579 308 579 308 627 258.5 c 128,-1,19
 675 209 675 209 675 147 c 0,20,21
 675 79 675 79 631 27 c 128,-1,22
 587 -25 587 -25 520 -25 c 0,23,24
 455 -25 455 -25 404 20.5 c 128,-1,25
 353 66 353 66 353 135 c 0,14,15
519 243 m 0,26,27
 480 243 480 243 447.5 211 c 128,-1,28
 415 179 415 179 415 139 c 128,-1,29
 415 99 415 99 446 71 c 128,-1,30
 477 43 477 43 519 43 c 0,31,32
 559 43 559 43 587.5 73 c 128,-1,33
 616 103 616 103 616 146 c 0,34,35
 616 183 616 183 586.5 213 c 128,-1,36
 557 243 557 243 519 243 c 0,26,27
0 624 m 0,37,38
 0 688 0 688 51 742.5 c 128,-1,39
 102 797 102 797 167 797 c 0,40,41
 226 797 226 797 274 747.5 c 128,-1,42
 322 698 322 698 322 636 c 0,43,44
 322 568 322 568 278 516 c 128,-1,45
 234 464 234 464 167 464 c 0,46,47
 102 464 102 464 51 509.5 c 128,-1,48
 0 555 0 555 0 624 c 0,37,38
166 731 m 0,49,50
 127 731 127 731 94 699.5 c 128,-1,51
 61 668 61 668 61 628 c 128,-1,52
 61 588 61 588 92.5 559.5 c 128,-1,53
 124 531 124 531 166 531 c 0,54,55
 206 531 206 531 234.5 561.5 c 128,-1,56
 263 592 263 592 263 635 c 0,57,58
 263 671 263 671 233.5 701 c 128,-1,59
 204 731 204 731 166 731 c 0,49,50
691 135 m 0,60,61
 691 199 691 199 742 253.5 c 128,-1,62
 793 308 793 308 858 308 c 0,63,64
 917 308 917 308 965 258.5 c 128,-1,65
 1013 209 1013 209 1013 147 c 0,66,67
 1013 79 1013 79 969 27 c 128,-1,68
 925 -25 925 -25 858 -25 c 0,69,70
 793 -25 793 -25 742 20.5 c 128,-1,71
 691 66 691 66 691 135 c 0,60,61
857 243 m 0,72,73
 818 243 818 243 785.5 211 c 128,-1,74
 753 179 753 179 753 139 c 128,-1,75
 753 99 753 99 784 71 c 128,-1,76
 815 43 815 43 857 43 c 0,77,78
 897 43 897 43 925.5 73 c 128,-1,79
 954 103 954 103 954 146 c 0,80,81
 954 183 954 183 924.5 213 c 128,-1,82
 895 243 895 243 857 243 c 0,72,73
EndSplineSet
EndChar

StartChar: afii10058
Encoding: 1033 1033 183
Width: 860
Flags: W
HStem: -20 79<496.208 705.463> 356 75<484 654.427> 646 70<233.976 405.617>
VStem: 404 81<103.933 354.734 428 646.828> 409.5 85.5<65.4072 321.969> 756 84<108.516 268.157>
LayerCount: 2
Fore
SplineSet
-43 -94 m 1,0,-1
 -72 -42 l 1,1,2
 -17 -5 -17 -5 22 43.5 c 128,-1,3
 61 92 61 92 83 140.5 c 128,-1,4
 105 189 105 189 118 251 c 128,-1,5
 131 313 131 313 134.5 365.5 c 128,-1,6
 138 418 138 418 138 487 c 0,7,8
 138 523 138 523 140.5 598.5 c 128,-1,9
 143 674 143 674 143 714 c 1,10,11
 172 719 172 719 232 719 c 0,12,13
 257 719 257 719 308 717.5 c 128,-1,14
 359 716 359 716 385 716 c 0,15,16
 433 716 433 716 473 720 c 1,17,18
 485 653 485 653 485 510 c 0,19,20
 485 456 485 456 484 428 c 1,21,22
 511 431 511 431 540 431 c 0,23,24
 672 431 672 431 756 356.5 c 128,-1,25
 840 282 840 282 840 182 c 0,26,27
 840 -20 840 -20 589 -20 c 0,28,29
 523 -20 523 -20 469.5 -10.5 c 128,-1,30
 416 -1 416 -1 408 14 c 1,31,32
 408 39 408 39 409 51 c 1,33,34
 409 65 409 65 409.5 92.5 c 128,-1,35
 410 120 410 120 410 135 c 0,36,37
 410 193 410 193 407 317 c 128,-1,38
 404 441 404 441 404 509 c 0,39,40
 404 578 404 578 407 646 c 1,41,42
 383 648 383 648 323.5 649 c 128,-1,43
 264 650 264 650 233 654 c 1,44,45
 224 602 224 602 218.5 518.5 c 128,-1,46
 213 435 213 435 209.5 370.5 c 128,-1,47
 206 306 206 306 191.5 228.5 c 128,-1,48
 177 151 177 151 152.5 94 c 128,-1,49
 128 37 128 37 78.5 -14.5 c 128,-1,50
 29 -66 29 -66 -43 -94 c 1,0,-1
484 352 m 1,51,52
 488 235 488 235 495 68 c 1,53,54
 564 59 564 59 615 59 c 0,55,56
 756 59 756 59 756 193 c 0,57,58
 756 262 756 262 696.5 309 c 128,-1,59
 637 356 637 356 540 356 c 0,60,61
 509 356 509 356 484 352 c 1,51,52
EndSplineSet
EndChar

StartChar: guilsinglleft
Encoding: 8249 8249 184
Width: 477
Flags: W
HStem: -3 21G<411.5 443.062>
LayerCount: 2
Fore
SplineSet
441 61 m 1,0,-1
 444 -3 l 1,1,2
 379 26 379 26 324 57.5 c 128,-1,3
 269 89 269 89 172 148.5 c 128,-1,4
 75 208 75 208 0 252 c 1,5,6
 0 292 0 292 8 328 c 1,7,8
 44 341 44 341 119.5 371 c 128,-1,9
 195 401 195 401 280 432.5 c 128,-1,10
 365 464 365 464 462 495 c 1,11,-1
 477 437 l 1,12,-1
 100 273 l 1,13,14
 138 244 138 244 209 200 c 128,-1,15
 280 156 280 156 352.5 113.5 c 128,-1,16
 425 71 425 71 441 61 c 1,0,-1
EndSplineSet
EndChar

StartChar: guilsinglright
Encoding: 8250 8250 185
Width: 477
Flags: W
HStem: -3 21G<33.9375 65.5>
LayerCount: 2
Fore
SplineSet
33 -3 m 1,0,-1
 36 61 l 1,1,2
 52 71 52 71 124.5 113.5 c 128,-1,3
 197 156 197 156 268 200 c 128,-1,4
 339 244 339 244 377 273 c 1,5,-1
 0 437 l 1,6,-1
 15 495 l 1,7,8
 112 464 112 464 197 432.5 c 128,-1,9
 282 401 282 401 357.5 371 c 128,-1,10
 433 341 433 341 469 328 c 1,11,12
 477 292 477 292 477 252 c 1,13,14
 402 208 402 208 305 148.5 c 128,-1,15
 208 89 208 89 153 57.5 c 128,-1,16
 98 26 98 26 33 -3 c 1,0,-1
EndSplineSet
EndChar

StartChar: ellipsis
Encoding: 8230 8230 186
Width: 609
Flags: W
HStem: -1 126<57.5419 120.866 271.542 334.866 485.542 548.866>
VStem: 41 99<22.7207 106.359> 255 99<22.7207 106.359> 469 99<22.7207 106.359>
CounterMasks: 1 70
LayerCount: 2
Fore
SplineSet
77 125 m 0,0,1
 104 125 104 125 122 101.5 c 128,-1,2
 140 78 140 78 140 48 c 0,3,4
 140 26 140 26 129.5 12.5 c 128,-1,5
 119 -1 119 -1 101 -1 c 0,6,7
 73 -1 73 -1 57 22 c 128,-1,8
 41 45 41 45 41 76 c 0,9,10
 41 98 41 98 50.5 111.5 c 128,-1,11
 60 125 60 125 77 125 c 0,0,1
291 125 m 0,12,13
 318 125 318 125 336 101.5 c 128,-1,14
 354 78 354 78 354 48 c 0,15,16
 354 26 354 26 343.5 12.5 c 128,-1,17
 333 -1 333 -1 315 -1 c 0,18,19
 287 -1 287 -1 271 22 c 128,-1,20
 255 45 255 45 255 76 c 0,21,22
 255 98 255 98 264.5 111.5 c 128,-1,23
 274 125 274 125 291 125 c 0,12,13
505 125 m 0,24,25
 532 125 532 125 550 101.5 c 128,-1,26
 568 78 568 78 568 48 c 0,27,28
 568 26 568 26 557.5 12.5 c 128,-1,29
 547 -1 547 -1 529 -1 c 0,30,31
 501 -1 501 -1 485 22 c 128,-1,32
 469 45 469 45 469 76 c 0,33,34
 469 98 469 98 478.5 111.5 c 128,-1,35
 488 125 488 125 505 125 c 0,24,25
EndSplineSet
EndChar

StartChar: afii10106
Encoding: 1113 1113 187
Width: 700
Flags: W
HStem: -90 43<-27.6672 -3.19495> -12 60<420.36 557.493> 263 64<414 466.341> 268 69<414.561 556.23> 467 61<193.537 332.688>
VStem: 120.5 67.5<295.075 464.343> 334 86<51.5156 266.671 327 475> 606 74<95.9336 221.439>
LayerCount: 2
Fore
SplineSet
-25 -90 m 1,0,-1
 -41 -47 l 1,1,2
 -8 -34 -8 -34 18.5 -6 c 128,-1,3
 45 22 45 22 62 52.5 c 128,-1,4
 79 83 79 83 91 129 c 128,-1,5
 103 175 103 175 108.5 209.5 c 128,-1,6
 114 244 114 244 117 295 c 128,-1,7
 120 346 120 346 120.5 371.5 c 128,-1,8
 121 397 121 397 121 440 c 0,9,10
 121 501 121 501 132 513 c 0,11,12
 146 528 146 528 287 528 c 0,13,14
 398 528 398 528 413 529 c 1,15,-1
 413 327 l 1,16,17
 449 337 449 337 481 337 c 0,18,19
 568 337 568 337 624 278 c 128,-1,20
 680 219 680 219 680 145 c 0,21,22
 680 76 680 76 626 32 c 128,-1,23
 572 -12 572 -12 497 -12 c 0,24,25
 381 -12 381 -12 335 20 c 1,26,27
 334 50 334 50 334 110 c 0,28,29
 334 138 334 138 334.5 203 c 128,-1,30
 335 268 335 268 335 306 c 0,31,32
 335 334 335 334 334.5 390.5 c 128,-1,33
 334 447 334 447 334 475 c 1,34,35
 292 468 292 468 251 467 c 128,-1,36
 210 466 210 466 193 464 c 1,37,38
 190 431 190 431 188 366 c 128,-1,39
 186 301 186 301 184.5 251.5 c 128,-1,40
 183 202 183 202 172 139.5 c 128,-1,41
 161 77 161 77 140.5 33.5 c 128,-1,42
 120 -10 120 -10 77.5 -44.5 c 128,-1,43
 35 -79 35 -79 -25 -90 c 1,0,-1
414 263 m 1,44,45
 416 126 416 126 420 57 c 1,46,47
 448 48 448 48 481 48 c 0,48,49
 538 48 538 48 572 82 c 128,-1,50
 606 116 606 116 606 160 c 128,-1,51
 606 204 606 204 570 236 c 128,-1,52
 534 268 534 268 467 268 c 0,53,54
 446 268 446 268 414 263 c 1,44,45
EndSplineSet
EndChar

